SplineFontDB: 3.0
FontName: Michroma-Regular
FullName: Michroma Regular
FamilyName: Michroma
Weight: Book
Copyright: 2011 (c) vernon adams
Version: 1.000
ItalicAngle: 0
UnderlinePosition: -103
UnderlineWidth: 102
Ascent: 1638
Descent: 410
sfntRevision: 0x00010000
LayerCount: 2
Layer: 0 1 "Back"  1
Layer: 1 1 "Fore"  0
XUID: [1021 937 215735958 1808448]
FSType: 0
OS2Version: 2
OS2_WeightWidthSlopeOnly: 0
OS2_UseTypoMetrics: 1
CreationTime: 1300382573
ModificationTime: 1362879437
PfmFamily: 33
TTFWeight: 400
TTFWidth: 5
LineGap: 0
VLineGap: 0
OS2TypoAscent: 2368
OS2TypoAOffset: 0
OS2TypoDescent: -544
OS2TypoDOffset: 0
OS2TypoLinegap: 0
OS2WinAscent: 2368
OS2WinAOffset: 0
OS2WinDescent: 544
OS2WinDOffset: 0
HheadAscent: 2368
HheadAOffset: 0
HheadDescent: -544
HheadDOffset: 0
OS2Vendor: 'newt'
Lookup: 258 0 0 "'kern' Horizontal Kerning in Latin lookup 0"  {"'kern' Horizontal Kerning in Latin lookup 0 per glyph data 0"  "'kern' Horizontal Kerning in Latin lookup 0 per glyph data 1"  "'kern' Horizontal Kerning in Latin lookup 0 kerning class 2"  } ['kern' ('latn' <'dflt' > ) ]
MarkAttachClasses: 1
DEI: 91125
KernClass2: 8+ 3 "'kern' Horizontal Kerning in Latin lookup 0 kerning class 2" 
 1 T
 1 Y
 3 m n
 1 K
 1 L
 1 P
 1 V
 7 b e o p
 13 a c d e g o q
 5 v w y
 0 {} -512 {} 0 {} 0 {} -512 {} 0 {} 0 {} 0 {} -64 {} 0 {} -128 {} 0 {} 0 {} -128 {} 0 {} 0 {} -64 {} 0 {} 0 {} -256 {} 0 {} 0 {} 0 {} -64 {}
TtTable: prep
PUSHW_1
 511
SCANCTRL
PUSHB_1
 1
SCANTYPE
SVTCA[y-axis]
MPPEM
PUSHB_1
 8
LT
IF
PUSHB_2
 1
 1
INSTCTRL
EIF
PUSHB_2
 70
 6
CALL
IF
POP
PUSHB_1
 16
EIF
MPPEM
PUSHB_1
 20
GT
IF
POP
PUSHB_1
 128
EIF
SCVTCI
PUSHB_1
 6
CALL
NOT
IF
SVTCA[y-axis]
PUSHB_1
 4
DUP
RCVT
PUSHB_1
 3
CALL
WCVTP
SVTCA[x-axis]
PUSHB_1
 5
DUP
RCVT
PUSHB_1
 3
CALL
WCVTP
PUSHB_1
 6
DUP
RCVT
PUSHW_3
 5
 32767
 2
CALL
PUSHB_2
 3
 70
SROUND
CALL
WCVTP
EIF
PUSHB_1
 20
CALL
EndTTInstrs
TtTable: fpgm
PUSHB_1
 0
FDEF
PUSHB_1
 0
SZP0
MPPEM
PUSHB_1
 42
LT
IF
PUSHB_1
 74
SROUND
EIF
PUSHB_1
 0
SWAP
MIAP[rnd]

StartChar: exclam
Encoding: 33 33 8
Width: 445
GlyphClass: 2
Flags: W
LayerCount: 2
UndoRedoHistory
Layer: 1
Undoes
EndUndoes
Redoes
EndRedoes
EndUndoRedoHistory
Fore
SplineSet
129 1536 m 1,0,-1
 321 1536 l 1,1,-1
 273 448 l 1,2,-1
 177 448 l 1,3,-1
 129 1536 l 1,0,-1
321 0 m 1,4,-1
 129 0 l 1,5,-1
 129 192 l 1,6,-1
 321 192 l 1,7,-1
 321 0 l 1,4,-1
EndSplineSet
EndChar

StartChar: quotedbl
Encoding: 34 34 9
Width: 730
GlyphClass: 2
Flags: W
LayerCount: 2
UndoRedoHistory
Layer: 1
Undoes
EndUndoes
Redoes
EndRedoes
EndUndoRedoHistory
Fore
SplineSet
113 1536 m 1,0,-1
 305 1536 l 1,1,-1
 273 1152 l 1,2,-1
 145 1152 l 1,3,-1
 113 1536 l 1,0,-1
433 1536 m 1,4,-1
 625 1536 l 1,5,-1
 593 1152 l 1,6,-1
 465 1152 l 1,7,-1
 433 1536 l 1,4,-1
EndSplineSet
EndChar

StartChar: numbersign
Encoding: 35 35 10
Width: 1385
GlyphClass: 2
Flags: W
LayerCount: 2
UndoRedoHistory
Layer: 1
Undoes
EndUndoes
Redoes
EndRedoes
EndUndoRedoHistory
Fore
SplineSet
758 320 m 1,0,-1
 449 320 l 1,1,-1
 338 -128 l 1,2,-1
 178 -80 l 1,3,-1
 277 320 l 1,4,-1
 51 320 l 1,5,-1
 51 480 l 1,6,-1
 316 480 l 1,7,-1
 412 864 l 1,8,-1
 115 864 l 1,9,-1
 115 1024 l 1,10,-1
 451 1024 l 1,11,-1
 563 1472 l 1,12,-1
 723 1424 l 1,13,-1
 623 1024 l 1,14,-1
 932 1024 l 1,15,-1
 1044 1472 l 1,16,-1
 1204 1424 l 1,17,-1
 1104 1024 l 1,18,-1
 1331 1024 l 1,19,-1
 1331 864 l 1,20,-1
 1065 864 l 1,21,-1
 969 480 l 1,22,-1
 1267 480 l 1,23,-1
 1267 320 l 1,24,-1
 930 320 l 1,25,-1
 819 -128 l 1,26,-1
 659 -80 l 1,27,-1
 758 320 l 1,0,-1
488 480 m 1,28,-1
 797 480 l 1,29,-1
 893 864 l 1,30,-1
 584 864 l 1,31,-1
 488 480 l 1,28,-1
EndSplineSet
EndChar

StartChar: dollar
Encoding: 36 36 11
Width: 1905
GlyphClass: 2
Flags: W
LayerCount: 2
UndoRedoHistory
Layer: 1
Undoes
EndUndoes
Redoes
EndRedoes
EndUndoRedoHistory
Fore
SplineSet
1788 641.5 m 128,-1,1
 1805 602 1805 602 1811.5 548 c 128,-1,2
 1818 494 1818 494 1818 416.5 c 0,3,4
 1818 340 1818 340 1797 272 c 0,5,6
 1724 37 1724 37 1406 -13 c 0,7,8
 1267 -34 1267 -34 1067 -36 c 1,9,-1
 1067 -128 l 1,10,-1
 875 -128 l 1,11,-1
 875 -36 l 1,12,-1
 794 -36 l 2,13,14
 575 -36 575 -36 500.5 -24 c 128,-1,15
 426 -12 426 -12 378 -0 c 0,16,17
 91 69 91 69 91 384 c 1,18,-1
 283 384 l 1,19,20
 283 264 283 264 331.5 217 c 128,-1,21
 380 170 380 170 419 158 c 0,22,23
 519 128 519 128 643 128 c 2,24,-1
 875 128 l 1,25,-1
 875 704 l 1,26,-1
 858 704 l 2,27,28
 638 704 638 704 573 710.5 c 128,-1,29
 508 717 508 717 449 724.5 c 128,-1,30
 390 732 390 732 306.5 762.5 c 128,-1,31
 223 793 223 793 167 852.5 c 128,-1,32
 111 912 111 912 100.5 986.5 c 128,-1,33
 90 1061 90 1061 90 1128 c 0,34,35
 90 1434 90 1434 381 1516 c 0,36,37
 547 1563 547 1563 875 1568 c 1,38,-1
 875 1664 l 1,39,-1
 1067 1664 l 1,40,-1
 1067 1568 l 1,41,-1
 1114 1568 l 2,42,43
 1353 1568 1353 1568 1471 1546.5 c 128,-1,44
 1589 1525 1589 1525 1664 1479 c 0,45,46
 1818 1385 1818 1385 1818 1152 c 1,47,-1
 1626 1152 l 1,48,49
 1626 1293 1626 1293 1542 1350.5 c 128,-1,50
 1458 1408 1458 1408 1262 1408 c 2,51,-1
 1067 1408 l 1,52,-1
 1067 864 l 1,53,-1
 1122 864 l 2,54,55
 1338 864 1338 864 1411.5 853 c 128,-1,56
 1485 842 1485 842 1534.5 830.5 c 128,-1,57
 1584 819 1584 819 1619.5 803 c 128,-1,58
 1655 787 1655 787 1690 763.5 c 128,-1,59
 1725 740 1725 740 1748 710.5 c 128,-1,0
 1771 681 1771 681 1788 641.5 c 128,-1,1
875 1408 m 1,60,61
 648 1405 648 1405 564 1393 c 0,62,63
 282 1353 282 1353 282 1134 c 0,64,65
 282 1003 282 1003 351.5 946.5 c 128,-1,66
 421 890 421 890 517 877 c 128,-1,67
 613 864 613 864 697 864 c 2,68,-1
 875 864 l 1,69,-1
 875 1408 l 1,60,61
1067 128 m 1,70,71
 1386 128 1386 128 1490 185 c 0,72,73
 1626 259 1626 259 1626 410 c 0,74,75
 1626 598 1626 598 1516 651 c 0,76,77
 1474 671 1474 671 1423.5 687.5 c 128,-1,78
 1373 704 1373 704 1122 704 c 2,79,-1
 1067 704 l 1,80,-1
 1067 128 l 1,70,71
EndSplineSet
EndChar

StartChar: ampersand
Encoding: 38 38 13
Width: 2269
GlyphClass: 2
Flags: W
LayerCount: 2
UndoRedoHistory
Layer: 1
Undoes
EndUndoes
Redoes
EndRedoes
EndUndoRedoHistory
Fore
SplineSet
1897 704 m 2,0,1
 1897 492 1897 492 1878 381 c 1,2,-1
 2249 192 l 1,3,-1
 2185 32 l 1,4,-1
 1823 213 l 1,5,6
 1759 90 1759 90 1610.5 48.5 c 128,-1,7
 1462 7 1462 7 1248 2 c 0,8,9
 1170 0 1170 0 1033 0 c 1,10,-1
 765 -2 l 1,11,12
 511 -2 511 -2 389.5 29.5 c 128,-1,13
 268 61 268 61 195 124 c 128,-1,14
 122 187 122 187 97.5 285.5 c 128,-1,15
 73 384 73 384 73 509 c 128,-1,16
 73 634 73 634 112.5 734 c 128,-1,17
 152 834 152 834 233.5 897 c 128,-1,18
 315 960 315 960 425 960 c 1,19,20
 374 994 374 994 344 1021.5 c 128,-1,21
 314 1049 314 1049 289.5 1100 c 0,22,23
 265 1152 265 1152 265 1212 c 0,24,25
 266 1384 266 1384 360 1460 c 0,26,27
 473 1551 473 1551 691 1563 c 0,28,29
 780 1568 780 1568 918 1568 c 2,30,-1
 969 1568 l 1,31,-1
 1167 1569 l 1,32,33
 1387 1569 1387 1569 1489 1540.5 c 128,-1,34
 1591 1512 1591 1512 1650 1454.5 c 128,-1,35
 1709 1397 1709 1397 1723 1310.5 c 128,-1,36
 1737 1224 1737 1224 1737 1120 c 1,37,-1
 1545 1120 l 1,38,39
 1545 1307 1545 1307 1464.5 1356 c 128,-1,40
 1384 1405 1384 1405 1188 1407 c 0,41,42
 1097 1408 1097 1408 969 1408 c 1,43,-1
 783 1411 l 1,44,45
 590 1411 590 1411 523.5 1362 c 128,-1,46
 457 1313 457 1313 457 1216.5 c 128,-1,47
 457 1120 457 1120 559 1056 c 0,48,49
 582 1042 582 1042 617 1024 c 2,50,-1
 1704 470 l 1,51,52
 1705 490 1705 490 1705 512 c 2,53,-1
 1705 768 l 1,54,-1
 1897 768 l 1,55,-1
 1897 704 l 2,0,1
1033 192 m 1,56,-1
 1265 189 l 1,57,58
 1462 189 1462 189 1538 222 c 128,-1,59
 1614 255 1614 255 1649 300 c 1,60,-1
 585 833 l 1,61,62
 265 833 265 833 265 512 c 0,63,64
 265 402 265 402 293 355 c 128,-1,65
 321 308 321 308 345 283 c 0,66,67
 436 188 436 188 742 188 c 1,68,-1
 1033 192 l 1,56,-1
EndSplineSet
EndChar

StartChar: quotesingle
Encoding: 39 39 14
Width: 410
GlyphClass: 2
Flags: W
LayerCount: 2
UndoRedoHistory
Layer: 1
Undoes
EndUndoes
Redoes
EndRedoes
EndUndoRedoHistory
Fore
SplineSet
113 1536 m 1,0,-1
 305 1536 l 1,1,-1
 273 1152 l 1,2,-1
 145 1152 l 1,3,-1
 113 1536 l 1,0,-1
EndSplineSet
EndChar

StartChar: parenleft
Encoding: 40 40 15
Width: 660
GlyphClass: 2
Flags: W
LayerCount: 2
UndoRedoHistory
Layer: 1
Undoes
EndUndoes
Redoes
EndRedoes
EndUndoRedoHistory
Fore
SplineSet
291 919 m 1,0,-1
 292 768 l 1,1,-1
 292 692 l 1,2,-1
 291 642 l 1,3,-1
 291 617 l 2,4,5
 291 411 291 411 307.5 350 c 128,-1,6
 324 289 324 289 344.5 237 c 128,-1,7
 365 185 365 185 431.5 140.5 c 128,-1,8
 498 96 498 96 612 96 c 1,9,-1
 612 -64 l 1,10,11
 384 -64 384 -64 272 48 c 0,12,13
 194 126 194 126 167 208 c 0,14,15
 122 344 122 344 111 470 c 128,-1,16
 100 596 100 596 100 737.5 c 128,-1,17
 100 879 100 879 104 961 c 0,18,19
 114 1171 114 1171 161 1309 c 0,20,21
 260 1600 260 1600 612 1600 c 1,22,-1
 612 1440 l 1,23,24
 465 1440 465 1440 396 1368 c 0,25,26
 347 1317 347 1317 331 1267 c 0,27,28
 291 1141 291 1141 291 919 c 1,0,-1
EndSplineSet
EndChar

StartChar: parenright
Encoding: 41 41 16
Width: 673
GlyphClass: 2
Flags: W
LayerCount: 2
UndoRedoHistory
Layer: 1
Undoes
EndUndoes
Redoes
EndRedoes
EndUndoRedoHistory
Fore
SplineSet
380 844 m 1,0,-1
 381 894 l 1,1,-1
 381 919 l 2,2,3
 380 1215 380 1215 316 1317 c 0,4,5
 238 1440 238 1440 60 1440 c 1,6,-1
 60 1600 l 1,7,8
 288 1600 288 1600 400 1488 c 0,9,10
 478 1410 478 1410 505 1328 c 0,11,12
 550 1192 550 1192 561 1066 c 128,-1,13
 572 940 572 940 572 811.5 c 128,-1,14
 572 683 572 683 570 617 c 0,15,16
 560 280 560 280 458 119 c 0,17,18
 341 -64 341 -64 60 -64 c 1,19,-1
 60 96 l 1,20,21
 263 96 263 96 333 250 c 1,22,23
 381 359 381 359 381 617 c 1,24,-1
 380 692 l 1,25,-1
 380 844 l 1,0,-1
EndSplineSet
EndChar

StartChar: asterisk
Encoding: 42 42 17
Width: 1230
GlyphClass: 2
Flags: W
LayerCount: 2
UndoRedoHistory
Layer: 1
Undoes
EndUndoes
Redoes
EndRedoes
EndUndoRedoHistory
Fore
SplineSet
326 384 m 1,0,-1
 170 495 l 1,1,-1
 534 896 l 1,2,-1
 34 1072 l 1,3,-1
 134 1250 l 1,4,-1
 566 992 l 1,5,-1
 518 1536 l 1,6,-1
 710 1536 l 1,7,-1
 662 992 l 1,8,-1
 1093 1250 l 1,9,-1
 1193 1072 l 1,10,-1
 694 896 l 1,11,-1
 1058 495 l 1,12,-1
 902 384 l 1,13,-1
 614 834 l 1,14,-1
 326 384 l 1,0,-1
EndSplineSet
EndChar

StartChar: plus
Encoding: 43 43 18
Width: 1217
GlyphClass: 2
Flags: W
LayerCount: 2
UndoRedoHistory
Layer: 1
Undoes
EndUndoes
Redoes
EndRedoes
EndUndoRedoHistory
Fore
SplineSet
67 960 m 1,0,-1
 515 960 l 1,1,-1
 515 1408 l 1,2,-1
 707 1408 l 1,3,-1
 707 960 l 1,4,-1
 1155 960 l 1,5,-1
 1155 800 l 1,6,-1
 707 800 l 1,7,-1
 707 320 l 1,8,-1
 515 320 l 1,9,-1
 515 800 l 1,10,-1
 67 800 l 1,11,-1
 67 960 l 1,0,-1
EndSplineSet
EndChar

StartChar: comma
Encoding: 44 44 19
Width: 444
GlyphClass: 2
Flags: W
LayerCount: 2
UndoRedoHistory
Layer: 1
Undoes
EndUndoes
Redoes
EndRedoes
EndUndoRedoHistory
Fore
SplineSet
152 128 m 1,0,-1
 344 128 l 1,1,-1
 216 -256 l 1,2,-1
 88 -256 l 1,3,-1
 152 128 l 1,0,-1
EndSplineSet
EndChar

StartChar: hyphen
Encoding: 45 45 20
Width: 1175
GlyphClass: 2
Flags: W
LayerCount: 2
UndoRedoHistory
Layer: 1
Undoes
EndUndoes
Redoes
EndRedoes
EndUndoRedoHistory
Fore
SplineSet
202 672 m 1,0,-1
 970 672 l 1,1,-1
 970 512 l 1,2,-1
 202 512 l 1,3,-1
 202 672 l 1,0,-1
EndSplineSet
EndChar

StartChar: period
Encoding: 46 46 21
Width: 418
GlyphClass: 2
Flags: W
LayerCount: 2
UndoRedoHistory
Layer: 1
Undoes
EndUndoes
Redoes
EndRedoes
EndUndoRedoHistory
Fore
SplineSet
307 0 m 1,0,-1
 115 0 l 1,1,-1
 115 192 l 1,2,-1
 307 192 l 1,3,-1
 307 0 l 1,0,-1
EndSplineSet
EndChar

StartChar: slash
Encoding: 47 47 22
Width: 934
GlyphClass: 2
Flags: W
LayerCount: 2
UndoRedoHistory
Layer: 1
Undoes
EndUndoes
Redoes
EndRedoes
EndUndoRedoHistory
Fore
SplineSet
721 1536 m 1,0,-1
 913 1536 l 1,1,-1
 209 0 l 1,2,-1
 17 0 l 1,3,-1
 721 1536 l 1,0,-1
EndSplineSet
EndChar

StartChar: zero
Encoding: 48 48 23
Width: 2074
GlyphClass: 2
Flags: W
LayerCount: 2
UndoRedoHistory
Layer: 1
Undoes
EndUndoes
Redoes
EndRedoes
EndUndoRedoHistory
Fore
SplineSet
1130 1568 m 2,0,1
 1313 1568 1313 1568 1434.5 1544.5 c 128,-1,2
 1556 1521 1556 1521 1646.5 1460 c 128,-1,3
 1737 1399 1737 1399 1780.5 1290.5 c 128,-1,4
 1824 1182 1824 1182 1828 1043 c 128,-1,5
 1832 904 1832 904 1832 768 c 2,6,-1
 1832 756 l 2,7,8
 1832 476 1832 476 1820 407 c 0,9,10
 1792 247 1792 247 1747.5 173 c 128,-1,11
 1703 99 1703 99 1621 53 c 0,12,13
 1471 -32 1471 -32 1130 -32 c 2,14,-1
 945 -32 l 2,15,16
 623 -32 623 -32 491 37.5 c 128,-1,17
 359 107 359 107 304 221 c 128,-1,18
 249 335 249 335 245 520 c 0,19,20
 242 632 242 632 242 768 c 2,21,-1
 242 793 l 2,22,23
 242 1066 242 1066 254 1135 c 0,24,25
 281 1292 281 1292 326 1364.5 c 128,-1,26
 371 1437 371 1437 454 1484 c 0,27,28
 604 1568 604 1568 945 1568 c 2,29,-1
 1130 1568 l 2,0,1
434 768 m 1,30,-1
 431 563 l 1,31,32
 431 366 431 366 469.5 281.5 c 128,-1,33
 508 197 508 197 586 165.5 c 128,-1,34
 664 134 664 134 756.5 131 c 128,-1,35
 849 128 849 128 942 128 c 2,36,-1
 1130 128 l 2,37,38
 1358 128 1358 128 1404 141 c 0,39,40
 1520 173 1520 173 1552 208 c 0,41,42
 1606 265 1606 265 1623.5 355 c 128,-1,43
 1641 445 1641 445 1641 630 c 1,44,-1
 1640 768 l 1,45,-1
 1643 972 l 1,46,47
 1643 1169 1643 1169 1604.5 1254 c 128,-1,48
 1566 1339 1566 1339 1488 1370.5 c 128,-1,49
 1410 1402 1410 1402 1318 1405 c 128,-1,50
 1226 1408 1226 1408 1134 1408 c 2,51,-1
 945 1408 l 2,52,53
 740 1408 740 1408 698 1399 c 128,-1,54
 656 1390 656 1390 617 1380 c 128,-1,55
 578 1370 578 1370 556.5 1354 c 128,-1,56
 535 1338 535 1338 511 1316 c 0,57,58
 467 1274 467 1274 450 1184.5 c 128,-1,59
 433 1095 433 1095 433 923 c 1,60,-1
 434 768 l 1,30,-1
EndSplineSet
EndChar

StartChar: one
Encoding: 49 49 24
Width: 1634
GlyphClass: 2
Flags: W
LayerCount: 2
UndoRedoHistory
Layer: 1
Undoes
EndUndoes
Redoes
EndRedoes
EndUndoRedoHistory
Fore
SplineSet
756 1536 m 1,0,-1
 1012 1536 l 1,1,-1
 1012 0 l 1,2,-1
 820 0 l 1,3,-1
 820 1376 l 1,4,-1
 372 992 l 1,5,-1
 276 1120 l 1,6,-1
 756 1536 l 1,0,-1
EndSplineSet
EndChar

StartChar: two
Encoding: 50 50 25
Width: 2074
GlyphClass: 2
Flags: W
LayerCount: 2
UndoRedoHistory
Layer: 1
Undoes
EndUndoes
Redoes
EndRedoes
EndUndoRedoHistory
Fore
SplineSet
236 192 m 2,0,1
 236 486 236 486 328 596 c 0,2,3
 405 688 405 688 556 704 c 2,4,-1
 1530 800 l 1,5,6
 1651 810 1651 810 1686 876.5 c 128,-1,7
 1721 943 1721 943 1721 1046 c 128,-1,8
 1721 1149 1721 1149 1709 1198 c 0,9,10
 1685 1294 1685 1294 1623 1339 c 128,-1,11
 1561 1384 1561 1384 1474 1397 c 128,-1,12
 1387 1410 1387 1410 1265 1410 c 2,13,-1
 898 1410 l 2,14,15
 578 1410 578 1410 487 1302 c 0,16,17
 436 1241 436 1241 432 1160.5 c 128,-1,18
 428 1080 428 1080 428 992 c 1,19,-1
 236 992 l 1,20,21
 236 1166 236 1166 264.5 1242 c 128,-1,22
 293 1318 293 1318 316 1360.5 c 128,-1,23
 339 1403 339 1403 379.5 1434 c 128,-1,24
 420 1465 420 1465 457 1487.5 c 128,-1,25
 494 1510 494 1510 610 1539 c 0,26,27
 726 1568 726 1568 1096 1568 c 2,28,-1
 1098 1568 l 2,29,30
 1391 1568 1391 1568 1510 1551 c 0,31,32
 1733 1520 1733 1520 1823.5 1406.5 c 128,-1,33
 1914 1293 1914 1293 1914 1088 c 0,34,35
 1914 772 1914 772 1746 682 c 0,36,37
 1684 648 1684 648 1594 640 c 2,38,-1
 620 544 l 2,39,40
 505 532 505 532 472.5 480 c 128,-1,41
 440 428 440 428 434 378 c 128,-1,42
 428 328 428 328 428 279 c 2,43,-1
 428 160 l 1,44,-1
 1882 160 l 1,45,-1
 1882 0 l 1,46,-1
 236 0 l 1,47,-1
 236 192 l 2,0,1
EndSplineSet
EndChar

StartChar: three
Encoding: 51 51 26
Width: 2074
GlyphClass: 2
Flags: W
LayerCount: 2
UndoRedoHistory
Layer: 1
Undoes
EndUndoes
Redoes
EndRedoes
EndUndoRedoHistory
Fore
SplineSet
1752 784 m 1,0,1
 1912 716 1912 716 1912 463 c 128,-1,2
 1912 210 1912 210 1802 112 c 0,3,4
 1760 76 1760 76 1724 52 c 128,-1,5
 1688 28 1688 28 1622 12 c 0,6,7
 1449 -32 1449 -32 1158 -32 c 2,8,-1
 996 -32 l 2,9,10
 695 -32 695 -32 614 -16 c 0,11,12
 434 19 434 19 372 61 c 0,13,14
 267 134 267 134 233 214 c 0,15,16
 184 331 184 331 184 480 c 1,17,-1
 376 480 l 1,18,19
 376 278 376 278 428 224.5 c 128,-1,20
 480 171 480 171 563 156 c 0,21,22
 717 128 717 128 858 128 c 2,23,-1
 1080 128 l 1,24,-1
 1309 124 l 1,25,26
 1495 124 1495 124 1574.5 162.5 c 128,-1,27
 1654 201 1654 201 1687 269 c 128,-1,28
 1720 337 1720 337 1720 420 c 0,29,30
 1720 502 1720 502 1716 540 c 0,31,32
 1705 629 1705 629 1662.5 666.5 c 128,-1,33
 1620 704 1620 704 1528 704 c 2,34,-1
 824 704 l 1,35,-1
 824 864 l 1,36,-1
 1528 864 l 2,37,38
 1641 864 1641 864 1680.5 916.5 c 128,-1,39
 1720 969 1720 969 1720 1059 c 0,40,41
 1720 1269 1720 1269 1623 1341 c 0,42,43
 1562 1387 1562 1387 1476.5 1401.5 c 128,-1,44
 1391 1416 1391 1416 1263 1416 c 2,45,-1
 785 1415 l 2,46,47
 598 1415 598 1415 510 1378 c 0,48,49
 389 1327 389 1327 380 1208 c 0,50,51
 377 1157 377 1157 376 1088 c 1,52,-1
 184 1088 l 1,53,54
 184 1267 184 1267 246 1359 c 0,55,56
 279 1408 279 1408 315.5 1444 c 128,-1,57
 352 1480 352 1480 447 1515 c 0,58,59
 594 1568 594 1568 889 1568 c 2,60,-1
 1183 1568 l 2,61,62
 1378 1568 1378 1568 1500 1551 c 0,63,64
 1730 1519 1730 1519 1821 1404.5 c 128,-1,65
 1912 1290 1912 1290 1912 1088 c 0,66,67
 1912 959 1912 959 1876.5 890.5 c 128,-1,68
 1841 822 1841 822 1752 784 c 1,0,1
EndSplineSet
EndChar

StartChar: four
Encoding: 52 52 27
Width: 2074
GlyphClass: 2
Flags: W
LayerCount: 2
UndoRedoHistory
Layer: 1
Undoes
EndUndoes
Redoes
EndRedoes
EndUndoRedoHistory
Fore
SplineSet
1685 320 m 1,0,-1
 1685 0 l 1,1,-1
 1493 0 l 1,2,-1
 1493 320 l 1,3,-1
 149 320 l 1,4,-1
 149 512 l 1,5,-1
 1429 1536 l 1,6,-1
 1685 1536 l 1,7,-1
 1685 480 l 1,8,-1
 1941 480 l 1,9,-1
 1941 320 l 1,10,-1
 1685 320 l 1,0,-1
1493 480 m 1,11,-1
 1493 1388 l 1,12,-1
 371 480 l 1,13,-1
 1493 480 l 1,11,-1
EndSplineSet
EndChar

StartChar: five
Encoding: 53 53 28
Width: 2074
GlyphClass: 2
Flags: W
LayerCount: 2
UndoRedoHistory
Layer: 1
Undoes
EndUndoes
Redoes
EndRedoes
EndUndoRedoHistory
Fore
SplineSet
1116 128 m 2,0,-1
 1280 126 l 1,1,2
 1453 126 1453 126 1534 150.5 c 128,-1,3
 1615 175 1615 175 1661 223 c 128,-1,4
 1707 271 1707 271 1720.5 344.5 c 128,-1,5
 1734 418 1734 418 1734 490.5 c 128,-1,6
 1734 563 1734 563 1731 627 c 0,7,8
 1728 691 1728 691 1711 747.5 c 128,-1,9
 1694 804 1694 804 1654 838.5 c 128,-1,10
 1614 873 1614 873 1542 884.5 c 128,-1,11
 1470 896 1470 896 1350 896 c 2,12,-1
 860 896 l 2,13,14
 685 896 685 896 604.5 879.5 c 128,-1,15
 524 863 524 863 478 829 c 128,-1,16
 432 795 432 795 412 736 c 1,17,-1
 220 736 l 1,18,-1
 220 1536 l 1,19,-1
 1862 1536 l 1,20,-1
 1862 1376 l 1,21,-1
 412 1376 l 1,22,-1
 412 896 l 1,23,24
 496 1056 496 1056 860 1056 c 2,25,-1
 1350 1056 l 2,26,27
 1563 1056 1563 1056 1660.5 1023 c 128,-1,28
 1758 990 1758 990 1804 948 c 0,29,30
 1903 859 1903 859 1918 686 c 1,31,32
 1926 608 1926 608 1926 506 c 128,-1,33
 1926 404 1926 404 1906.5 321.5 c 128,-1,34
 1887 239 1887 239 1856 181.5 c 128,-1,35
 1825 124 1825 124 1767 84 c 128,-1,36
 1709 44 1709 44 1651 21.5 c 128,-1,37
 1593 -1 1593 -1 1472 -16.5 c 128,-1,38
 1351 -32 1351 -32 1228 -32 c 2,39,-1
 1078 -32 l 1,40,-1
 1040 -32 l 2,41,42
 731 -32 731 -32 650 -16 c 0,43,44
 470 19 470 19 408 61 c 0,45,46
 303 134 303 134 269 214 c 0,47,48
 220 331 220 331 220 480 c 1,49,-1
 412 480 l 1,50,51
 412 309 412 309 445.5 252.5 c 128,-1,52
 479 196 479 196 527 178 c 0,53,54
 659 128 659 128 955 128 c 0,55,56
 1036 128 1036 128 1116 128 c 2,0,-1
EndSplineSet
EndChar

StartChar: six
Encoding: 54 54 29
Width: 2074
GlyphClass: 2
Flags: W
LayerCount: 2
UndoRedoHistory
Layer: 1
Undoes
EndUndoes
Redoes
EndRedoes
EndUndoRedoHistory
Fore
SplineSet
402 832 m 1,0,1
 563 928 563 928 914 928 c 2,2,-1
 1235 928 l 2,3,4
 1548 928 1548 928 1682.5 872.5 c 128,-1,5
 1817 817 1817 817 1877.5 717.5 c 128,-1,6
 1938 618 1938 618 1938 448 c 0,7,8
 1938 193 1938 193 1801.5 91.5 c 128,-1,9
 1665 -10 1665 -10 1408 -27 c 0,10,11
 1332 -32 1332 -32 1235 -32 c 2,12,-1
 914 -32 l 2,13,14
 592 -32 592 -32 460.5 37.5 c 128,-1,15
 329 107 329 107 273.5 222.5 c 128,-1,16
 218 338 218 338 214 520 c 1,17,18
 210 632 210 632 210 737.5 c 0,19,20
 210 842 210 842 210 882 c 0,21,22
 213 1157 213 1157 263 1285 c 0,23,24
 291 1358 291 1358 339 1408.5 c 128,-1,25
 387 1459 387 1459 475 1497 c 0,26,27
 638 1568 638 1568 1025 1568 c 128,-1,28
 1412 1568 1412 1568 1565.5 1524 c 0,29,30
 1720 1480 1720 1480 1786 1398 c 0,31,32
 1874 1290 1874 1290 1873 1120 c 1,33,-1
 1714 1120 l 1,34,35
 1714 1254 1714 1254 1624 1318 c 0,36,37
 1562 1362 1562 1362 1501 1376 c 0,38,39
 1354 1408 1354 1408 1230 1408 c 2,40,-1
 1042 1408 l 1,41,-1
 874 1409 l 1,42,43
 675 1409 675 1409 590 1378.5 c 128,-1,44
 505 1348 505 1348 474 1306 c 128,-1,45
 443 1264 443 1264 422.5 1196.5 c 128,-1,46
 402 1129 402 1129 402 923 c 2,47,-1
 402 832 l 1,0,1
914 768 m 1,48,-1
 765 769 l 1,49,50
 605 769 605 769 536 742 c 0,51,52
 402 689 402 689 402 522 c 0,53,54
 402 294 402 294 498 214 c 0,55,56
 562 161 562 161 661.5 144.5 c 128,-1,57
 761 128 761 128 927 128 c 2,58,-1
 1218 128 l 2,59,60
 1510 128 1510 128 1583 156 c 0,61,62
 1619 170 1619 170 1656 192 c 0,63,64
 1726 234 1726 234 1740 336 c 0,65,66
 1746 384 1746 384 1746 449 c 128,-1,67
 1746 514 1746 514 1733 563.5 c 128,-1,68
 1720 613 1720 613 1700.5 647 c 128,-1,69
 1681 681 1681 681 1623.5 715.5 c 128,-1,70
 1566 750 1566 750 1472.5 759 c 128,-1,71
 1379 768 1379 768 1235 768 c 2,72,-1
 914 768 l 1,48,-1
EndSplineSet
EndChar

StartChar: seven
Encoding: 55 55 30
Width: 2074
GlyphClass: 2
Flags: W
LayerCount: 2
UndoRedoHistory
Layer: 1
Undoes
EndUndoes
Redoes
EndRedoes
EndUndoRedoHistory
Fore
SplineSet
752 0 m 1,0,-1
 496 0 l 1,1,-1
 1680 1376 l 1,2,-1
 176 1376 l 1,3,-1
 176 1536 l 1,4,-1
 1904 1536 l 1,5,-1
 1904 1344 l 1,6,-1
 752 0 l 1,0,-1
EndSplineSet
EndChar

StartChar: eight
Encoding: 56 56 31
Width: 2074
GlyphClass: 2
Flags: W
LayerCount: 2
UndoRedoHistory
Layer: 1
Undoes
EndUndoes
Redoes
EndRedoes
EndUndoRedoHistory
Fore
SplineSet
259 1152 m 0,0,1
 260 1380 260 1380 414 1472 c 0,2,3
 512 1531 512 1531 646 1549.5 c 128,-1,4
 780 1568 780 1568 962 1568 c 2,5,-1
 1166 1568 l 2,6,7
 1466 1568 1466 1568 1602.5 1523.5 c 128,-1,8
 1739 1479 1739 1479 1804 1391.5 c 128,-1,9
 1869 1304 1869 1304 1869 1159.5 c 128,-1,10
 1869 1015 1869 1015 1813 936.5 c 128,-1,11
 1757 858 1757 858 1645 816 c 1,12,13
 1773 769 1773 769 1837 679 c 128,-1,14
 1901 589 1901 589 1901 432 c 0,15,16
 1901 186 1901 186 1751 80 c 0,17,18
 1620 -12 1620 -12 1364 -28 c 0,19,20
 1290 -32 1290 -32 1197 -32 c 2,21,-1
 930 -32 l 2,22,23
 623 -32 623 -32 487 22 c 128,-1,24
 351 76 351 76 289 173 c 128,-1,25
 227 270 227 270 227 430 c 128,-1,26
 227 590 227 590 290.5 679.5 c 128,-1,27
 354 769 354 769 483 816 c 1,28,29
 371 858 371 858 315 936.5 c 128,-1,30
 259 1015 259 1015 259 1152 c 0,0,1
1197 128 m 2,31,32
 1432 128 1432 128 1477 140.5 c 128,-1,33
 1522 153 1522 153 1564 167 c 128,-1,34
 1606 181 1606 181 1627 203.5 c 128,-1,35
 1648 226 1648 226 1678.5 269 c 128,-1,36
 1709 312 1709 312 1709 415 c 128,-1,37
 1709 518 1709 518 1682 576.5 c 128,-1,38
 1655 635 1655 635 1617 666.5 c 128,-1,39
 1579 698 1579 698 1503.5 714 c 128,-1,40
 1428 730 1428 730 1367 733 c 128,-1,41
 1306 736 1306 736 1197 736 c 2,42,-1
 930 736 l 2,43,44
 715 736 715 736 661 724 c 0,45,46
 537 698 537 698 487 653 c 128,-1,47
 437 608 437 608 428 548 c 128,-1,48
 419 488 419 488 419 429 c 128,-1,49
 419 370 419 370 433 322 c 128,-1,50
 447 274 447 274 467 242 c 128,-1,51
 487 210 487 210 546 177.5 c 128,-1,52
 605 145 605 145 693.5 136.5 c 128,-1,53
 782 128 782 128 930 128 c 2,54,-1
 1197 128 l 2,31,32
1164 1408 m 2,55,-1
 843 1408 l 2,56,57
 690 1408 690 1408 643 1395 c 128,-1,58
 596 1382 596 1382 556 1365.5 c 128,-1,59
 516 1349 516 1349 483.5 1296 c 128,-1,60
 451 1243 451 1243 451 1160 c 0,61,62
 451 1077 451 1077 474 1028.5 c 128,-1,63
 497 980 497 980 537 953.5 c 128,-1,64
 577 927 577 927 642.5 911.5 c 128,-1,65
 708 896 708 896 882 896 c 2,66,-1
 1194 896 l 2,67,68
 1390 896 1390 896 1447 902 c 0,69,70
 1593 919 1593 919 1644 1002 c 0,71,72
 1677 1057 1677 1057 1677 1165.5 c 128,-1,73
 1677 1274 1677 1274 1623.5 1321 c 128,-1,74
 1570 1368 1570 1368 1514.5 1383.5 c 128,-1,75
 1459 1399 1459 1399 1398 1403.5 c 128,-1,76
 1337 1408 1337 1408 1164 1408 c 2,55,-1
EndSplineSet
EndChar

StartChar: nine
Encoding: 57 57 32
Width: 2074
GlyphClass: 2
Flags: W
LayerCount: 2
UndoRedoHistory
Layer: 1
Undoes
EndUndoes
Redoes
EndRedoes
EndUndoRedoHistory
Fore
SplineSet
177 1088 m 0,0,1
 176 1343 176 1343 320 1450 c 0,2,3
 416 1521 416 1521 552.5 1544.5 c 128,-1,4
 689 1568 689 1568 880 1568 c 2,5,-1
 1201 1568 l 2,6,7
 1523 1568 1523 1568 1654.5 1498.5 c 128,-1,8
 1786 1429 1786 1429 1841 1314.5 c 128,-1,9
 1896 1200 1896 1200 1900.5 1052 c 128,-1,10
 1905 904 1905 904 1905 767 c 128,-1,11
 1905 630 1905 630 1897 527 c 0,12,13
 1882 326 1882 326 1818 198 c 0,14,15
 1736 34 1736 34 1491 -7 c 0,16,17
 1339 -32 1339 -32 1163 -32 c 1,18,19
 1163 -33 1163 -33 1120 -33 c 0,20,21
 1063 -33 1063 -33 929 -31 c 0,22,23
 586 -25 586 -25 428 61 c 0,24,25
 242 162 242 162 242 416 c 1,26,-1
 409 416 l 1,27,28
 409 282 409 282 505 212.5 c 128,-1,29
 601 143 601 143 802 132 c 0,30,31
 879 128 879 128 998 128 c 2,32,-1
 1241 128 l 2,33,34
 1526 128 1526 128 1620 228 c 0,35,36
 1688 300 1688 300 1705 450 c 0,37,38
 1713 522 1713 522 1713 622 c 2,39,-1
 1713 713 l 1,40,41
 1642 648 1642 648 1519 628 c 128,-1,42
 1396 608 1396 608 1201 608 c 2,43,-1
 880 608 l 2,44,45
 567 608 567 608 432.5 663.5 c 128,-1,46
 298 719 298 719 237.5 818.5 c 128,-1,47
 177 918 177 918 177 1088 c 0,0,1
1201 768 m 2,48,49
 1277 768 1277 768 1331 767 c 0,50,51
 1345 767 1345 767 1358 767 c 0,52,53
 1549 767 1549 767 1628 819 c 0,54,55
 1713 875 1713 875 1713 1023 c 0,56,57
 1713 1243 1713 1243 1618 1323 c 0,58,59
 1555 1376 1555 1376 1457.5 1392 c 128,-1,60
 1360 1408 1360 1408 1201 1408 c 2,61,-1
 844 1408 l 2,62,63
 607 1408 607 1408 524.5 1374.5 c 128,-1,64
 442 1341 442 1341 405.5 1274.5 c 128,-1,65
 369 1208 369 1208 369 1115 c 128,-1,66
 369 1022 369 1022 382 972.5 c 128,-1,67
 395 923 395 923 414.5 889 c 128,-1,68
 434 855 434 855 491.5 820.5 c 128,-1,69
 549 786 549 786 642.5 777 c 128,-1,70
 736 768 736 768 880 768 c 2,71,-1
 1201 768 l 2,48,49
EndSplineSet
EndChar

StartChar: colon
Encoding: 58 58 33
Width: 452
GlyphClass: 2
Flags: W
LayerCount: 2
UndoRedoHistory
Layer: 1
Undoes
EndUndoes
Redoes
EndRedoes
EndUndoRedoHistory
Fore
SplineSet
325 768 m 1,0,-1
 133 768 l 1,1,-1
 133 960 l 1,2,-1
 325 960 l 1,3,-1
 325 768 l 1,0,-1
325 192 m 1,4,-1
 133 192 l 1,5,-1
 133 384 l 1,6,-1
 325 384 l 1,7,-1
 325 192 l 1,4,-1
EndSplineSet
EndChar

StartChar: semicolon
Encoding: 59 59 34
Width: 480
GlyphClass: 2
Flags: W
LayerCount: 2
UndoRedoHistory
Layer: 1
Undoes
EndUndoes
Redoes
EndRedoes
EndUndoRedoHistory
Fore
SplineSet
173 512 m 1,0,-1
 365 512 l 1,1,-1
 237 128 l 1,2,-1
 109 128 l 1,3,-1
 173 512 l 1,0,-1
365 768 m 1,4,-1
 173 768 l 1,5,-1
 173 960 l 1,6,-1
 365 960 l 1,7,-1
 365 768 l 1,4,-1
EndSplineSet
EndChar

StartChar: less
Encoding: 60 60 35
Width: 1060
GlyphClass: 2
Flags: W
LayerCount: 2
UndoRedoHistory
Layer: 1
Undoes
EndUndoes
Redoes
EndRedoes
EndUndoRedoHistory
Fore
SplineSet
960 1472 m 1,0,-1
 960 1216 l 1,1,-1
 208 832 l 1,2,-1
 960 448 l 1,3,-1
 960 192 l 1,4,-1
 64 736 l 1,5,-1
 64 928 l 1,6,-1
 960 1472 l 1,0,-1
EndSplineSet
EndChar

StartChar: equal
Encoding: 61 61 36
Width: 1623
GlyphClass: 2
Flags: W
LayerCount: 2
UndoRedoHistory
Layer: 1
Undoes
EndUndoes
Redoes
EndRedoes
EndUndoRedoHistory
Fore
SplineSet
202 1024 m 1,0,-1
 1418 1024 l 1,1,-1
 1418 864 l 1,2,-1
 202 864 l 1,3,-1
 202 1024 l 1,0,-1
202 480 m 1,4,-1
 1418 480 l 1,5,-1
 1418 320 l 1,6,-1
 202 320 l 1,7,-1
 202 480 l 1,4,-1
EndSplineSet
EndChar

StartChar: greater
Encoding: 62 62 37
Width: 1064
GlyphClass: 2
Flags: W
LayerCount: 2
UndoRedoHistory
Layer: 1
Undoes
EndUndoes
Redoes
EndRedoes
EndUndoRedoHistory
Fore
SplineSet
1004 928 m 1,0,-1
 1004 736 l 1,1,-1
 108 192 l 1,2,-1
 108 448 l 1,3,-1
 860 832 l 1,4,-1
 108 1216 l 1,5,-1
 108 1472 l 1,6,-1
 1004 928 l 1,0,-1
EndSplineSet
EndChar

StartChar: question
Encoding: 63 63 38
Width: 1708
GlyphClass: 2
Flags: W
LayerCount: 2
UndoRedoHistory
Layer: 1
Undoes
EndUndoes
Redoes
EndRedoes
EndUndoRedoHistory
Fore
SplineSet
1638 1153 m 0,0,1
 1638 736 1638 736 1173 736 c 0,2,3
 941 736 941 736 876.5 666.5 c 128,-1,4
 812 597 812 597 808 463 c 0,5,6
 806 401 806 401 806 321 c 1,7,-1
 614 321 l 1,8,-1
 614 387 l 2,9,10
 614 667 614 667 729 781.5 c 128,-1,11
 844 896 844 896 1126 896 c 0,12,13
 1288 896 1288 896 1366.5 947.5 c 128,-1,14
 1445 999 1445 999 1445 1149 c 0,15,16
 1446 1299 1446 1299 1364 1353 c 0,17,18
 1311 1388 1311 1388 1236.5 1398.5 c 128,-1,19
 1162 1409 1162 1409 1061 1409 c 2,20,-1
 934 1408 l 1,21,-1
 629 1416 l 1,22,23
 247 1416 247 1416 234 1238 c 0,24,25
 230 1183 230 1183 230 1122 c 1,26,-1
 38 1122 l 1,27,28
 38 1252 38 1252 68 1312.5 c 128,-1,29
 98 1373 98 1373 122.5 1406 c 128,-1,30
 147 1439 147 1439 208 1478 c 128,-1,31
 269 1517 269 1517 388 1542 c 0,32,33
 506 1568 506 1568 670 1568 c 2,34,-1
 935 1568 l 2,35,36
 1263 1568 1263 1568 1389.5 1527 c 128,-1,37
 1516 1486 1516 1486 1569 1410 c 0,38,39
 1638 1310 1638 1310 1638 1153 c 0,0,1
806 0 m 1,40,-1
 614 0 l 1,41,-1
 614 192 l 1,42,-1
 806 192 l 1,43,-1
 806 0 l 1,40,-1
EndSplineSet
EndChar

StartChar: at
Encoding: 64 64 39
Width: 2151
GlyphClass: 2
Flags: W
LayerCount: 2
UndoRedoHistory
Layer: 1
Undoes
EndUndoes
Redoes
EndRedoes
EndUndoRedoHistory
Fore
SplineSet
1390 803 m 128,-1,1
 1316 864 1316 864 1130 864 c 2,2,-1
 1002 864 l 2,3,4
 851 864 851 864 793 846 c 128,-1,5
 735 828 735 828 704.5 789 c 128,-1,6
 674 750 674 750 669 695 c 128,-1,7
 664 640 664 640 664 555 c 128,-1,8
 664 470 664 470 684 410 c 0,9,10
 721 300 721 300 896 292 c 0,11,12
 982 288 982 288 1097.5 288 c 128,-1,13
 1213 288 1213 288 1294 304 c 128,-1,14
 1375 320 1375 320 1419.5 379.5 c 128,-1,15
 1464 439 1464 439 1464 590.5 c 128,-1,0
 1464 742 1464 742 1390 803 c 128,-1,1
1527 320 m 1,16,17
 1437 128 1437 128 1065 128 c 0,18,19
 756 128 756 128 642 188 c 0,20,21
 504 261 504 261 483 414 c 0,22,23
 472 490 472 490 472 566 c 0,24,25
 472 884 472 884 661 966 c 0,26,27
 792 1024 792 1024 1078 1024 c 0,28,29
 1218 1024 1218 1024 1322 985 c 128,-1,30
 1426 946 1426 946 1464 864 c 1,31,-1
 1464 992 l 1,32,-1
 1656 992 l 1,33,-1
 1656 430 l 2,34,35
 1656 339 1656 339 1679 314 c 0,36,37
 1704 287 1704 287 1753 287 c 0,38,39
 1776 286 1776 286 1804 292 c 0,40,41
 1864 305 1864 305 1874 374 c 0,42,43
 1880 415 1880 415 1880 480 c 2,44,-1
 1880 768 l 2,45,46
 1880 1024 1880 1024 1736 1124 c 0,47,48
 1629 1198 1629 1198 1394 1211 c 0,49,50
 1311 1216 1311 1216 1198 1216 c 2,51,-1
 1038 1216 l 1,52,-1
 988 1217 l 1,53,-1
 919 1217 l 2,54,55
 728 1217 728 1217 621 1196 c 128,-1,56
 514 1175 514 1175 444.5 1131.5 c 128,-1,57
 375 1088 375 1088 339 1011.5 c 128,-1,58
 303 935 303 935 292 834 c 128,-1,59
 281 733 281 733 281 616.5 c 128,-1,60
 281 500 281 500 286 400.5 c 128,-1,61
 291 301 291 301 321 209 c 128,-1,62
 351 117 351 117 414 59 c 128,-1,63
 477 1 477 1 576.5 -24 c 128,-1,64
 676 -49 676 -49 806 -56.5 c 128,-1,65
 936 -64 936 -64 1751 -64 c 1,66,-1
 1751 -224 l 1,67,-1
 1112 -224 l 2,68,69
 582 -224 582 -224 359 -95 c 128,-1,70
 136 34 136 34 102 328 c 1,71,72
 88 440 88 440 88 612.5 c 128,-1,73
 88 785 88 785 114 922 c 0,74,75
 170 1224 170 1224 436 1307 c 0,76,77
 659 1376 659 1376 999.5 1376 c 128,-1,78
 1340 1376 1340 1376 1473 1362 c 128,-1,79
 1606 1348 1606 1348 1692 1324 c 0,80,81
 1905 1264 1905 1264 1992 1127 c 0,82,83
 2036 1057 2036 1057 2072 480 c 1,84,85
 2072 380 2072 380 2058 316.5 c 128,-1,86
 2044 253 2044 253 2008 209 c 0,87,88
 1941 128 1941 128 1751 128 c 0,89,90
 1527 128 1527 128 1527 320 c 1,16,17
EndSplineSet
EndChar

StartChar: A
Encoding: 65 65 40
Width: 2191
GlyphClass: 2
Flags: W
LayerCount: 2
UndoRedoHistory
Layer: 1
Undoes
EndUndoes
Redoes
EndRedoes
EndUndoRedoHistory
Fore
SplineSet
1704 352 m 1,0,-1
 488 352 l 1,1,-1
 296 0 l 1,2,-1
 72 0 l 1,3,-1
 968 1536 l 1,4,-1
 1224 1536 l 1,5,-1
 2120 0 l 1,6,-1
 1896 0 l 1,7,-1
 1704 352 l 1,0,-1
1608 512 m 1,8,-1
 1096 1408 l 1,9,-1
 584 512 l 1,10,-1
 1608 512 l 1,8,-1
EndSplineSet
EndChar

StartChar: B
Encoding: 66 66 41
Width: 2036
GlyphClass: 2
Flags: W
LayerCount: 2
UndoRedoHistory
Layer: 1
Undoes
EndUndoes
Redoes
EndRedoes
EndUndoRedoHistory
Fore
SplineSet
1619 832 m 1,0,1
 1769 824 1769 824 1854 731 c 128,-1,2
 1939 638 1939 638 1939 478 c 0,3,4
 1939 218 1939 218 1821.5 120 c 128,-1,5
 1704 22 1704 22 1466 5 c 0,6,7
 1394 0 1394 0 1298 0 c 2,8,-1
 147 0 l 1,9,-1
 147 1536 l 1,10,-1
 1428 1536 l 2,11,12
 1547 1536 1547 1536 1625.5 1520.5 c 128,-1,13
 1704 1505 1704 1505 1763 1465 c 0,14,15
 1875 1389 1875 1389 1875 1174 c 0,16,17
 1875 1025 1875 1025 1810 933 c 128,-1,18
 1745 841 1745 841 1619 832 c 1,0,1
1234 160 m 1,19,-1
 1360 159 l 1,20,21
 1514 159 1514 159 1584 180 c 128,-1,22
 1654 201 1654 201 1692.5 242 c 128,-1,23
 1731 283 1731 283 1739 344.5 c 128,-1,24
 1747 406 1747 406 1747 468 c 0,25,26
 1747 627 1747 627 1662 681.5 c 128,-1,27
 1577 736 1577 736 1398 736 c 0,28,29
 868 736 868 736 339 736 c 1,30,-1
 339 160 l 1,31,-1
 1234 160 l 1,19,-1
1335 896 m 0,32,33
 1492 896 1492 896 1559.5 925.5 c 128,-1,34
 1627 955 1627 955 1655 1014.5 c 128,-1,35
 1683 1074 1683 1074 1683 1144.5 c 128,-1,36
 1683 1215 1683 1215 1670.5 1263.5 c 128,-1,37
 1658 1312 1658 1312 1615 1338 c 128,-1,38
 1572 1364 1572 1364 1514 1370 c 128,-1,39
 1456 1376 1456 1376 1364 1376 c 2,40,-1
 339 1376 l 1,41,-1
 339 896 l 1,42,43
 837 896 837 896 1335 896 c 0,32,33
EndSplineSet
EndChar

StartChar: C
Encoding: 67 67 42
Width: 2072
GlyphClass: 2
Flags: W
LayerCount: 2
UndoRedoHistory
Layer: 1
Undoes
EndUndoes
Redoes
EndRedoes
EndUndoRedoHistory
Fore
SplineSet
297 563 m 2,0,1
 297 362 297 362 336 279.5 c 128,-1,2
 375 197 375 197 455 164 c 0,3,4
 535 130 535 130 701 128 c 0,5,6
 737 128 737 128 807 128 c 2,7,-1
 1259 128 l 2,8,9
 1445 128 1445 128 1520 140 c 0,10,11
 1669 164 1669 164 1725 254 c 0,12,13
 1770 325 1770 325 1770 512 c 1,14,-1
 1962 512 l 1,15,16
 1962 254 1962 254 1852.5 132 c 128,-1,17
 1743 10 1743 10 1508 -19 c 0,18,19
 1404 -32 1404 -32 1259 -32 c 2,20,-1
 810 -32 l 2,21,22
 490 -32 490 -32 332.5 50.5 c 128,-1,23
 175 133 175 133 129 343 c 1,24,25
 107 452 107 452 107 768 c 2,26,-1
 107 793 l 2,27,28
 108 1070 108 1070 120 1137 c 0,29,30
 149 1295 149 1295 193 1365.5 c 128,-1,31
 237 1436 237 1436 319 1483 c 0,32,33
 469 1568 469 1568 810 1568 c 2,34,-1
 1259 1568 l 2,35,36
 1572 1568 1572 1568 1708 1509 c 128,-1,37
 1844 1450 1844 1450 1903 1342.5 c 128,-1,38
 1962 1235 1962 1235 1962 1056 c 1,39,-1
 1770 1056 l 1,40,41
 1770 1186 1770 1186 1744 1236.5 c 128,-1,42
 1718 1287 1718 1287 1696.5 1313 c 128,-1,43
 1675 1339 1675 1339 1621 1365 c 0,44,45
 1531 1408 1531 1408 1259 1408 c 2,46,-1
 810 1408 l 2,47,48
 605 1408 605 1408 563 1399 c 128,-1,49
 521 1390 521 1390 482 1380 c 128,-1,50
 443 1370 443 1370 421.5 1354 c 128,-1,51
 400 1338 400 1338 367 1306 c 0,52,53
 298 1240 298 1240 298 923 c 2,54,-1
 297 563 l 2,0,1
EndSplineSet
EndChar

StartChar: D
Encoding: 68 68 43
Width: 2117
GlyphClass: 2
Flags: W
LayerCount: 2
UndoRedoHistory
Layer: 1
Undoes
EndUndoes
Redoes
EndRedoes
EndUndoRedoHistory
Fore
SplineSet
1813 952 m 5,0,1
 1813 1151 1813 1151 1774 1231 c 128,-1,2
 1735 1311 1735 1311 1657.5 1340.5 c 128,-1,3
 1580 1370 1580 1370 1489.5 1373 c 128,-1,4
 1399 1376 1399 1376 1310 1376 c 2,5,-1
 339 1376 l 1,6,-1
 339 160 l 1,7,-1
 1320 160 l 2,8,9
 1532 160 1532 160 1579 172 c 0,10,11
 1687 201 1687 201 1730 244 c 0,12,13
 1811 325 1811 325 1811 558 c 1,14,-1
 1813 952 l 5,0,1
147 0 m 1,15,-1
 147 1536 l 1,16,-1
 1298 1536 l 2,17,18
 1617 1536 1617 1536 1748 1472 c 128,-1,19
 1879 1408 1879 1408 1935.5 1299.5 c 128,-1,20
 1992 1191 1992 1191 1998 1045 c 0,21,22
 2004 849 2004 849 2002 634 c 4,23,24
 1999 324 1999 324 1926 210 c 0,25,26
 1871 124 1871 124 1788 80 c 0,27,28
 1638 0 1638 0 1298 0 c 2,29,-1
 147 0 l 1,15,-1
EndSplineSet
EndChar

StartChar: E
Encoding: 69 69 44
Width: 1773
GlyphClass: 2
Flags: W
LayerCount: 2
UndoRedoHistory
Layer: 1
Undoes
EndUndoes
Redoes
EndRedoes
EndUndoRedoHistory
Fore
SplineSet
147 0 m 1,0,-1
 147 1536 l 1,1,-1
 1683 1536 l 1,2,-1
 1683 1376 l 1,3,-1
 339 1376 l 1,4,-1
 339 864 l 1,5,-1
 1619 864 l 1,6,-1
 1619 704 l 1,7,-1
 339 704 l 1,8,-1
 339 160 l 1,9,-1
 1683 160 l 1,10,-1
 1683 0 l 1,11,-1
 147 0 l 1,0,-1
EndSplineSet
EndChar

StartChar: F
Encoding: 70 70 45
Width: 1675
GlyphClass: 2
Flags: W
LayerCount: 2
UndoRedoHistory
Layer: 1
Undoes
EndUndoes
Redoes
EndRedoes
EndUndoRedoHistory
Fore
SplineSet
147 0 m 1,0,-1
 147 1536 l 1,1,-1
 1619 1536 l 1,2,-1
 1619 1376 l 1,3,-1
 339 1376 l 1,4,-1
 339 864 l 1,5,-1
 1555 864 l 1,6,-1
 1555 704 l 1,7,-1
 339 704 l 1,8,-1
 339 0 l 1,9,-1
 147 0 l 1,0,-1
EndSplineSet
EndChar

StartChar: G
Encoding: 71 71 46
Width: 2145
GlyphClass: 2
Flags: W
LayerCount: 2
UndoRedoHistory
Layer: 1
Undoes
EndUndoes
Redoes
EndRedoes
EndUndoRedoHistory
Fore
SplineSet
299 768 m 1,0,-1
 297 563 l 1,1,2
 297 362 297 362 336 279.5 c 128,-1,3
 375 197 375 197 455 164 c 0,4,5
 535 130 535 130 701 128 c 0,6,7
 737 128 737 128 807 128 c 2,8,-1
 1325 128 l 2,9,10
 1558 128 1558 128 1610 143 c 0,11,12
 1730 178 1730 178 1765 219 c 0,13,14
 1818 282 1818 282 1827 357 c 128,-1,15
 1836 432 1836 432 1836 512 c 2,16,-1
 1836 608 l 1,17,-1
 1066 608 l 1,18,-1
 1066 768 l 1,19,-1
 2028 768 l 1,20,-1
 2028 512 l 2,21,22
 2028 254 2028 254 1918.5 132 c 128,-1,23
 1809 10 1809 10 1574 -19 c 0,24,25
 1470 -32 1470 -32 1325 -32 c 2,26,-1
 810 -32 l 2,27,28
 490 -32 490 -32 332.5 50.5 c 128,-1,29
 175 133 175 133 129 343 c 1,30,31
 107 452 107 452 107 768 c 2,32,-1
 107 793 l 2,33,34
 108 1070 108 1070 120 1137 c 0,35,36
 149 1295 149 1295 193 1365.5 c 128,-1,37
 237 1436 237 1436 319 1483 c 0,38,39
 469 1568 469 1568 810 1568 c 2,40,-1
 1324 1568 l 2,41,42
 1764 1568 1764 1568 1907 1425 c 0,43,44
 2028 1304 2028 1304 2028 1056 c 1,45,-1
 1836 1056 l 1,46,47
 1836 1186 1836 1186 1810 1236.5 c 128,-1,48
 1784 1287 1784 1287 1762.5 1313 c 128,-1,49
 1741 1339 1741 1339 1687 1365 c 0,50,51
 1597 1408 1597 1408 1324 1408 c 2,52,-1
 810 1408 l 2,53,54
 605 1408 605 1408 563 1399 c 128,-1,55
 521 1390 521 1390 482 1380 c 128,-1,56
 443 1370 443 1370 421.5 1354 c 128,-1,57
 400 1338 400 1338 367 1306 c 0,58,59
 298 1240 298 1240 298 923 c 1,60,-1
 299 768 l 1,0,-1
EndSplineSet
EndChar

StartChar: H
Encoding: 72 72 47
Width: 2192
GlyphClass: 2
Flags: W
LayerCount: 2
UndoRedoHistory
Layer: 1
Undoes
EndUndoes
Redoes
EndRedoes
EndUndoRedoHistory
Fore
SplineSet
1800 1536 m 1,0,-1
 1992 1536 l 1,1,-1
 1992 0 l 1,2,-1
 1800 0 l 1,3,-1
 1800 704 l 1,4,-1
 392 704 l 1,5,-1
 392 0 l 1,6,-1
 200 0 l 1,7,-1
 200 1536 l 1,8,-1
 392 1536 l 1,9,-1
 392 864 l 1,10,-1
 1800 864 l 1,11,-1
 1800 1536 l 1,0,-1
EndSplineSet
EndChar

StartChar: J
Encoding: 74 74 49
Width: 1632
GlyphClass: 2
Flags: W
LayerCount: 2
UndoRedoHistory
Layer: 1
Undoes
EndUndoes
Redoes
EndRedoes
EndUndoRedoHistory
Fore
SplineSet
1501 448 m 2,0,1
 1501 196 1501 196 1377 98 c 0,2,3
 1253 0 1253 0 989 0 c 2,4,-1
 541 0 l 2,5,6
 339 0 339 0 236.5 58 c 128,-1,7
 134 116 134 116 109 270 c 0,8,9
 93 368 93 368 93 512 c 2,10,-1
 93 576 l 1,11,-1
 285 576 l 1,12,-1
 285 512 l 2,13,14
 285 331 285 331 312 269 c 0,15,16
 339 207 339 207 392 181 c 0,17,18
 446 156 446 156 541 156 c 2,19,-1
 989 156 l 2,20,21
 1161 156 1161 156 1235 220.5 c 128,-1,22
 1309 285 1309 285 1309 448 c 2,23,-1
 1309 1536 l 1,24,-1
 1501 1536 l 1,25,-1
 1501 448 l 2,0,1
EndSplineSet
EndChar

StartChar: K
Encoding: 75 75 50
Width: 1918
GlyphClass: 2
Flags: W
LayerCount: 2
UndoRedoHistory
Layer: 1
Undoes
EndUndoes
Redoes
EndRedoes
EndUndoRedoHistory
Fore
SplineSet
1587 1536 m 1,0,-1
 1875 1536 l 1,1,-1
 937 784 l 1,2,-1
 1907 0 l 1,3,-1
 1619 0 l 1,4,-1
 745 704 l 1,5,-1
 339 704 l 1,6,-1
 339 0 l 1,7,-1
 147 0 l 1,8,-1
 147 1536 l 1,9,-1
 339 1536 l 1,10,-1
 339 864 l 1,11,-1
 745 864 l 1,12,-1
 1587 1536 l 1,0,-1
EndSplineSet
EndChar

StartChar: L
Encoding: 76 76 51
Width: 1601
GlyphClass: 2
Flags: W
LayerCount: 2
UndoRedoHistory
Layer: 1
Undoes
EndUndoes
Redoes
EndRedoes
EndUndoRedoHistory
Fore
SplineSet
147 0 m 1,0,-1
 147 1536 l 1,1,-1
 339 1536 l 1,2,-1
 339 160 l 1,3,-1
 1555 160 l 1,4,-1
 1555 0 l 1,5,-1
 147 0 l 1,0,-1
EndSplineSet
EndChar

StartChar: M
Encoding: 77 77 52
Width: 2816
GlyphClass: 2
Flags: W
LayerCount: 2
UndoRedoHistory
Layer: 1
Undoes
EndUndoes
Redoes
EndRedoes
EndUndoRedoHistory
Fore
SplineSet
392 1408 m 1,0,-1
 392 0 l 1,1,-1
 200 0 l 1,2,-1
 200 1536 l 1,3,-1
 520 1536 l 1,4,-1
 1415 192 l 1,5,-1
 2310 1536 l 1,6,-1
 2616 1536 l 1,7,-1
 2616 0 l 1,8,-1
 2424 0 l 1,9,-1
 2424 1387 l 1,10,-1
 1512 0 l 1,11,-1
 1318 0 l 1,12,-1
 392 1408 l 1,0,-1
EndSplineSet
EndChar

StartChar: N
Encoding: 78 78 53
Width: 2337
GlyphClass: 2
Flags: W
LayerCount: 2
UndoRedoHistory
Layer: 1
Undoes
EndUndoes
Redoes
EndRedoes
EndUndoRedoHistory
Fore
SplineSet
392 0 m 1,0,-1
 200 0 l 1,1,-1
 200 1536 l 1,2,-1
 503 1536 l 1,3,-1
 1945 192 l 1,4,-1
 1945 1536 l 1,5,-1
 2137 1536 l 1,6,-1
 2137 0 l 1,7,-1
 1881 0 l 1,8,-1
 392 1376 l 1,9,-1
 392 0 l 1,0,-1
EndSplineSet
EndChar

StartChar: O
Encoding: 79 79 54
Width: 2241
GlyphClass: 2
Flags: W
LayerCount: 2
UndoRedoHistory
Layer: 1
Undoes
EndUndoes
Redoes
EndRedoes
EndUndoRedoHistory
Fore
SplineSet
831 -32 m 2,0,1
 526 -32 526 -32 384 44 c 0,2,3
 275 102 275 102 221 197.5 c 128,-1,4
 167 293 167 293 147.5 427 c 128,-1,5
 128 561 128 561 128 667 c 2,6,-1
 128 834 l 2,7,8
 128 1136 128 1136 186.5 1275.5 c 128,-1,9
 245 1415 245 1415 343 1474 c 0,10,11
 498 1568 498 1568 821 1568 c 2,12,-1
 1410 1568 l 2,13,14
 1642 1568 1642 1568 1742.5 1537 c 0,15,16
 1842 1506 1842 1506 1894 1476 c 0,17,18
 2043 1388 2043 1388 2086 1159 c 0,19,20
 2113 1013 2113 1013 2113 779 c 2,21,-1
 2113 760 l 2,22,23
 2113 410 2113 410 2054 268.5 c 0,24,25
 1994 127 1994 127 1896 66 c 0,26,27
 1738 -32 1738 -32 1419 -32 c 2,28,-1
 831 -32 l 2,0,1
826 1408 m 2,29,30
 516 1408 516 1408 426 1298 c 0,31,32
 390 1256 390 1256 369 1212 c 0,33,34
 320 1115 320 1115 320 867.5 c 128,-1,35
 320 620 320 620 326.5 519 c 128,-1,36
 333 418 333 418 357.5 344 c 128,-1,37
 382 270 382 270 442 215 c 0,38,39
 537 128 537 128 831 128 c 2,40,-1
 1410 128 l 2,41,42
 1564 128 1564 128 1630 144.5 c 128,-1,43
 1696 161 1696 161 1733 175 c 0,44,45
 1841 216 1841 216 1890 364 c 0,46,47
 1921 459 1921 459 1921 787 c 128,-1,48
 1921 1115 1921 1115 1867 1221.5 c 128,-1,49
 1813 1328 1813 1328 1724 1362 c 0,50,51
 1604 1408 1604 1408 1415 1408 c 2,52,-1
 826 1408 l 2,29,30
EndSplineSet
EndChar

StartChar: P
Encoding: 80 80 55
Width: 1969
GlyphClass: 2
Flags: W
LayerCount: 2
UndoRedoHistory
Layer: 1
Undoes
EndUndoes
Redoes
EndRedoes
EndUndoRedoHistory
Fore
SplineSet
1816 796 m 0,0,1
 1771 709 1771 709 1647.5 658.5 c 128,-1,2
 1524 608 1524 608 1170 608 c 2,3,-1
 339 608 l 1,4,-1
 339 0 l 1,5,-1
 147 0 l 1,6,-1
 147 1536 l 1,7,-1
 1171 1536 l 2,8,9
 1427 1536 1427 1536 1506.5 1522 c 128,-1,10
 1586 1508 1586 1508 1646 1491 c 128,-1,11
 1706 1474 1706 1474 1768 1421 c 0,12,13
 1874 1331 1874 1331 1875 1061 c 0,14,15
 1874 909 1874 909 1816 796 c 0,0,1
1679 1165.5 m 128,-1,17
 1675 1200 1675 1200 1663.5 1228 c 128,-1,18
 1652 1256 1652 1256 1641.5 1276.5 c 128,-1,19
 1631 1297 1631 1297 1605.5 1313 c 0,20,21
 1580 1330 1580 1330 1562 1340 c 0,22,23
 1501 1376 1501 1376 1170 1376 c 2,24,-1
 339 1376 l 1,25,-1
 339 768 l 1,26,-1
 1170 768 l 2,27,28
 1468 768 1468 768 1532 795 c 0,29,30
 1628 836 1628 836 1649 887 c 0,31,32
 1683 972 1683 972 1683 1051.5 c 128,-1,16
 1683 1131 1683 1131 1679 1165.5 c 128,-1,17
EndSplineSet
EndChar

StartChar: Q
Encoding: 81 81 56
Width: 2248
GlyphClass: 2
Flags: W
LayerCount: 2
UndoRedoHistory
Layer: 1
Undoes
EndUndoes
Redoes
EndRedoes
EndUndoRedoHistory
Fore
SplineSet
2091 699 m 2,0,1
 2091 438 2091 438 2064 319 c 0,2,3
 2064 316 2064 316 2063 313 c 1,4,-1
 2202 224 l 1,5,-1
 2122 96 l 1,6,-1
 2006 170 l 1,7,8
 2005 167 2005 167 2003 164 c 0,9,10
 1927 46 1927 46 1769 7 c 128,-1,11
 1611 -32 1611 -32 1388 -32 c 2,12,-1
 810 -32 l 2,13,14
 471 -32 471 -32 315 54 c 1,15,16
 136 154 136 154 115 454 c 0,17,18
 107 578 107 578 107 743 c 2,19,-1
 107 768 l 2,20,21
 107 1084 107 1084 129 1193 c 1,22,23
 175 1403 175 1403 332.5 1485.5 c 128,-1,24
 490 1568 490 1568 810 1568 c 2,25,-1
 1388 1568 l 2,26,27
 1727 1568 1727 1568 1883 1482 c 1,28,29
 2012 1407 2012 1407 2050 1262.5 c 128,-1,30
 2088 1118 2088 1118 2090 914 c 0,31,32
 2090 868 2090 868 2091 780 c 2,33,-1
 2091 699 l 2,0,1
296 979 m 1,34,-1
 299 768 l 1,35,-1
 299 630 l 2,36,37
 299 366 299 366 333.5 291.5 c 128,-1,38
 368 217 368 217 400.5 197 c 0,39,40
 434 177 434 177 454 166 c 0,41,42
 525 128 525 128 810 128 c 2,43,-1
 1393 128 l 2,44,45
 1569 128 1569 128 1646 139 c 0,46,47
 1809 164 1809 164 1855 267 c 1,48,-1
 1225 671 l 1,49,-1
 1306 800 l 1,50,-1
 1891 424 l 1,51,52
 1899 515 1899 515 1899 592 c 2,53,-1
 1899 906 l 2,54,55
 1899 1190 1899 1190 1849 1282 c 0,56,57
 1818 1338 1818 1338 1718 1380 c 0,58,59
 1662 1404 1662 1404 1567 1406 c 128,-1,60
 1472 1408 1472 1408 1388 1408 c 2,61,-1
 807 1408 l 2,62,63
 600 1408 600 1408 521 1392 c 128,-1,64
 442 1376 442 1376 399 1341 c 128,-1,65
 356 1306 356 1306 326 1233.5 c 128,-1,66
 296 1161 296 1161 296 979 c 1,34,-1
EndSplineSet
EndChar

StartChar: R
Encoding: 82 82 57
Width: 2046
GlyphClass: 2
Flags: W
LayerCount: 2
UndoRedoHistory
Layer: 1
Undoes
EndUndoes
Redoes
EndRedoes
EndUndoRedoHistory
Fore
SplineSet
1877.5 795 m 128,-1,1
 1816 695 1816 695 1662 672 c 1,2,3
 1805 651 1805 651 1856 561 c 128,-1,4
 1907 471 1907 471 1907 288 c 2,5,-1
 1907 0 l 1,6,-1
 1715 0 l 1,7,-1
 1715 288 l 2,8,9
 1715 462 1715 462 1667 524 c 128,-1,10
 1619 586 1619 586 1497 600 c 0,11,12
 1426 608 1426 608 1233 608 c 2,13,-1
 339 608 l 1,14,-1
 339 0 l 1,15,-1
 147 0 l 1,16,-1
 147 1536 l 1,17,-1
 1243 1536 l 2,18,19
 1527 1536 1527 1536 1592 1523 c 0,20,21
 1748 1492 1748 1492 1792 1456 c 0,22,23
 1878 1386 1878 1386 1902 1322 c 0,24,25
 1938 1217 1938 1217 1938.5 1056 c 128,-1,0
 1939 895 1939 895 1877.5 795 c 128,-1,1
1744 1002.5 m 128,-1,27
 1747 1040 1747 1040 1747 1086 c 128,-1,28
 1747 1132 1747 1132 1744 1166 c 128,-1,29
 1741 1200 1741 1200 1730 1228 c 128,-1,30
 1719 1256 1719 1256 1710.5 1277 c 128,-1,31
 1702 1298 1702 1298 1677.5 1313.5 c 0,32,33
 1653 1330 1653 1330 1637 1340 c 0,34,35
 1581 1376 1581 1376 1234 1376 c 2,36,-1
 339 1376 l 1,37,-1
 339 768 l 1,38,-1
 1234 768 l 2,39,40
 1454 768 1454 768 1502 775 c 128,-1,41
 1550 782 1550 782 1587 790.5 c 128,-1,42
 1624 799 1624 799 1641.5 810.5 c 128,-1,43
 1659 822 1659 822 1681.5 840 c 128,-1,44
 1704 858 1704 858 1713 880.5 c 128,-1,45
 1722 903 1722 903 1731.5 934 c 128,-1,26
 1741 965 1741 965 1744 1002.5 c 128,-1,27
EndSplineSet
EndChar

StartChar: S
Encoding: 83 83 58
Width: 1938
GlyphClass: 2
Flags: W
LayerCount: 2
UndoRedoHistory
Layer: 1
Undoes
EndUndoes
Redoes
EndRedoes
EndUndoRedoHistory
Fore
SplineSet
900 1408 m 2,0,1
 660 1408 660 1408 572 1395 c 0,2,3
 292 1352 292 1352 292 1145 c 0,4,5
 292 1003 292 1003 361.5 946.5 c 128,-1,6
 431 890 431 890 527 877 c 128,-1,7
 623 864 623 864 769 864 c 2,8,-1
 1056 864 l 2,9,10
 1348 864 1348 864 1457 848 c 0,11,12
 1793 798 1793 798 1819 568 c 0,13,14
 1828 494 1828 494 1828 416 c 128,-1,15
 1828 338 1828 338 1806 270 c 0,16,17
 1765 139 1765 139 1658 73 c 128,-1,18
 1551 7 1551 7 1402.5 -14.5 c 128,-1,19
 1254 -36 1254 -36 1060 -36 c 2,20,-1
 804 -36 l 2,21,22
 585 -36 585 -36 510.5 -24 c 128,-1,23
 436 -12 436 -12 388 -0 c 0,24,25
 101 69 101 69 101 384 c 1,26,-1
 293 384 l 1,27,28
 293 264 293 264 341.5 217 c 128,-1,29
 390 170 390 170 429 158 c 0,30,31
 529 128 529 128 696 128 c 2,32,-1
 991 128 l 2,33,34
 1252 128 1252 128 1348.5 142.5 c 0,35,36
 1444 157 1444 157 1494 183 c 0,37,38
 1636 257 1636 257 1636 410 c 0,39,40
 1636 599 1636 599 1526 651 c 0,41,42
 1484 671 1484 671 1433.5 687.5 c 128,-1,43
 1383 704 1383 704 1132 704 c 2,44,-1
 868 704 l 2,45,46
 648 704 648 704 583 710.5 c 128,-1,47
 518 717 518 717 459 724.5 c 128,-1,48
 400 732 400 732 316.5 762.5 c 128,-1,49
 233 793 233 793 177 852.5 c 128,-1,50
 121 912 121 912 110.5 986.5 c 128,-1,51
 100 1061 100 1061 100 1129 c 0,52,53
 100 1331 100 1331 222 1428 c 0,54,55
 365 1542 365 1542 646 1560 c 0,56,57
 763 1568 763 1568 932 1568 c 2,58,-1
 1124 1568 l 2,59,60
 1363 1568 1363 1568 1481 1546.5 c 128,-1,61
 1599 1525 1599 1525 1674 1479 c 0,62,63
 1828 1385 1828 1385 1828 1152 c 1,64,-1
 1636 1152 l 1,65,66
 1636 1293 1636 1293 1559.5 1345.5 c 128,-1,67
 1483 1398 1483 1398 1353 1405 c 0,68,69
 1302 1408 1302 1408 1154 1408 c 2,70,-1
 900 1408 l 2,0,1
EndSplineSet
EndChar

StartChar: T
Encoding: 84 84 59
Width: 1971
GlyphClass: 2
Flags: W
LayerCount: 2
UndoRedoHistory
Layer: 1
Undoes
EndUndoes
Redoes
EndRedoes
EndUndoRedoHistory
Fore
SplineSet
1848 1536 m 1,0,-1
 1848 1376 l 1,1,-1
 1080 1376 l 1,2,-1
 1080 0 l 1,3,-1
 888 0 l 1,4,-1
 888 1376 l 1,5,-1
 120 1376 l 1,6,-1
 120 1536 l 1,7,-1
 1848 1536 l 1,0,-1
EndSplineSet
EndChar

StartChar: U
Encoding: 85 85 60
Width: 2209
GlyphClass: 2
Flags: W
LayerCount: 2
UndoRedoHistory
Layer: 1
Undoes
EndUndoes
Redoes
EndRedoes
EndUndoRedoHistory
Fore
SplineSet
1840 612 m 1,0,-1
 1839 716 l 1,1,-1
 1839 768 l 1,2,-1
 1838 1536 l 1,3,-1
 2031 1536 l 1,4,-1
 2031 756 l 2,5,6
 2031 476 2031 476 2019 407 c 0,7,8
 1991 247 1991 247 1947 174 c 128,-1,9
 1903 101 1903 101 1820 53 c 0,10,11
 1669 -32 1669 -32 1328 -32 c 2,12,-1
 878 -32 l 2,13,14
 436 -32 436 -32 296 132 c 0,15,16
 186 260 186 260 178 520 c 0,17,18
 175 632 175 632 175 768 c 2,19,-1
 175 1536 l 1,20,-1
 367 1536 l 1,21,-1
 367 768 l 1,22,-1
 365 563 l 1,23,24
 365 362 365 362 404 279.5 c 128,-1,25
 443 197 443 197 519.5 165.5 c 128,-1,26
 596 134 596 134 689.5 131 c 128,-1,27
 783 128 783 128 875 128 c 2,28,-1
 1328 128 l 2,29,30
 1590 128 1590 128 1673.5 162.5 c 128,-1,31
 1757 197 1757 197 1789 255 c 0,32,33
 1840 347 1840 347 1840 612 c 1,0,-1
EndSplineSet
EndChar

StartChar: V
Encoding: 86 86 61
Width: 2105
GlyphClass: 2
Flags: W
LayerCount: 2
UndoRedoHistory
Layer: 1
Undoes
EndUndoes
Redoes
EndRedoes
EndUndoRedoHistory
Fore
SplineSet
1788 1536 m 1,0,-1
 2012 1536 l 1,1,-1
 1180 0 l 1,2,-1
 924 0 l 1,3,-1
 92 1536 l 1,4,-1
 316 1536 l 1,5,-1
 1052 128 l 1,6,-1
 1788 1536 l 1,0,-1
EndSplineSet
EndChar

StartChar: W
Encoding: 87 87 62
Width: 3386
GlyphClass: 2
Flags: W
LayerCount: 2
UndoRedoHistory
Layer: 1
Undoes
EndUndoes
Redoes
EndRedoes
EndUndoRedoHistory
Fore
SplineSet
1612 1536 m 1,0,-1
 1836 1536 l 1,1,-1
 2460 160 l 1,2,-1
 3068 1536 l 1,3,-1
 3292 1536 l 1,4,-1
 2588 0 l 1,5,-1
 2332 0 l 1,6,-1
 1724 1344 l 1,7,-1
 1116 0 l 1,8,-1
 860 0 l 1,9,-1
 92 1536 l 1,10,-1
 316 1536 l 1,11,-1
 988 160 l 1,12,-1
 1612 1536 l 1,0,-1
EndSplineSet
EndChar

StartChar: X
Encoding: 88 88 63
Width: 2179
GlyphClass: 2
Flags: W
LayerCount: 2
UndoRedoHistory
Layer: 1
Undoes
EndUndoes
Redoes
EndRedoes
EndUndoRedoHistory
Fore
SplineSet
1212 810 m 1,0,-1
 2115 0 l 1,1,-1
 1843 0 l 1,2,-1
 1078 686 l 1,3,-1
 339 0 l 1,4,-1
 67 0 l 1,5,-1
 940 810 l 1,6,-1
 131 1536 l 1,7,-1
 403 1536 l 1,8,-1
 1073 934 l 1,9,-1
 1722 1536 l 1,10,-1
 1994 1536 l 1,11,-1
 1212 810 l 1,0,-1
EndSplineSet
EndChar

StartChar: Y
Encoding: 89 89 64
Width: 2094
GlyphClass: 2
Flags: W
LayerCount: 2
UndoRedoHistory
Layer: 1
Undoes
EndUndoes
Redoes
EndRedoes
EndUndoRedoHistory
Fore
SplineSet
87 1536 m 1,0,-1
 343 1536 l 1,1,-1
 1047 784 l 1,2,-1
 1751 1536 l 1,3,-1
 2007 1536 l 1,4,-1
 1143 640 l 1,5,-1
 1143 0 l 1,6,-1
 951 0 l 1,7,-1
 951 640 l 1,8,-1
 87 1536 l 1,0,-1
EndSplineSet
EndChar

StartChar: Z
Encoding: 90 90 65
Width: 1917
GlyphClass: 2
Flags: W
LayerCount: 2
UndoRedoHistory
Layer: 1
Undoes
EndUndoes
Redoes
EndRedoes
EndUndoRedoHistory
Fore
SplineSet
71 0 m 1,0,-1
 71 160 l 1,1,-1
 1557 1376 l 1,2,-1
 135 1376 l 1,3,-1
 135 1536 l 1,4,-1
 1831 1536 l 1,5,-1
 1831 1376 l 1,6,-1
 337 160 l 1,7,-1
 1863 160 l 1,8,-1
 1863 0 l 1,9,-1
 71 0 l 1,0,-1
EndSplineSet
EndChar

StartChar: bracketleft
Encoding: 91 91 66
Width: 785
GlyphClass: 2
Flags: W
LayerCount: 2
UndoRedoHistory
Layer: 1
Undoes
EndUndoes
Redoes
EndRedoes
EndUndoRedoHistory
Fore
SplineSet
149 1536 m 1,0,-1
 725 1536 l 1,1,-1
 725 1376 l 1,2,-1
 341 1376 l 1,3,-1
 341 160 l 1,4,-1
 725 160 l 1,5,-1
 725 0 l 1,6,-1
 149 0 l 1,7,-1
 149 1536 l 1,0,-1
EndSplineSet
EndChar

StartChar: backslash
Encoding: 92 92 67
Width: 944
GlyphClass: 2
Flags: W
LayerCount: 2
UndoRedoHistory
Layer: 1
Undoes
EndUndoes
Redoes
EndRedoes
EndUndoRedoHistory
Fore
SplineSet
929 0 m 1,0,-1
 737 0 l 1,1,-1
 33 1536 l 1,2,-1
 225 1536 l 1,3,-1
 929 0 l 1,0,-1
EndSplineSet
EndChar

StartChar: bracketright
Encoding: 93 93 68
Width: 792
GlyphClass: 2
Flags: W
LayerCount: 2
UndoRedoHistory
Layer: 1
Undoes
EndUndoes
Redoes
EndRedoes
EndUndoRedoHistory
Fore
SplineSet
647 0 m 1,0,-1
 71 0 l 1,1,-1
 71 160 l 1,2,-1
 455 160 l 1,3,-1
 455 1376 l 1,4,-1
 71 1376 l 1,5,-1
 71 1536 l 1,6,-1
 647 1536 l 1,7,-1
 647 0 l 1,0,-1
EndSplineSet
EndChar

StartChar: asciicircum
Encoding: 94 94 69
Width: 1081
GlyphClass: 2
Flags: W
LayerCount: 2
UndoRedoHistory
Layer: 1
Undoes
EndUndoes
Redoes
EndRedoes
EndUndoRedoHistory
Fore
SplineSet
541 1408 m 1,0,-1
 189 896 l 1,1,-1
 61 992 l 1,2,-1
 445 1536 l 1,3,-1
 637 1536 l 1,4,-1
 1021 992 l 1,5,-1
 893 896 l 1,6,-1
 541 1408 l 1,0,-1
EndSplineSet
EndChar

StartChar: underscore
Encoding: 95 95 70
Width: 1360
GlyphClass: 2
Flags: W
LayerCount: 2
UndoRedoHistory
Layer: 1
Undoes
EndUndoes
Redoes
EndRedoes
EndUndoRedoHistory
Fore
SplineSet
135 0 m 1,0,-1
 1223 0 l 1,1,-1
 1223 -160 l 1,2,-1
 135 -160 l 1,3,-1
 135 0 l 1,0,-1
EndSplineSet
EndChar

StartChar: grave
Encoding: 96 96 71
Width: 832
GlyphClass: 2
Flags: W
LayerCount: 2
UndoRedoHistory
Layer: 1
Undoes
EndUndoes
Redoes
EndRedoes
EndUndoRedoHistory
Fore
SplineSet
40 1664 m 1,0,-1
 168 1856 l 1,1,-1
 744 1376 l 1,2,-1
 680 1280 l 1,3,-1
 40 1664 l 1,0,-1
EndSplineSet
EndChar

StartChar: a
Encoding: 97 97 72
Width: 1559
GlyphClass: 2
Flags: W
LayerCount: 2
UndoRedoHistory
Layer: 1
Undoes
EndUndoes
Redoes
EndRedoes
EndUndoRedoHistory
Fore
SplineSet
1241 618 m 1,0,-1
 1240 657 l 2,1,2
 1238 761 1238 761 1215.5 829.5 c 0,3,4
 1192 898 1192 898 1140 942 c 0,5,6
 1044 1023 1044 1023 774.5 1023.5 c 128,-1,7
 505 1024 505 1024 437 997 c 0,8,9
 368 970 368 970 354 924 c 0,10,11
 344 894 344 894 345 852 c 1,12,-1
 153 852 l 1,13,14
 153 1005 153 1005 256 1085 c 128,-1,15
 359 1165 359 1165 581 1178 c 0,16,17
 674 1184 674 1184 824.5 1184 c 128,-1,18
 975 1184 975 1184 1094.5 1155.5 c 128,-1,19
 1214 1127 1214 1127 1291 1060 c 128,-1,20
 1368 993 1368 993 1400.5 888.5 c 128,-1,21
 1433 784 1433 784 1433 625 c 2,22,-1
 1433 0 l 1,23,-1
 1241 0 l 1,24,-1
 1241 127 l 1,25,26
 1162 22 1162 22 876 -14 c 0,27,28
 802 -24 802 -24 733 -24 c 128,-1,29
 664 -24 664 -24 565 -20 c 128,-1,30
 466 -16 466 -16 363 13 c 0,31,32
 139 78 139 78 139 312 c 0,33,34
 140 478 140 478 228 551 c 0,35,36
 294 605 294 605 395 632 c 0,37,38
 497 659 497 659 787 659 c 128,-1,39
 1077 659 1077 659 1241 618 c 1,0,-1
1241 270 m 1,40,-1
 1241 489 l 1,41,42
 986 510 986 510 832.5 510 c 128,-1,43
 679 510 679 510 635 509 c 128,-1,44
 591 508 591 508 530.5 502.5 c 128,-1,45
 470 497 470 497 442 485 c 0,46,47
 414 472 414 472 384 452 c 0,48,49
 332 417 332 417 331.5 319.5 c 128,-1,50
 331 222 331 222 374.5 188 c 128,-1,51
 418 154 418 154 453 146 c 0,52,53
 538 128 538 128 650 128 c 2,54,-1
 736 128 l 2,55,56
 1028 128 1028 128 1182 223 c 0,57,58
 1218 245 1218 245 1241 270 c 1,40,-1
EndSplineSet
EndChar

StartChar: b
Encoding: 98 98 73
Width: 1655
GlyphClass: 2
Flags: W
LayerCount: 2
UndoRedoHistory
Layer: 1
Undoes
EndUndoes
Redoes
EndRedoes
EndUndoRedoHistory
Fore
SplineSet
1385 101.5 m 128,-1,1
 1215 -22 1215 -22 905 -22 c 0,2,3
 696 -22 696 -22 565.5 2.5 c 128,-1,4
 435 27 435 27 384 104 c 0,5,6
 354 151 354 151 339 177 c 1,7,-1
 339 0 l 1,8,-1
 147 0 l 1,9,-1
 147 1536 l 1,10,-1
 339 1536 l 1,11,-1
 339 1043 l 1,12,13
 393 1131 393 1131 533 1157.5 c 128,-1,14
 673 1184 673 1184 855.5 1184 c 128,-1,15
 1038 1184 1038 1184 1164.5 1156 c 0,16,17
 1292 1128 1292 1128 1382 1059 c 0,18,19
 1556 927 1556 927 1555.5 576 c 128,-1,0
 1555 225 1555 225 1385 101.5 c 128,-1,1
512 166 m 0,20,21
 605 128 605 128 824.5 128 c 129,-1,22
 1044 128 1044 128 1147 152 c 0,23,24
 1338 195 1338 195 1356 405 c 0,25,26
 1363 480 1363 480 1363 602 c 128,-1,27
 1363 724 1363 724 1340 812 c 0,28,29
 1293 994 1293 994 1071 1014 c 0,30,31
 963 1023 963 1023 881 1023 c 0,32,33
 800 1023 800 1023 760 1022 c 0,34,35
 566 1018 566 1018 480 966 c 0,36,37
 376 903 376 903 351 752 c 0,38,39
 339 674 339 674 339 565.5 c 0,40,41
 339 458 339 458 354 382 c 0,42,43
 387 218 387 218 512 166 c 0,20,21
EndSplineSet
EndChar

StartChar: c
Encoding: 99 99 74
Width: 1543
GlyphClass: 2
Flags: W
LayerCount: 2
UndoRedoHistory
Layer: 1
Undoes
EndUndoes
Redoes
EndRedoes
EndUndoRedoHistory
Fore
SplineSet
352 226 m 0,0,1
 427 128 427 128 745 128 c 2,2,-1
 836 128 l 2,3,4
 1060 128 1060 128 1125 156.5 c 128,-1,5
 1190 185 1190 185 1208 209 c 0,6,7
 1242 255 1242 255 1245 299.5 c 128,-1,8
 1248 344 1248 344 1248 384 c 1,9,-1
 1440 384 l 1,10,11
 1440 164 1440 164 1305 73 c 0,12,13
 1219 15 1219 15 1119 -0 c 0,14,15
 959 -24 959 -24 803 -24 c 0,16,17
 745 -24 745 -24 689 -21 c 0,18,19
 478 -9 478 -9 402 17 c 0,20,21
 258 66 258 66 192.5 147.5 c 128,-1,22
 127 229 127 229 111 343.5 c 128,-1,23
 95 458 95 458 95 591 c 0,24,25
 95 867 95 867 191.5 1005 c 128,-1,26
 288 1143 288 1143 548 1173 c 0,27,28
 656 1185 656 1185 771.5 1185 c 128,-1,29
 887 1185 887 1185 1000 1180 c 128,-1,30
 1113 1175 1113 1175 1219 1138 c 0,31,32
 1440 1062 1440 1062 1440 789 c 1,33,-1
 1248 789 l 1,34,35
 1248 878 1248 878 1223 912.5 c 0,36,37
 1198 946 1198 946 1180 964 c 0,38,39
 1116 1024 1116 1024 877 1025 c 2,40,-1
 786 1025 l 2,41,42
 582 1025 582 1025 529.5 1011.5 c 128,-1,43
 477 998 477 998 428 981 c 128,-1,44
 379 964 379 964 336.5 902 c 128,-1,45
 294 840 294 840 291 751 c 128,-1,46
 288 662 288 662 288 582.5 c 0,47,48
 288 502 288 502 290 432 c 0,49,50
 294 300 294 300 352 226 c 0,0,1
EndSplineSet
EndChar

StartChar: d
Encoding: 100 100 75
Width: 1643
GlyphClass: 2
Flags: W
LayerCount: 2
UndoRedoHistory
Layer: 1
Undoes
EndUndoes
Redoes
EndRedoes
EndUndoRedoHistory
Fore
SplineSet
574 1172 m 0,0,1
 670 1184 670 1184 793.5 1184 c 128,-1,2
 917 1184 917 1184 1007 1175 c 128,-1,3
 1097 1166 1097 1166 1182.5 1133.5 c 128,-1,4
 1268 1101 1268 1101 1306 1044 c 1,5,-1
 1306 1536 l 1,6,-1
 1498 1536 l 1,7,-1
 1498 0 l 1,8,-1
 1306 0 l 1,9,-1
 1306 171 l 1,10,-1
 1258 114 l 1,11,12
 1119 -22 1119 -22 794 -22 c 0,13,14
 607 -22 607 -22 482 4.5 c 0,15,16
 358 32 358 32 266 98 c 0,17,18
 90 226 90 226 90 574 c 0,19,20
 90 816 90 816 165 946 c 0,21,22
 275 1136 275 1136 574 1172 c 0,0,1
483.5 155 m 128,-1,24
 533 141 533 141 607.5 134.5 c 128,-1,25
 682 128 682 128 764 128 c 128,-1,26
 846 128 846 128 885 129 c 0,27,28
 1082 134 1082 134 1164 183 c 0,29,30
 1272 247 1272 247 1294 395 c 0,31,32
 1306 469 1306 469 1306 566 c 128,-1,33
 1306 663 1306 663 1297 729 c 0,34,35
 1277 877 1277 877 1200.5 944.5 c 128,-1,36
 1124 1012 1124 1012 965 1020 c 0,37,38
 890 1024 890 1024 803 1024 c 128,-1,39
 716 1024 716 1024 632 1020 c 0,40,41
 483 1013 483 1013 393 955 c 128,-1,42
 303 897 303 897 289 745 c 0,43,44
 282 669 282 669 282 583 c 128,-1,45
 282 497 282 497 287 442 c 128,-1,46
 292 387 292 387 305 337 c 128,-1,47
 318 287 318 287 340.5 254 c 128,-1,48
 363 221 363 221 398.5 195 c 128,-1,23
 434 169 434 169 483.5 155 c 128,-1,24
EndSplineSet
EndChar

StartChar: e
Encoding: 101 101 76
Width: 1542
GlyphClass: 2
Flags: W
LayerCount: 2
UndoRedoHistory
Layer: 1
Undoes
EndUndoes
Redoes
EndRedoes
EndUndoRedoHistory
Fore
SplineSet
285 528 m 1,0,1
 288 350 288 350 338.5 277 c 128,-1,2
 389 204 389 204 435 183 c 0,3,4
 514 147 514 147 596.5 137.5 c 128,-1,5
 679 128 679 128 789 128 c 128,-1,6
 899 128 899 128 981 133 c 0,7,8
 1150 143 1150 143 1214 227 c 0,9,10
 1252 277 1252 277 1256 370 c 1,11,-1
 1435 370 l 1,12,13
 1429 191 1429 191 1330 97 c 128,-1,14
 1231 3 1231 3 1010 -14 c 0,15,16
 912 -22 912 -22 794 -22 c 1,17,18
 558 -22 558 -22 408 26 c 0,19,20
 92 127 92 127 91 538 c 0,21,22
 91 745 91 745 127.5 862 c 128,-1,23
 164 979 164 979 250 1051.5 c 128,-1,24
 336 1124 336 1124 466 1154 c 128,-1,25
 596 1184 596 1184 779.5 1184 c 128,-1,26
 963 1184 963 1184 1080.5 1153 c 128,-1,27
 1198 1122 1198 1122 1278 1052 c 0,28,29
 1434 916 1434 916 1435 592 c 1,30,-1
 1419 528 l 1,31,-1
 285 528 l 1,0,1
1243 656 m 1,32,33
 1242 878 1242 878 1150 953 c 0,34,35
 1085 1005 1085 1005 1001.5 1018.5 c 128,-1,36
 918 1032 918 1032 812.5 1032 c 0,37,38
 708 1032 708 1032 660 1030 c 0,39,40
 402 1019 402 1019 335 886 c 0,41,42
 290 795 290 795 286 656 c 1,43,-1
 1243 656 l 1,32,33
EndSplineSet
EndChar

StartChar: f
Encoding: 102 102 77
Width: 1044
GlyphClass: 2
Flags: W
LayerCount: 2
UndoRedoHistory
Layer: 1
Undoes
EndUndoes
Redoes
EndRedoes
EndUndoRedoHistory
Fore
SplineSet
234 1162 m 2,0,1
 234 1407 234 1407 366 1491 c 0,2,3
 434 1535 434 1535 523 1551.5 c 128,-1,4
 612 1568 612 1568 747 1568 c 2,5,-1
 970 1568 l 1,6,-1
 970 1408 l 1,7,-1
 746 1408 l 2,8,9
 593 1408 593 1408 559 1397 c 128,-1,10
 525 1386 525 1386 502 1374 c 0,11,12
 426 1334 426 1334 426 1162 c 2,13,-1
 426 1152 l 1,14,-1
 970 1152 l 1,15,-1
 970 1006 l 1,16,-1
 426 1006 l 1,17,-1
 426 0 l 1,18,-1
 234 0 l 1,19,-1
 234 1006 l 1,20,-1
 42 1006 l 1,21,-1
 42 1152 l 1,22,-1
 234 1152 l 1,23,-1
 234 1162 l 2,0,1
EndSplineSet
EndChar

StartChar: g
Encoding: 103 103 78
Width: 1635
GlyphClass: 2
Flags: W
LayerCount: 2
UndoRedoHistory
Layer: 1
Undoes
EndUndoes
Redoes
EndRedoes
EndUndoRedoHistory
Fore
SplineSet
1257 863.5 m 128,-1,1
 1207 959 1207 959 1100 991.5 c 128,-1,2
 993 1024 993 1024 842.5 1024 c 128,-1,3
 692 1024 692 1024 622.5 1018 c 128,-1,4
 553 1012 553 1012 491.5 994 c 128,-1,5
 430 976 430 976 394 945.5 c 128,-1,6
 358 915 358 915 331 864 c 0,7,8
 283 773 283 773 283 576 c 0,9,10
 282 378 282 378 330 288 c 0,11,12
 356 238 356 238 393 208 c 0,13,14
 487 128 487 128 736.5 128 c 128,-1,15
 986 128 986 128 1095 160 c 128,-1,16
 1204 192 1204 192 1255.5 288.5 c 128,-1,17
 1307 385 1307 385 1307 576.5 c 128,-1,0
 1307 768 1307 768 1257 863.5 c 128,-1,1
574 1172 m 0,18,19
 670 1184 670 1184 828 1184 c 0,20,21
 1209 1184 1209 1184 1307 1045 c 1,22,-1
 1307 1152 l 1,23,-1
 1499 1152 l 1,24,-1
 1499 130 l 2,25,26
 1499 -164 1499 -164 1371 -292 c 0,27,28
 1244 -420 1244 -420 982 -444 c 0,29,30
 900 -452 900 -452 800.5 -451.5 c 128,-1,31
 701 -451 701 -451 584.5 -448 c 128,-1,32
 468 -445 468 -445 365 -419 c 0,33,34
 155 -367 155 -367 155 -163 c 1,35,-1
 347 -163 l 1,36,37
 347 -209 347 -209 370.5 -234.5 c 128,-1,38
 394 -260 394 -260 459 -275.5 c 128,-1,39
 524 -291 524 -291 701 -291 c 128,-1,40
 878 -291 878 -291 978 -286 c 0,41,42
 1205 -274 1205 -274 1271 -128 c 0,43,44
 1307 -47 1307 -47 1307 92 c 2,45,-1
 1307 128 l 1,46,47
 1250 32 1250 32 1111.5 0 c 128,-1,48
 973 -32 973 -32 822 -32 c 1,49,50
 549 -32 549 -32 397.5 19.5 c 128,-1,51
 246 71 246 71 168.5 202.5 c 128,-1,52
 91 334 91 334 91 575.5 c 0,53,54
 91 816 91 816 166 946 c 0,55,56
 275 1136 275 1136 574 1172 c 0,18,19
EndSplineSet
EndChar

StartChar: h
Encoding: 104 104 79
Width: 1617
GlyphClass: 2
Flags: W
LayerCount: 2
UndoRedoHistory
Layer: 1
Undoes
EndUndoes
Redoes
EndRedoes
EndUndoRedoHistory
Fore
SplineSet
339 970 m 1,0,1
 430 1184 430 1184 915 1184 c 0,2,3
 1076 1184 1076 1184 1181 1159.5 c 128,-1,4
 1286 1135 1286 1135 1358 1073.5 c 128,-1,5
 1430 1012 1430 1012 1461 909.5 c 128,-1,6
 1492 807 1492 807 1492 650 c 2,7,-1
 1491 0 l 1,8,-1
 1299 0 l 1,9,-1
 1299 650 l 2,10,11
 1299 809 1299 809 1251 889 c 128,-1,12
 1203 969 1203 969 1108.5 996.5 c 128,-1,13
 1014 1024 1014 1024 886.5 1024 c 0,14,15
 760 1024 760 1024 690 1018 c 0,16,17
 521 1002 521 1002 430 933 c 128,-1,18
 339 864 339 864 339 714 c 2,19,-1
 339 0 l 1,20,-1
 147 0 l 1,21,-1
 147 1536 l 1,22,-1
 339 1536 l 1,23,-1
 339 970 l 1,0,1
EndSplineSet
EndChar

StartChar: i
Encoding: 105 105 80
Width: 596
GlyphClass: 2
Flags: W
LayerCount: 2
UndoRedoHistory
Layer: 1
Undoes
EndUndoes
Redoes
EndRedoes
EndUndoRedoHistory
Fore
SplineSet
202 1152 m 1,0,-1
 394 1152 l 1,1,-1
 394 0 l 1,2,-1
 202 0 l 1,3,-1
 202 1152 l 1,0,-1
394 1344 m 1,4,-1
 202 1344 l 1,5,-1
 202 1536 l 1,6,-1
 394 1536 l 1,7,-1
 394 1344 l 1,4,-1
EndSplineSet
EndChar

StartChar: j
Encoding: 106 106 81
Width: 484
GlyphClass: 2
Flags: W
LayerCount: 2
UndoRedoHistory
Layer: 1
Undoes
EndUndoes
Redoes
EndRedoes
EndUndoRedoHistory
Fore
SplineSet
-15 -224 m 1,0,1
 78 -224 78 -224 111.5 -190.5 c 128,-1,2
 145 -157 145 -157 145 -64 c 2,3,-1
 145 1152 l 1,4,-1
 337 1152 l 1,5,-1
 337 -64 l 2,6,7
 337 -246 337 -246 258 -315 c 128,-1,8
 179 -384 179 -384 -15 -384 c 1,9,-1
 -15 -224 l 1,0,1
337 1344 m 1,10,-1
 145 1344 l 1,11,-1
 145 1536 l 1,12,-1
 337 1536 l 1,13,-1
 337 1344 l 1,10,-1
EndSplineSet
EndChar

StartChar: k
Encoding: 107 107 82
Width: 1441
GlyphClass: 2
Flags: W
LayerCount: 2
UndoRedoHistory
Layer: 1
Undoes
EndUndoes
Redoes
EndRedoes
EndUndoRedoHistory
Fore
SplineSet
147 1536 m 1,0,-1
 339 1536 l 1,1,-1
 339 696 l 1,2,-1
 563 696 l 1,3,-1
 1119 1152 l 1,4,-1
 1379 1152 l 1,5,-1
 749 616 l 1,6,-1
 1399 0 l 1,7,-1
 1139 0 l 1,8,-1
 563 552 l 1,9,-1
 339 552 l 1,10,-1
 339 0 l 1,11,-1
 147 0 l 1,12,-1
 147 1536 l 1,0,-1
EndSplineSet
EndChar

StartChar: l
Encoding: 108 108 83
Width: 592
GlyphClass: 2
Flags: W
LayerCount: 2
UndoRedoHistory
Layer: 1
Undoes
EndUndoes
Redoes
EndRedoes
EndUndoRedoHistory
Fore
SplineSet
200 1536 m 1,0,-1
 392 1536 l 1,1,-1
 392 0 l 1,2,-1
 200 0 l 1,3,-1
 200 1536 l 1,0,-1
EndSplineSet
EndChar

StartChar: m
Encoding: 109 109 84
Width: 2505
GlyphClass: 2
Flags: W
LayerCount: 2
UndoRedoHistory
Layer: 1
Undoes
EndUndoes
Redoes
EndRedoes
EndUndoRedoHistory
Fore
SplineSet
1985 1007 m 128,-1,1
 1914 1024 1914 1024 1816 1024 c 128,-1,2
 1718 1024 1718 1024 1654 1016 c 0,3,4
 1506 998 1506 998 1429.5 928 c 128,-1,5
 1353 858 1353 858 1353 714 c 2,6,-1
 1353 0 l 1,7,-1
 1161 0 l 1,8,-1
 1161 650 l 2,9,10
 1161 762 1161 762 1143 832 c 128,-1,11
 1125 902 1125 902 1078.5 946 c 128,-1,12
 1032 990 1032 990 961 1007 c 128,-1,13
 890 1024 890 1024 792 1024 c 128,-1,14
 694 1024 694 1024 630 1016 c 0,15,16
 482 998 482 998 405.5 928 c 128,-1,17
 329 858 329 858 329 714 c 2,18,-1
 329 0 l 1,19,-1
 137 0 l 1,20,-1
 137 1152 l 1,21,-1
 329 1152 l 1,22,-1
 329 970 l 1,23,24
 382 1130 382 1130 674 1172 c 0,25,26
 754 1184 754 1184 841 1184 c 0,27,28
 1031 1184 1031 1184 1148 1137 c 128,-1,29
 1265 1090 1265 1090 1313 974 c 1,30,31
 1445 1184 1445 1184 1865 1184 c 0,32,33
 2014 1184 2014 1184 2110.5 1156.5 c 128,-1,34
 2207 1129 2207 1129 2267.5 1064 c 128,-1,35
 2328 999 2328 999 2352.5 900.5 c 128,-1,36
 2377 802 2377 802 2377 650 c 2,37,-1
 2377 0 l 1,38,-1
 2185 0 l 1,39,-1
 2185 650 l 2,40,41
 2185 762 2185 762 2167 832 c 128,-1,42
 2149 902 2149 902 2102.5 946 c 128,-1,0
 2056 990 2056 990 1985 1007 c 128,-1,1
EndSplineSet
EndChar

StartChar: n
Encoding: 110 110 85
Width: 1608
GlyphClass: 2
Flags: W
LayerCount: 2
UndoRedoHistory
Layer: 1
Undoes
EndUndoes
Redoes
EndRedoes
EndUndoRedoHistory
Fore
SplineSet
329 960 m 1,0,1
 425 1184 425 1184 905 1184 c 0,2,3
 1066 1184 1066 1184 1172 1158.5 c 128,-1,4
 1278 1133 1278 1133 1349.5 1069.5 c 128,-1,5
 1421 1006 1421 1006 1451.5 902.5 c 128,-1,6
 1482 799 1482 799 1482 640 c 2,7,-1
 1481 0 l 1,8,-1
 1289 0 l 1,9,-1
 1289 640 l 2,10,11
 1289 759 1289 759 1265.5 833.5 c 128,-1,12
 1242 908 1242 908 1185 950.5 c 128,-1,13
 1128 993 1128 993 1048 1008.5 c 128,-1,14
 968 1024 968 1024 858 1024 c 128,-1,15
 748 1024 748 1024 678 1017 c 0,16,17
 511 1000 511 1000 420 929 c 128,-1,18
 329 858 329 858 329 704 c 2,19,-1
 329 0 l 1,20,-1
 137 0 l 1,21,-1
 137 1152 l 1,22,-1
 329 1152 l 1,23,-1
 329 960 l 1,0,1
EndSplineSet
EndChar

StartChar: o
Encoding: 111 111 86
Width: 1614
GlyphClass: 2
Flags: W
LayerCount: 2
UndoRedoHistory
Layer: 1
Undoes
EndUndoes
Redoes
EndRedoes
EndUndoRedoHistory
Fore
SplineSet
103 596 m 0,0,1
 103 996 103 996 349 1109 c 0,2,3
 511 1184 511 1184 807 1184 c 0,4,5
 995 1184 995 1184 1120.5 1157.5 c 128,-1,6
 1246 1131 1246 1131 1337 1064 c 0,7,8
 1511 936 1511 936 1511 584 c 0,9,10
 1511 307 1511 307 1406 169.5 c 0,11,12
 1302 32 1302 32 1066 -5 c 0,13,14
 958 -22 958 -22 820 -22 c 0,15,16
 561 -22 561 -22 409.5 29.5 c 128,-1,17
 258 81 258 81 180.5 212.5 c 128,-1,18
 103 344 103 344 103 596 c 0,0,1
977.5 1026.5 m 128,-1,20
 908 1033 908 1033 807.5 1033 c 128,-1,21
 707 1033 707 1033 638.5 1026.5 c 128,-1,22
 570 1020 570 1020 508.5 1002.5 c 128,-1,23
 447 985 447 985 410 954 c 128,-1,24
 373 923 373 923 345.5 872.5 c 128,-1,25
 318 822 318 822 306.5 752 c 128,-1,26
 295 682 295 682 295 584 c 128,-1,27
 295 486 295 486 305 416 c 128,-1,28
 315 346 315 346 341 294 c 128,-1,29
 367 242 367 242 403.5 211 c 128,-1,30
 440 180 440 180 523 154 c 128,-1,31
 606 128 606 128 756.5 128 c 128,-1,32
 907 128 907 128 977 135 c 128,-1,33
 1047 142 1047 142 1107.5 161 c 128,-1,34
 1168 180 1168 180 1205.5 212 c 128,-1,35
 1243 244 1243 244 1270 295.5 c 128,-1,36
 1297 347 1297 347 1308 417 c 128,-1,37
 1319 487 1319 487 1319 584 c 128,-1,38
 1319 681 1319 681 1308 750.5 c 128,-1,39
 1297 820 1297 820 1270 870.5 c 128,-1,40
 1243 921 1243 921 1206 952.5 c 128,-1,41
 1169 984 1169 984 1108 1002 c 128,-1,19
 1047 1020 1047 1020 977.5 1026.5 c 128,-1,20
EndSplineSet
EndChar

StartChar: p
Encoding: 112 112 87
Width: 1645
GlyphClass: 2
Flags: W
LayerCount: 2
UndoRedoHistory
Layer: 1
Undoes
EndUndoes
Redoes
EndRedoes
EndUndoRedoHistory
Fore
SplineSet
329 1045 m 1,0,1
 420 1184 420 1184 841 1184 c 0,2,3
 1028 1184 1028 1184 1154.5 1156 c 0,4,5
 1282 1128 1282 1128 1372 1059 c 0,6,7
 1546 927 1546 927 1545.5 576 c 128,-1,8
 1545 225 1545 225 1375 101.5 c 0,9,10
 1206 -22 1206 -22 890 -22 c 0,11,12
 666 -22 666 -22 523.5 7 c 128,-1,13
 381 36 381 36 329 128 c 1,14,-1
 329 -384 l 1,15,-1
 137 -384 l 1,16,-1
 137 1152 l 1,17,-1
 329 1152 l 1,18,-1
 329 1045 l 1,0,1
1151.5 996.5 m 128,-1,20
 1102 1011 1102 1011 1027.5 1017.5 c 128,-1,21
 953 1024 953 1024 863 1024 c 128,-1,22
 773 1024 773 1024 687.5 1020.5 c 128,-1,23
 602 1017 602 1017 524.5 991 c 128,-1,24
 447 965 447 965 402 909 c 128,-1,25
 357 853 357 853 343 766 c 128,-1,26
 329 679 329 679 329 582.5 c 128,-1,27
 329 486 329 486 338 420 c 0,28,29
 357 277 357 277 434 209.5 c 128,-1,30
 511 142 511 142 670 132 c 0,31,32
 745 128 745 128 889 128 c 128,-1,33
 1033 128 1033 128 1137 152 c 0,34,35
 1328 195 1328 195 1346 405 c 0,36,37
 1353 480 1353 480 1353 565.5 c 128,-1,38
 1353 651 1353 651 1348 706.5 c 128,-1,39
 1343 762 1343 762 1330 812 c 128,-1,40
 1317 862 1317 862 1294.5 896 c 128,-1,41
 1272 930 1272 930 1236.5 956 c 128,-1,19
 1201 982 1201 982 1151.5 996.5 c 128,-1,20
EndSplineSet
EndChar

StartChar: q
Encoding: 113 113 88
Width: 1638
GlyphClass: 2
Flags: W
LayerCount: 2
UndoRedoHistory
Layer: 1
Undoes
EndUndoes
Redoes
EndRedoes
EndUndoRedoHistory
Fore
SplineSet
1307 128 m 1,0,1
 1215 -22 1215 -22 829 -22 c 1,2,3
 549 -22 549 -22 397.5 29.5 c 128,-1,4
 246 81 246 81 168.5 212.5 c 128,-1,5
 91 344 91 344 91 602.5 c 128,-1,6
 91 861 91 861 196 996.5 c 0,7,8
 300 1132 300 1132 536 1168 c 0,9,10
 644 1184 644 1184 816 1184 c 0,11,12
 1213 1184 1213 1184 1307 1035 c 1,13,-1
 1307 1152 l 1,14,-1
 1499 1152 l 1,15,-1
 1499 -384 l 1,16,-1
 1307 -384 l 1,17,-1
 1307 128 l 1,0,1
1108 998 m 0,18,19
 1027 1024 1027 1024 853.5 1024 c 128,-1,20
 680 1024 680 1024 598 1018 c 0,21,22
 311 999 311 999 291 766 c 0,23,24
 283 680 283 680 283 599 c 0,25,26
 282 378 282 378 322 292 c 0,27,28
 386 154 386 154 586 136 c 0,29,30
 683 128 683 128 765.5 128 c 128,-1,31
 848 128 848 128 888 129 c 0,32,33
 1086 134 1086 134 1166 186 c 0,34,35
 1271 253 1271 253 1295 402 c 0,36,37
 1307 481 1307 481 1307 622 c 128,-1,38
 1307 763 1307 763 1266.5 861.5 c 128,-1,39
 1226 960 1226 960 1108 998 c 0,18,19
EndSplineSet
EndChar

StartChar: r
Encoding: 114 114 89
Width: 1350
GlyphClass: 2
Flags: W
LayerCount: 2
UndoRedoHistory
Layer: 1
Undoes
EndUndoes
Redoes
EndRedoes
EndUndoRedoHistory
Fore
SplineSet
329 969 m 1,0,1
 398 1184 398 1184 809 1184 c 0,2,3
 1058 1184 1058 1184 1173.5 1098.5 c 128,-1,4
 1289 1013 1289 1013 1289 777 c 1,5,-1
 1129 777 l 1,6,7
 1129 900 1129 900 1088 944 c 128,-1,8
 1047 988 1047 988 988 1006 c 0,9,10
 928 1024 928 1024 736.5 1024 c 128,-1,11
 545 1024 545 1024 437 959 c 128,-1,12
 329 894 329 894 329 713 c 2,13,-1
 329 0 l 1,14,-1
 137 0 l 1,15,-1
 137 1152 l 1,16,-1
 329 1152 l 1,17,-1
 329 969 l 1,0,1
EndSplineSet
EndChar

StartChar: s
Encoding: 115 115 90
AltUni2: 00017f.ffffffff.0
Width: 1550
GlyphClass: 2
Flags: W
LayerCount: 2
UndoRedoHistory
Layer: 1
Undoes
EndUndoes
Redoes
EndRedoes
EndUndoRedoHistory
Fore
SplineSet
306 860 m 0,0,1
 306 735 306 735 383 710 c 128,-1,2
 460 685 460 685 772 685 c 2,3,-1
 813 685 l 2,4,5
 1100 685 1100 685 1161.5 671 c 128,-1,6
 1223 657 1223 657 1275 641 c 128,-1,7
 1327 625 1327 625 1354 600 c 0,8,9
 1380 576 1380 576 1408 540 c 0,10,11
 1458 476 1458 476 1458 357.5 c 128,-1,12
 1458 239 1458 239 1412 156 c 0,13,14
 1383 103 1383 103 1281 47.5 c 128,-1,15
 1179 -8 1179 -8 874 -12 c 0,16,17
 833 -12 833 -12 752 -12 c 128,-1,18
 671 -12 671 -12 560 -8 c 128,-1,19
 449 -4 449 -4 342 25 c 0,20,21
 114 89 114 89 114 320 c 1,22,-1
 306 320 l 1,23,24
 306 224 306 224 356.5 189 c 128,-1,25
 407 154 407 154 447 147 c 0,26,27
 545 128 545 128 700.5 128 c 129,-1,28
 856 128 856 128 909 129.5 c 128,-1,29
 962 131 962 131 1032 137 c 128,-1,30
 1102 143 1102 143 1136 156 c 0,31,32
 1170 168 1170 168 1205 192 c 0,33,34
 1266 233 1266 233 1266 350 c 128,-1,35
 1266 467 1266 467 1174.5 496 c 128,-1,36
 1083 525 1083 525 786 525 c 2,37,-1
 763 525 l 2,38,39
 478 525 478 525 422 534.5 c 128,-1,40
 366 544 366 544 315.5 555.5 c 128,-1,41
 265 567 265 567 241 584 c 128,-1,42
 217 601 217 601 187.5 625.5 c 128,-1,43
 158 650 158 650 136 706.5 c 128,-1,44
 114 763 114 763 114 850 c 128,-1,45
 114 937 114 937 141 994 c 128,-1,46
 168 1051 168 1051 225 1085 c 128,-1,47
 282 1119 282 1119 339 1140.5 c 128,-1,48
 396 1162 396 1162 517.5 1173 c 128,-1,49
 639 1184 639 1184 770 1184 c 128,-1,50
 901 1184 901 1184 1010 1180 c 128,-1,51
 1119 1176 1119 1176 1227 1147 c 0,52,53
 1458 1083 1458 1083 1458 848 c 1,54,-1
 1266 848 l 1,55,56
 1266 934 1266 934 1209 969 c 128,-1,57
 1152 1004 1152 1004 1089.5 1012 c 128,-1,58
 1027 1020 1027 1020 967.5 1022 c 128,-1,59
 908 1024 908 1024 811 1024 c 128,-1,60
 714 1024 714 1024 669 1023 c 0,61,62
 458 1021 458 1021 382 987.5 c 128,-1,63
 306 954 306 954 306 860 c 0,0,1
EndSplineSet
EndChar

StartChar: t
Encoding: 116 116 91
Width: 1331
GlyphClass: 2
Flags: W
LayerCount: 2
UndoRedoHistory
Layer: 1
Undoes
EndUndoes
Redoes
EndRedoes
EndUndoRedoHistory
Fore
SplineSet
611.5 168.5 m 128,-1,1
 660 160 660 160 770 160 c 0,2,3
 880 160 880 160 943.5 192 c 128,-1,4
 1007 224 1007 224 1030 298 c 128,-1,5
 1053 372 1053 372 1053 516 c 1,6,-1
 1229 516 l 1,7,8
 1229 373 1229 373 1205.5 278.5 c 128,-1,9
 1182 184 1182 184 1126 120 c 0,10,11
 1021 0 1021 0 761 0 c 128,-1,12
 501 0 501 0 391.5 88.5 c 128,-1,13
 282 177 282 177 282 416 c 2,14,-1
 282 1003 l 1,15,-1
 45 1003 l 1,16,-1
 45 1152 l 1,17,-1
 282 1152 l 1,18,-1
 282 1467 l 1,19,-1
 474 1467 l 1,20,-1
 474 1152 l 1,21,-1
 1197 1152 l 1,22,-1
 1197 1003 l 1,23,-1
 474 1003 l 1,24,-1
 474 416 l 2,25,26
 474 331 474 331 485 282.5 c 128,-1,27
 496 234 496 234 529.5 205.5 c 128,-1,0
 563 177 563 177 611.5 168.5 c 128,-1,1
EndSplineSet
EndChar

StartChar: u
Encoding: 117 117 92
Width: 1596
GlyphClass: 2
Flags: W
LayerCount: 2
UndoRedoHistory
Layer: 1
Undoes
EndUndoes
Redoes
EndRedoes
EndUndoRedoHistory
Fore
SplineSet
1267 192 m 1,0,1
 1170 -22 1170 -22 691 -22 c 0,2,3
 530 -22 530 -22 425 2.5 c 128,-1,4
 320 27 320 27 248 88.5 c 128,-1,5
 176 150 176 150 145 252.5 c 128,-1,6
 114 355 114 355 114 512 c 2,7,-1
 115 1152 l 1,8,-1
 307 1152 l 1,9,-1
 307 512 l 2,10,11
 307 393 307 393 330.5 318.5 c 128,-1,12
 354 244 354 244 411 201.5 c 128,-1,13
 468 159 468 159 548 143.5 c 128,-1,14
 628 128 628 128 738 128 c 128,-1,15
 848 128 848 128 918 135 c 0,16,17
 1085 152 1085 152 1176 223 c 128,-1,18
 1267 294 1267 294 1267 448 c 2,19,-1
 1267 1152 l 1,20,-1
 1459 1152 l 1,21,-1
 1459 0 l 1,22,-1
 1267 0 l 1,23,-1
 1267 192 l 1,0,1
EndSplineSet
EndChar

StartChar: v
Encoding: 118 118 93
Width: 1656
GlyphClass: 2
Flags: W
LayerCount: 2
UndoRedoHistory
Layer: 1
Undoes
EndUndoes
Redoes
EndRedoes
EndUndoRedoHistory
Fore
SplineSet
700 0 m 1,0,-1
 92 1152 l 1,1,-1
 316 1152 l 1,2,-1
 828 128 l 1,3,-1
 1340 1152 l 1,4,-1
 1564 1152 l 1,5,-1
 956 0 l 1,6,-1
 700 0 l 1,0,-1
EndSplineSet
EndChar

StartChar: w
Encoding: 119 119 94
Width: 2306
GlyphClass: 2
Flags: W
LayerCount: 2
UndoRedoHistory
Layer: 1
Undoes
EndUndoes
Redoes
EndRedoes
EndUndoRedoHistory
Fore
SplineSet
2209 1152 m 1,0,-1
 1761 0 l 1,1,-1
 1505 0 l 1,2,-1
 1153 944 l 1,3,-1
 801 0 l 1,4,-1
 545 0 l 1,5,-1
 97 1152 l 1,6,-1
 321 1152 l 1,7,-1
 673 144 l 1,8,-1
 1057 1152 l 1,9,-1
 1249 1152 l 1,10,-1
 1629 144 l 1,11,-1
 1985 1152 l 1,12,-1
 2209 1152 l 1,0,-1
EndSplineSet
EndChar

StartChar: x
Encoding: 120 120 95
Width: 1622
GlyphClass: 2
Flags: W
LayerCount: 2
UndoRedoHistory
Layer: 1
Undoes
EndUndoes
Redoes
EndRedoes
EndUndoRedoHistory
Fore
SplineSet
1274 0 m 1,0,-1
 812 482 l 1,1,-1
 350 0 l 1,2,-1
 94 0 l 1,3,-1
 684 586 l 1,4,-1
 122 1152 l 1,5,-1
 378 1152 l 1,6,-1
 817 707 l 1,7,-1
 1246 1152 l 1,8,-1
 1502 1152 l 1,9,-1
 940 587 l 1,10,-1
 1530 0 l 1,11,-1
 1274 0 l 1,0,-1
EndSplineSet
EndChar

StartChar: y
Encoding: 121 121 96
Width: 1508
GlyphClass: 2
Flags: W
LayerCount: 2
UndoRedoHistory
Layer: 1
Undoes
EndUndoes
Redoes
EndRedoes
EndUndoRedoHistory
Fore
SplineSet
636 0 m 1,0,-1
 28 1152 l 1,1,-1
 252 1152 l 1,2,-1
 764 128 l 1,3,-1
 1244 1152 l 1,4,-1
 1468 1152 l 1,5,6
 1367 949 1367 949 1164 544 c 128,-1,7
 961 139 961 139 898.5 13.5 c 128,-1,8
 836 -112 836 -112 812 -154 c 0,9,10
 741 -284 741 -284 608.5 -334 c 128,-1,11
 476 -384 476 -384 252 -384 c 1,12,-1
 252 -224 l 1,13,14
 422 -224 422 -224 484.5 -204.5 c 0,15,16
 548 -186 548 -186 574 -170 c 0,17,18
 631 -137 631 -137 700 0 c 1,19,-1
 636 0 l 1,0,-1
EndSplineSet
EndChar

StartChar: z
Encoding: 122 122 97
Width: 1390
GlyphClass: 2
Flags: W
LayerCount: 2
UndoRedoHistory
Layer: 1
Undoes
EndUndoes
Redoes
EndRedoes
EndUndoRedoHistory
Fore
SplineSet
143 1152 m 1,0,-1
 1295 1152 l 1,1,-1
 1295 992 l 1,2,-1
 333 143 l 1,3,-1
 1295 143 l 1,4,-1
 1295 0 l 1,5,-1
 79 0 l 1,6,-1
 79 160 l 1,7,-1
 1055 1011 l 1,8,-1
 143 1011 l 1,9,-1
 143 1152 l 1,0,-1
EndSplineSet
EndChar

StartChar: braceleft
Encoding: 123 123 98
Width: 801
GlyphClass: 2
Flags: W
LayerCount: 2
UndoRedoHistory
Layer: 1
Undoes
EndUndoes
Redoes
EndRedoes
EndUndoRedoHistory
Fore
SplineSet
49 688 m 1,0,-1
 49 848 l 1,1,2
 154 848 154 848 187.5 869 c 128,-1,3
 221 890 221 890 231 920 c 128,-1,4
 241 950 241 950 241 1054 c 0,5,6
 241 1308 241 1308 349 1454 c 128,-1,7
 457 1600 457 1600 753 1600 c 1,8,-1
 753 1440 l 1,9,10
 568 1440 568 1440 504 1356 c 0,11,12
 457 1295 457 1295 445 1210.5 c 128,-1,13
 433 1126 433 1126 433 1016 c 128,-1,14
 433 906 433 906 403.5 854 c 128,-1,15
 374 802 374 802 305 768 c 1,16,17
 374 734 374 734 403.5 682 c 128,-1,18
 433 630 433 630 433 506 c 0,19,20
 433 382 433 382 451.5 290.5 c 128,-1,21
 470 199 470 199 537.5 147.5 c 128,-1,22
 605 96 605 96 753 96 c 1,23,-1
 753 -64 l 1,24,25
 457 -64 457 -64 349 83.5 c 128,-1,26
 241 231 241 231 241 484 c 0,27,28
 241 587 241 587 231.5 617 c 128,-1,29
 222 647 222 647 189.5 667.5 c 128,-1,30
 157 688 157 688 49 688 c 1,0,-1
EndSplineSet
EndChar

StartChar: bar
Encoding: 124 124 99
Width: 489
GlyphClass: 2
Flags: W
LayerCount: 2
UndoRedoHistory
Layer: 1
Undoes
EndUndoes
Redoes
EndRedoes
EndUndoRedoHistory
Fore
SplineSet
149 -128 m 1,0,-1
 149 1600 l 1,1,-1
 341 1600 l 1,2,-1
 341 -128 l 1,3,-1
 149 -128 l 1,0,-1
EndSplineSet
EndChar

StartChar: braceright
Encoding: 125 125 100
Width: 808
GlyphClass: 2
Flags: W
LayerCount: 2
UndoRedoHistory
Layer: 1
Undoes
EndUndoes
Redoes
EndRedoes
EndUndoRedoHistory
Fore
SplineSet
60 -64 m 1,0,-1
 60 96 l 1,1,2
 245 96 245 96 309 179 c 0,3,4
 355 239 355 239 367.5 323 c 128,-1,5
 380 407 380 407 380 518.5 c 128,-1,6
 380 630 380 630 409.5 682 c 128,-1,7
 439 734 439 734 508 768 c 1,8,9
 439 802 439 802 409.5 854 c 128,-1,10
 380 906 380 906 380 988 c 128,-1,11
 380 1070 380 1070 376 1155 c 128,-1,12
 372 1240 372 1240 341 1307 c 0,13,14
 283 1440 283 1440 60 1440 c 1,15,-1
 60 1600 l 1,16,17
 356 1600 356 1600 464 1452.5 c 0,18,19
 572 1304 572 1304 572 1052 c 0,20,21
 572 950 572 950 582 920 c 128,-1,22
 592 890 592 890 625.5 869 c 128,-1,23
 659 848 659 848 764 848 c 1,24,-1
 764 688 l 1,25,26
 656 688 656 688 623.5 667.5 c 128,-1,27
 591 647 591 647 581.5 617 c 128,-1,28
 572 587 572 587 572 483 c 0,29,30
 572 229 572 229 464 82.5 c 128,-1,31
 356 -64 356 -64 60 -64 c 1,0,-1
EndSplineSet
EndChar

StartChar: asciitilde
Encoding: 126 126 101
Width: 1109
GlyphClass: 2
Flags: W
LayerCount: 2
UndoRedoHistory
Layer: 1
Undoes
EndUndoes
Redoes
EndRedoes
EndUndoRedoHistory
Fore
SplineSet
301 832 m 1,0,-1
 109 832 l 1,1,2
 109 950 109 950 179 1019 c 128,-1,3
 249 1088 249 1088 365 1088 c 0,4,5
 434 1088 434 1088 499.5 1064 c 128,-1,6
 565 1040 565 1040 627 1016 c 0,7,8
 688 992 688 992 738 992 c 128,-1,9
 788 992 788 992 800.5 1015.5 c 128,-1,10
 813 1039 813 1039 813 1088 c 1,11,-1
 1005 1088 l 1,12,13
 1005 972 1005 972 934 902 c 128,-1,14
 863 832 863 832 749 832 c 0,15,16
 680 832 680 832 614.5 856 c 128,-1,17
 549 880 549 880 487 904 c 0,18,19
 426 928 426 928 376 928 c 128,-1,20
 326 928 326 928 313.5 905 c 128,-1,21
 301 882 301 882 301 832 c 1,0,-1
EndSplineSet
EndChar

StartChar: exclamdown
Encoding: 161 161 103
Width: 447
GlyphClass: 2
Flags: W
LayerCount: 2
UndoRedoHistory
Layer: 1
Undoes
EndUndoes
Redoes
EndRedoes
EndUndoRedoHistory
Fore
SplineSet
133 0 m 1,0,-1
 181 1088 l 1,1,-1
 277 1088 l 1,2,-1
 325 0 l 1,3,-1
 133 0 l 1,0,-1
325 1536 m 1,4,-1
 325 1344 l 1,5,-1
 133 1344 l 1,6,-1
 133 1536 l 1,7,-1
 325 1536 l 1,4,-1
EndSplineSet
EndChar

StartChar: cent
Encoding: 162 162 104
Width: 1559
GlyphClass: 2
Flags: W
LayerCount: 2
UndoRedoHistory
Layer: 1
Undoes
EndUndoes
Redoes
EndRedoes
EndUndoRedoHistory
Fore
SplineSet
868 960 m 2,0,-1
 815 960 l 2,1,2
 503 960 503 960 419.5 908.5 c 128,-1,3
 336 857 336 857 314 750 c 0,4,5
 303 695 303 695 303 533 c 128,-1,6
 303 371 303 371 321 307 c 128,-1,7
 339 243 339 243 388.5 204 c 0,8,9
 438 164 438 164 490 152 c 0,10,11
 596 127 596 127 807 127 c 0,12,13
 860 127 860 127 922 129 c 0,14,15
 1052 133 1052 133 1091 145 c 0,16,17
 1192 178 1192 178 1220 222 c 0,18,19
 1262 288 1262 288 1263 384 c 1,20,-1
 1455 384 l 1,21,22
 1456 158 1456 158 1322 66 c 0,23,24
 1236 7 1236 7 1114 -12.5 c 128,-1,25
 992 -32 992 -32 831.5 -32 c 0,26,27
 670 -32 670 -32 552 -20 c 0,28,29
 310 6 310 6 210 135 c 128,-1,30
 110 264 110 264 110 519 c 128,-1,31
 110 774 110 774 162 885 c 0,32,33
 242 1054 242 1054 478 1096 c 0,34,35
 614 1120 614 1120 814.5 1120 c 128,-1,36
 1015 1120 1015 1120 1151.5 1092.5 c 128,-1,37
 1288 1065 1288 1065 1371.5 975.5 c 128,-1,38
 1455 886 1455 886 1455 704 c 1,39,-1
 1263 704 l 1,40,41
 1262 807 1262 807 1246 840 c 0,42,43
 1196 940 1196 940 1024 954 c 0,44,45
 956 960 956 960 868 960 c 2,0,-1
EndSplineSet
EndChar

StartChar: sterling
Encoding: 163 163 105
Width: 1573
GlyphClass: 2
Flags: W
LayerCount: 2
UndoRedoHistory
Layer: 1
Undoes
EndUndoes
Redoes
EndRedoes
EndUndoRedoHistory
Fore
SplineSet
49 800 m 1,0,-1
 241 800 l 1,1,-1
 241 958 l 2,2,3
 241 1252 241 1252 336 1388 c 0,4,5
 388 1462 388 1462 474 1502 c 0,6,7
 619 1569 619 1569 945 1569 c 0,8,9
 1168 1569 1168 1569 1270.5 1536 c 0,10,11
 1374 1503 1374 1503 1420 1460 c 0,12,13
 1522 1366 1522 1366 1521 1173 c 1,14,-1
 1329 1173 l 1,15,16
 1329 1261 1329 1261 1307.5 1295.5 c 128,-1,17
 1286 1330 1286 1330 1269 1347.5 c 128,-1,18
 1252 1365 1252 1365 1194 1387 c 128,-1,19
 1136 1409 1136 1409 979.5 1409 c 128,-1,20
 823 1409 823 1409 742 1403 c 0,21,22
 443 1381 443 1381 436 1134 c 0,23,24
 433 1046 433 1046 433 958 c 2,25,-1
 433 800 l 1,26,-1
 1265 800 l 1,27,-1
 1265 640 l 1,28,-1
 433 640 l 1,29,-1
 433 160 l 1,30,-1
 1457 160 l 1,31,-1
 1457 0 l 1,32,-1
 241 0 l 1,33,-1
 241 640 l 1,34,-1
 49 640 l 1,35,-1
 49 800 l 1,0,-1
EndSplineSet
EndChar

StartChar: currency
Encoding: 164 164 106
Width: 1254
GlyphClass: 2
Flags: W
LayerCount: 2
UndoRedoHistory
Layer: 1
Undoes
EndUndoes
Redoes
EndRedoes
EndUndoRedoHistory
Fore
SplineSet
924 848 m 1,0,-1
 1074 977 l 1,1,-1
 1158 880 l 1,2,-1
 1013 756 l 1,3,4
 1078 659 1078 659 1078 514 c 128,-1,5
 1078 369 1078 369 1013 268 c 1,6,-1
 1158 144 l 1,7,-1
 1074 47 l 1,8,-1
 923 175 l 1,9,10
 811 96 811 96 628.5 96 c 128,-1,11
 446 96 446 96 336 176 c 1,12,-1
 186 47 l 1,13,-1
 102 144 l 1,14,-1
 246 268 l 1,15,16
 182 367 182 367 182 512 c 128,-1,17
 182 657 182 657 246 756 c 1,18,-1
 102 880 l 1,19,-1
 186 977 l 1,20,-1
 336 848 l 1,21,22
 451 928 451 928 630 928 c 128,-1,23
 809 928 809 928 924 848 c 1,0,-1
630 256 m 128,-1,25
 886 256 886 256 886 512 c 128,-1,26
 886 768 886 768 630 768 c 128,-1,27
 374 768 374 768 374 512 c 128,-1,24
 374 256 374 256 630 256 c 128,-1,25
EndSplineSet
EndChar

StartChar: yen
Encoding: 165 165 107
Width: 1957
GlyphClass: 2
Flags: W
LayerCount: 2
UndoRedoHistory
Layer: 1
Undoes
EndUndoes
Redoes
EndRedoes
EndUndoRedoHistory
Fore
SplineSet
377 416 m 1,0,-1
 889 416 l 1,1,-1
 889 640 l 1,2,-1
 377 640 l 1,3,-1
 377 800 l 1,4,-1
 734 800 l 1,5,-1
 25 1536 l 1,6,-1
 281 1536 l 1,7,-1
 985 768 l 1,8,-1
 1689 1536 l 1,9,-1
 1945 1536 l 1,10,-1
 1235 800 l 1,11,-1
 1593 800 l 1,12,-1
 1593 640 l 1,13,-1
 1081 640 l 1,14,-1
 1081 416 l 1,15,-1
 1593 416 l 1,16,-1
 1593 256 l 1,17,-1
 1081 256 l 1,18,-1
 1081 0 l 1,19,-1
 889 0 l 1,20,-1
 889 256 l 1,21,-1
 377 256 l 1,22,-1
 377 416 l 1,0,-1
EndSplineSet
EndChar

StartChar: brokenbar
Encoding: 166 166 108
Width: 485
GlyphClass: 2
Flags: W
LayerCount: 2
UndoRedoHistory
Layer: 1
Undoes
EndUndoes
Redoes
EndRedoes
EndUndoRedoHistory
Fore
SplineSet
148 896 m 1,0,-1
 148 1600 l 1,1,-1
 340 1600 l 1,2,-1
 340 896 l 1,3,-1
 148 896 l 1,0,-1
148 -128 m 1,4,-1
 148 576 l 1,5,-1
 340 576 l 1,6,-1
 340 -128 l 1,7,-1
 148 -128 l 1,4,-1
EndSplineSet
EndChar

StartChar: section
Encoding: 167 167 109
Width: 1455
GlyphClass: 2
Flags: W
LayerCount: 2
UndoRedoHistory
Layer: 1
Undoes
EndUndoes
Redoes
EndRedoes
EndUndoRedoHistory
Fore
SplineSet
1261 551 m 1,0,1
 1351 490 1351 490 1351 338 c 0,2,3
 1351 148 1351 148 1247 74 c 0,4,5
 1209 47 1209 47 1177 29.5 c 128,-1,6
 1145 12 1145 12 1043 -10 c 128,-1,7
 941 -32 941 -32 712 -32 c 129,-1,8
 483 -32 483 -32 367.5 -9 c 128,-1,9
 252 14 252 14 179.5 90.5 c 128,-1,10
 107 167 107 167 107 320 c 1,11,-1
 299 320 l 1,12,13
 299 220 299 220 363 170 c 0,14,15
 408 136 408 136 534 130 c 0,16,17
 572 128 572 128 647 128 c 2,18,-1
 786 127 l 1,19,20
 926 127 926 127 970.5 137.5 c 128,-1,21
 1015 148 1015 148 1053.5 161 c 128,-1,22
 1092 174 1092 174 1125.5 214 c 128,-1,23
 1159 254 1159 254 1159 308 c 0,24,25
 1159 435 1159 435 1047 466 c 0,26,27
 979 485 979 485 881 485 c 1,28,-1
 679 480 l 1,29,-1
 591 480 l 2,30,31
 401 480 401 480 305 501 c 128,-1,32
 209 522 209 522 156 568.5 c 128,-1,33
 103 615 103 615 103 690 c 0,34,35
 102 764 102 764 150 830 c 0,36,37
 166 852 166 852 195 887 c 1,38,39
 104 954 104 954 104 1102 c 0,40,41
 104 1292 104 1292 208 1366 c 0,42,43
 246 1393 246 1393 278 1410.5 c 128,-1,44
 310 1428 310 1428 412 1450 c 128,-1,45
 514 1472 514 1472 743 1472 c 128,-1,46
 972 1472 972 1472 1087.5 1449 c 128,-1,47
 1203 1426 1203 1426 1275.5 1349.5 c 128,-1,48
 1348 1273 1348 1273 1348 1120 c 1,49,-1
 1156 1120 l 1,50,51
 1156 1220 1156 1220 1092 1270 c 0,52,53
 1048 1304 1048 1304 922 1310 c 0,54,55
 884 1312 884 1312 808 1312 c 2,56,-1
 669 1313 l 1,57,58
 514 1313 514 1313 442 1292 c 0,59,60
 296 1250 296 1250 296 1127.5 c 128,-1,61
 296 1005 296 1005 408 974 c 0,62,63
 476 955 476 955 573 955 c 1,64,-1
 775 960 l 1,65,66
 1068 960 1068 960 1168 928.5 c 128,-1,67
 1268 897 1268 897 1296 871 c 0,68,69
 1349 819 1349 819 1349 746.5 c 128,-1,70
 1349 674 1349 674 1261 551 c 1,0,1
541 638 m 1,71,-1
 679 640 l 1,72,73
 987 640 987 640 1128 607 c 1,74,75
 1161 673 1161 673 1161 711 c 0,76,77
 1161 801 1161 801 915 801 c 2,78,-1
 838 801 l 1,79,-1
 806 800 l 2,80,81
 791 800 791 800 776 800 c 0,82,83
 466 800 466 800 327 832 c 1,84,85
 296 760 296 760 296 731 c 0,86,87
 296 672 296 672 369 655 c 128,-1,88
 442 638 442 638 541 638 c 1,71,-1
EndSplineSet
EndChar

StartChar: dieresis
Encoding: 168 168 110
Width: 1173
GlyphClass: 2
Flags: W
LayerCount: 2
UndoRedoHistory
Layer: 1
Undoes
EndUndoes
Redoes
EndRedoes
EndUndoRedoHistory
Fore
SplineSet
305 1536 m 1,0,-1
 305 1344 l 1,1,-1
 113 1344 l 1,2,-1
 113 1536 l 1,3,-1
 305 1536 l 1,0,-1
1073 1536 m 1,4,-1
 1073 1344 l 1,5,-1
 881 1344 l 1,6,-1
 881 1536 l 1,7,-1
 1073 1536 l 1,4,-1
EndSplineSet
EndChar

StartChar: copyright
Encoding: 169 169 111
Width: 1850
GlyphClass: 2
Flags: W
LayerCount: 2
UndoRedoHistory
Layer: 1
Undoes
EndUndoes
Redoes
EndRedoes
EndUndoRedoHistory
Fore
SplineSet
1439.5 1580 m 128,-1,1
 1617 1496 1617 1496 1686.5 1322.5 c 128,-1,2
 1756 1149 1756 1149 1756 861 c 128,-1,3
 1756 573 1756 573 1700 425 c 0,4,5
 1610 187 1610 187 1340 111 c 0,6,7
 1172 64 1172 64 960 64 c 0,8,9
 586 64 586 64 408.5 148 c 128,-1,10
 231 232 231 232 161.5 405.5 c 128,-1,11
 92 579 92 579 92 880 c 0,12,13
 92 1182 92 1182 162 1336 c 0,14,15
 246 1521 246 1521 435.5 1592.5 c 128,-1,16
 625 1664 625 1664 943.5 1664 c 128,-1,0
 1262 1664 1262 1664 1439.5 1580 c 128,-1,1
1295 257.5 m 128,-1,18
 1407 291 1407 291 1466 372 c 128,-1,19
 1525 453 1525 453 1544.5 570.5 c 128,-1,20
 1564 688 1564 688 1564 848 c 128,-1,21
 1564 1008 1564 1008 1550 1127 c 0,22,23
 1522 1364 1522 1364 1360 1441 c 0,24,25
 1228 1504 1228 1504 946.5 1504 c 128,-1,26
 665 1504 665 1504 553 1470.5 c 128,-1,27
 441 1437 441 1437 382 1356 c 128,-1,28
 323 1275 323 1275 303.5 1157.5 c 128,-1,29
 284 1040 284 1040 284 880 c 128,-1,30
 284 720 284 720 294 636 c 0,31,32
 312 481 312 481 361 402.5 c 128,-1,33
 410 324 410 324 488 287 c 128,-1,34
 566 250 566 250 667.5 237 c 128,-1,35
 769 224 769 224 976 224 c 129,-1,17
 1183 224 1183 224 1295 257.5 c 128,-1,18
1436 1027 m 1,36,-1
 1276 1027 l 1,37,38
 1276 1153 1276 1153 1205 1198 c 0,39,40
 1172 1219 1172 1219 1120 1230 c 128,-1,41
 1068 1241 1068 1241 952 1241 c 128,-1,42
 836 1241 836 1241 768.5 1233 c 128,-1,43
 701 1225 701 1225 659.5 1197 c 128,-1,44
 618 1169 618 1169 596 1116 c 128,-1,45
 574 1063 574 1063 574 902.5 c 128,-1,46
 574 742 574 742 589 684 c 128,-1,47
 604 626 604 626 647 596 c 0,48,49
 720 544 720 544 907 544 c 128,-1,50
 1094 544 1094 544 1135 558 c 0,51,52
 1219 587 1219 587 1247.5 632.5 c 128,-1,53
 1276 678 1276 678 1276 759 c 1,54,-1
 1436 759 l 1,55,56
 1436 587 1436 587 1351 510.5 c 128,-1,57
 1266 434 1266 434 1096 417 c 0,58,59
 1024 410 1024 410 895 410 c 0,60,61
 664 410 664 410 568 469 c 128,-1,62
 472 528 472 528 442 630 c 128,-1,63
 412 732 412 732 412 883 c 128,-1,64
 412 1034 412 1034 428 1106 c 0,65,66
 457 1233 457 1233 524 1286.5 c 128,-1,67
 591 1340 591 1340 689 1357.5 c 128,-1,68
 787 1375 787 1375 905 1375 c 0,69,70
 1023 1376 1023 1376 1095 1368 c 0,71,72
 1267 1350 1267 1350 1351.5 1272.5 c 128,-1,73
 1436 1195 1436 1195 1436 1027 c 1,36,-1
EndSplineSet
EndChar

StartChar: guillemotleft
Encoding: 171 171 113
Width: 1262
GlyphClass: 2
Flags: W
LayerCount: 2
UndoRedoHistory
Layer: 1
Undoes
EndUndoes
Redoes
EndRedoes
EndUndoRedoHistory
Fore
SplineSet
729 256 m 1,0,-1
 633 128 l 1,1,-1
 89 512 l 1,2,-1
 89 704 l 1,3,-1
 633 1088 l 1,4,-1
 729 960 l 1,5,-1
 217 608 l 1,6,-1
 729 256 l 1,0,-1
1177 256 m 1,7,-1
 1081 128 l 1,8,-1
 537 512 l 1,9,-1
 537 704 l 1,10,-1
 1081 1088 l 1,11,-1
 1177 960 l 1,12,-1
 665 608 l 1,13,-1
 1177 256 l 1,7,-1
EndSplineSet
EndChar

StartChar: logicalnot
Encoding: 172 172 114
Width: 1189
GlyphClass: 2
Flags: W
LayerCount: 2
UndoRedoHistory
Layer: 1
Undoes
EndUndoes
Redoes
EndRedoes
EndUndoRedoHistory
Fore
SplineSet
1061 640 m 1,0,-1
 869 640 l 1,1,-1
 869 928 l 1,2,-1
 101 928 l 1,3,-1
 101 1088 l 1,4,-1
 1061 1088 l 1,5,-1
 1061 640 l 1,0,-1
EndSplineSet
EndChar

StartChar: registered
Encoding: 174 174 115
Width: 1850
GlyphClass: 2
Flags: W
LayerCount: 2
UndoRedoHistory
Layer: 1
Undoes
EndUndoes
Redoes
EndRedoes
EndUndoRedoHistory
Fore
SplineSet
697 800 m 1,0,-1
 697 384 l 1,1,-1
 537 384 l 1,2,-1
 537 1376 l 1,3,-1
 824 1376 l 2,4,5
 1056 1376 1056 1376 1159 1347.5 c 128,-1,6
 1262 1319 1262 1319 1314 1257.5 c 128,-1,7
 1366 1196 1366 1196 1368 1088 c 1,8,9
 1368 875 1368 875 1124 860 c 1,10,11
 1262 843 1262 843 1315.5 769 c 128,-1,12
 1369 695 1369 695 1369 536 c 2,13,-1
 1369 384 l 1,14,-1
 1208 384 l 1,15,-1
 1208 536 l 2,16,17
 1208 684 1208 684 1148 738 c 0,18,19
 1106 776 1106 776 1045 788 c 128,-1,20
 984 800 984 800 891 800 c 2,21,-1
 697 800 l 1,0,-1
1208 1088 m 0,22,23
 1208 1248 1208 1248 934 1248 c 2,24,-1
 697 1248 l 1,25,-1
 697 928 l 1,26,-1
 865 928 l 2,27,28
 1027 928 1027 928 1087 944 c 0,29,30
 1208 976 1208 976 1208 1088 c 0,22,23
1439.5 1580 m 128,-1,32
 1617 1496 1617 1496 1686.5 1322.5 c 128,-1,33
 1756 1149 1756 1149 1756 861 c 128,-1,34
 1756 573 1756 573 1700 425 c 0,35,36
 1610 187 1610 187 1340 111 c 0,37,38
 1172 64 1172 64 960 64 c 0,39,40
 586 64 586 64 408.5 148 c 128,-1,41
 231 232 231 232 161.5 405.5 c 128,-1,42
 92 579 92 579 92 880 c 0,43,44
 92 1182 92 1182 162 1336 c 0,45,46
 246 1521 246 1521 435.5 1592.5 c 128,-1,47
 625 1664 625 1664 943.5 1664 c 128,-1,31
 1262 1664 1262 1664 1439.5 1580 c 128,-1,32
1295 257.5 m 128,-1,49
 1407 291 1407 291 1466 372 c 128,-1,50
 1525 453 1525 453 1544.5 570.5 c 128,-1,51
 1564 688 1564 688 1564 848 c 128,-1,52
 1564 1008 1564 1008 1550 1127 c 0,53,54
 1522 1364 1522 1364 1360 1441 c 0,55,56
 1228 1504 1228 1504 946.5 1504 c 128,-1,57
 665 1504 665 1504 553 1470.5 c 128,-1,58
 441 1437 441 1437 382 1356 c 128,-1,59
 323 1275 323 1275 303.5 1157.5 c 128,-1,60
 284 1040 284 1040 284 880 c 128,-1,61
 284 720 284 720 294 636 c 0,62,63
 312 481 312 481 361 402.5 c 128,-1,64
 410 324 410 324 488 287 c 128,-1,65
 566 250 566 250 667.5 237 c 128,-1,66
 769 224 769 224 976 224 c 129,-1,48
 1183 224 1183 224 1295 257.5 c 128,-1,49
EndSplineSet
EndChar

StartChar: macron
Encoding: 175 175 116
Width: 981
GlyphClass: 2
Flags: W
LayerCount: 2
UndoRedoHistory
Layer: 1
Undoes
EndUndoes
Redoes
EndRedoes
EndUndoRedoHistory
Fore
SplineSet
113 1344 m 1,0,-1
 113 1504 l 1,1,-1
 881 1504 l 1,2,-1
 881 1344 l 1,3,-1
 113 1344 l 1,0,-1
EndSplineSet
EndChar

StartChar: degree
Encoding: 176 176 117
Width: 1093
GlyphClass: 2
Flags: W
LayerCount: 2
UndoRedoHistory
Layer: 1
Undoes
EndUndoes
Redoes
EndRedoes
EndUndoRedoHistory
Fore
SplineSet
997 512 m 128,-1,1
 997 308 997 308 878.5 202 c 128,-1,2
 760 96 760 96 549 96 c 128,-1,3
 338 96 338 96 219.5 202 c 128,-1,4
 101 308 101 308 101 512 c 128,-1,5
 101 716 101 716 219.5 822 c 128,-1,6
 338 928 338 928 549 928 c 128,-1,7
 760 928 760 928 878.5 822 c 128,-1,0
 997 716 997 716 997 512 c 128,-1,1
549 256 m 128,-1,9
 805 256 805 256 805 512 c 128,-1,10
 805 768 805 768 549 768 c 128,-1,11
 293 768 293 768 293 512 c 128,-1,8
 293 256 293 256 549 256 c 128,-1,9
EndSplineSet
EndChar

StartChar: plusminus
Encoding: 177 177 118
Width: 1217
GlyphClass: 2
Flags: W
LayerCount: 2
UndoRedoHistory
Layer: 1
Undoes
EndUndoes
Redoes
EndRedoes
EndUndoRedoHistory
Fore
SplineSet
67 960 m 1,0,-1
 515 960 l 1,1,-1
 515 1408 l 1,2,-1
 707 1408 l 1,3,-1
 707 960 l 1,4,-1
 1155 960 l 1,5,-1
 1155 800 l 1,6,-1
 707 800 l 1,7,-1
 707 320 l 1,8,-1
 515 320 l 1,9,-1
 515 800 l 1,10,-1
 67 800 l 1,11,-1
 67 960 l 1,0,-1
EndSplineSet
EndChar

StartChar: twosuperior
Encoding: 178 178 119
Width: 1298
GlyphClass: 2
Flags: W
LayerCount: 2
UndoRedoHistory
Layer: 1
Undoes
EndUndoes
Redoes
EndRedoes
EndUndoRedoHistory
Fore
SplineSet
756 1409 m 2,0,-1
 658 1408 l 1,1,-1
 526 1410 l 1,2,3
 389 1410 389 1410 347 1369.5 c 128,-1,4
 305 1329 305 1329 305 1248 c 1,5,-1
 113 1248 l 1,6,7
 114 1408 114 1408 184 1472 c 0,8,9
 210 1496 210 1496 232.5 1512 c 128,-1,10
 255 1528 255 1528 331.5 1548 c 128,-1,11
 408 1568 408 1568 642 1568 c 2,12,-1
 658 1568 l 2,13,14
 927 1568 927 1568 1021.5 1536.5 c 0,15,16
 1116 1506 1116 1506 1151 1448 c 0,17,18
 1201 1366 1201 1366 1201 1260 c 0,19,20
 1201 1066 1201 1066 1121 990.5 c 128,-1,21
 1041 915 1041 915 883 884 c 2,22,-1
 625 833 l 2,23,24
 600 828 600 828 521 815 c 128,-1,25
 442 802 442 802 393 780 c 0,26,27
 305 739 305 739 305 608 c 1,28,-1
 1171 608 l 1,29,-1
 1171 448 l 1,30,-1
 113 448 l 1,31,-1
 113 672 l 2,32,33
 114 806 114 806 180 865 c 0,34,35
 226 906 226 906 287 926 c 128,-1,36
 348 946 348 946 433 962 c 2,37,-1
 819 1035 l 2,38,39
 916 1054 916 1054 951 1083 c 0,40,41
 1009 1132 1009 1132 1009 1248.5 c 128,-1,42
 1009 1365 1009 1365 912 1393 c 0,43,44
 853 1409 853 1409 756 1409 c 2,0,-1
EndSplineSet
EndChar

StartChar: threesuperior
Encoding: 179 179 120
Width: 1422
GlyphClass: 2
Flags: W
LayerCount: 2
UndoRedoHistory
Layer: 1
Undoes
EndUndoes
Redoes
EndRedoes
EndUndoRedoHistory
Fore
SplineSet
736 416 m 1,0,-1
 532 414 l 1,1,2
 343 414 343 414 258.5 445 c 128,-1,3
 174 476 174 476 134.5 537 c 128,-1,4
 95 598 95 598 95 703 c 1,5,-1
 287 703 l 1,6,7
 287 615 287 615 337.5 590 c 128,-1,8
 388 565 388 565 496 565 c 1,9,-1
 736 576 l 1,10,-1
 882 574 l 1,11,12
 1025 574 1025 574 1071 614 c 128,-1,13
 1117 654 1117 654 1117 742 c 128,-1,14
 1117 830 1117 830 1073.5 863 c 128,-1,15
 1030 896 1030 896 926 896 c 2,16,-1
 735 896 l 1,17,-1
 735 1056 l 1,18,-1
 926 1056 l 2,19,20
 1027 1056 1027 1056 1072 1090.5 c 128,-1,21
 1117 1125 1117 1125 1117 1222 c 128,-1,22
 1117 1319 1117 1319 1066.5 1350.5 c 128,-1,23
 1016 1382 1016 1382 926 1382 c 1,24,-1
 736 1376 l 1,25,26
 500 1376 500 1376 425 1371.5 c 128,-1,27
 350 1367 350 1367 318.5 1332.5 c 128,-1,28
 287 1298 287 1298 287 1218 c 1,29,-1
 95 1218 l 1,30,31
 95 1394 95 1394 189 1465 c 0,32,33
 250 1511 250 1511 331.5 1524.5 c 128,-1,34
 413 1538 413 1538 527 1538 c 1,35,-1
 736 1536 l 1,36,-1
 830 1536 l 2,37,38
 1029 1536 1029 1536 1082.5 1521.5 c 128,-1,39
 1136 1507 1136 1507 1183.5 1487 c 128,-1,40
 1231 1467 1231 1467 1270.5 1401.5 c 128,-1,41
 1310 1336 1310 1336 1310 1224 c 128,-1,42
 1310 1112 1310 1112 1272 1057 c 128,-1,43
 1234 1002 1234 1002 1150 976 c 1,44,45
 1238 941 1238 941 1274 891.5 c 128,-1,46
 1310 842 1310 842 1310 762 c 0,47,48
 1310 579 1310 579 1233 507 c 0,49,50
 1134 416 1134 416 898 416 c 2,51,-1
 736 416 l 1,0,-1
EndSplineSet
EndChar

StartChar: acute
Encoding: 180 180 121
Width: 838
GlyphClass: 2
Flags: W
LayerCount: 2
UndoRedoHistory
Layer: 1
Undoes
EndUndoes
Redoes
EndRedoes
EndUndoRedoHistory
Fore
SplineSet
800 1664 m 1,0,-1
 160 1280 l 1,1,-1
 96 1376 l 1,2,-1
 672 1856 l 1,3,-1
 800 1664 l 1,0,-1
EndSplineSet
EndChar

StartChar: mu
Encoding: 181 181 122
Width: 1636
GlyphClass: 2
Flags: W
LayerCount: 2
UndoRedoHistory
Layer: 1
Undoes
EndUndoes
Redoes
EndRedoes
EndUndoRedoHistory
Fore
SplineSet
147 580 m 1,0,-1
 148 886 l 1,1,-1
 148 1088 l 1,2,-1
 340 1088 l 1,3,-1
 340 512 l 2,4,5
 340 393 340 393 363.5 318.5 c 128,-1,6
 387 244 387 244 444 201.5 c 128,-1,7
 501 159 501 159 581 143.5 c 128,-1,8
 661 128 661 128 771 128 c 0,9,10
 882 128 882 128 952 135 c 0,11,12
 1119 152 1119 152 1209.5 223 c 128,-1,13
 1300 294 1300 294 1300 448 c 2,14,-1
 1300 1088 l 1,15,-1
 1492 1088 l 1,16,-1
 1492 0 l 1,17,-1
 1300 0 l 1,18,-1
 1300 191 l 1,19,20
 1182 -32 1182 -32 724 -32 c 0,21,22
 472 -32 472 -32 340 33 c 1,23,-1
 340 -384 l 1,24,-1
 148 -384 l 1,25,-1
 148 -104 l 1,26,-1
 147 294 l 1,27,-1
 147 580 l 1,0,-1
EndSplineSet
EndChar

StartChar: paragraph
Encoding: 182 182 123
Width: 1839
GlyphClass: 2
Flags: W
LayerCount: 2
UndoRedoHistory
Layer: 1
Undoes
EndUndoes
Redoes
EndRedoes
EndUndoRedoHistory
Fore
SplineSet
1036 1376 m 1,0,-1
 1036 0 l 1,1,-1
 844 0 l 1,2,-1
 844 608 l 1,3,-1
 781 608 l 2,4,5
 454 608 454 608 323 660.5 c 128,-1,6
 192 713 192 713 134 813.5 c 128,-1,7
 76 914 76 914 76 1086 c 128,-1,8
 76 1258 76 1258 109 1321 c 128,-1,9
 142 1384 142 1384 176.5 1416.5 c 128,-1,10
 211 1449 211 1449 290 1481 c 0,11,12
 423 1536 423 1536 781 1536 c 2,13,-1
 1804 1536 l 1,14,-1
 1804 1376 l 1,15,-1
 1612 1376 l 1,16,-1
 1612 0 l 1,17,-1
 1420 0 l 1,18,-1
 1420 1376 l 1,19,-1
 1036 1376 l 1,0,-1
EndSplineSet
EndChar

StartChar: periodcentered
Encoding: 183 183 124
Width: 414
GlyphClass: 2
Flags: W
LayerCount: 2
UndoRedoHistory
Layer: 1
Undoes
EndUndoes
Redoes
EndRedoes
EndUndoRedoHistory
Fore
SplineSet
306 896 m 1,0,-1
 306 704 l 1,1,-1
 114 704 l 1,2,-1
 114 896 l 1,3,-1
 306 896 l 1,0,-1
EndSplineSet
EndChar

StartChar: cedilla
Encoding: 184 184 125
Width: 561
GlyphClass: 2
Flags: W
LayerCount: 2
UndoRedoHistory
Layer: 1
Undoes
EndUndoes
Redoes
EndRedoes
EndUndoRedoHistory
Fore
SplineSet
109 -384 m 1,0,1
 152 -384 l 2,2,3
 245 -384 245 -384 273 -360.5 c 128,-1,4
 301 -337 301 -337 301 -288 c 0,5,6
 300 -230 300 -230 204 -226 c 0,7,8
 190 -226 190 -226 178 -225 c 128,-1,9
 166 -224 166 -224 149 -224 c 2,10,-1
 109 -224 l 1,11,-1
 109 64 l 1,12,-1
 237 64 l 1,13,-1
 237 -128 l 1,14,15
 493 -128 493 -128 493 -288 c 0,16,17
 493 -443 493 -443 386 -493.5 c 128,-1,18
 279 -544 279 -544 109 -544 c 1,19,-1
 109 -384 l 1,0,1
EndSplineSet
EndChar

StartChar: onesuperior
Encoding: 185 185 126
Width: 880
GlyphClass: 2
Flags: W
LayerCount: 2
UndoRedoHistory
Layer: 1
Undoes
EndUndoes
Redoes
EndRedoes
EndUndoRedoHistory
Fore
SplineSet
35 1120 m 1,0,-1
 483 1536 l 1,1,-1
 739 1536 l 1,2,-1
 739 448 l 1,3,-1
 547 448 l 1,4,-1
 547 1376 l 1,5,-1
 131 992 l 1,6,-1
 35 1120 l 1,0,-1
EndSplineSet
EndChar

StartChar: ordmasculine
Encoding: 186 186 127
Width: 1599
GlyphClass: 2
Flags: W
LayerCount: 2
UndoRedoHistory
Layer: 1
Undoes
EndUndoes
Redoes
EndRedoes
EndUndoRedoHistory
Fore
SplineSet
798 385 m 128,-1,1
 676 385 676 385 583 395.5 c 128,-1,2
 490 406 490 406 408.5 431 c 128,-1,3
 327 456 327 456 270.5 498.5 c 128,-1,4
 214 541 214 541 173 604.5 c 128,-1,5
 132 668 132 668 113 756.5 c 128,-1,6
 94 845 94 845 94 961 c 128,-1,7
 94 1077 94 1077 113 1165.5 c 128,-1,8
 132 1254 132 1254 173 1317.5 c 128,-1,9
 214 1381 214 1381 270.5 1423.5 c 128,-1,10
 327 1466 327 1466 408.5 1491 c 128,-1,11
 490 1516 490 1516 583 1526.5 c 128,-1,12
 676 1537 676 1537 798 1537 c 128,-1,13
 920 1537 920 1537 1013 1526.5 c 128,-1,14
 1106 1516 1106 1516 1187.5 1491 c 128,-1,15
 1269 1466 1269 1466 1325.5 1423.5 c 128,-1,16
 1382 1381 1382 1381 1423 1317.5 c 128,-1,17
 1464 1254 1464 1254 1483 1165.5 c 128,-1,18
 1502 1077 1502 1077 1502 961 c 128,-1,19
 1502 845 1502 845 1483 756.5 c 128,-1,20
 1464 668 1464 668 1423 604.5 c 128,-1,21
 1382 541 1382 541 1325.5 498.5 c 128,-1,22
 1269 456 1269 456 1187.5 431 c 128,-1,23
 1106 406 1106 406 1013 395.5 c 128,-1,0
 920 385 920 385 798 385 c 128,-1,1
345 1256.5 m 128,-1,25
 324 1227 324 1227 305 1166 c 128,-1,26
 286 1105 286 1105 286 1002 c 128,-1,27
 286 899 286 899 293 822 c 0,28,29
 300 745 300 745 330 689 c 0,30,31
 397 567 397 567 592 552 c 0,32,33
 686 545 686 545 774.5 545 c 128,-1,34
 863 545 863 545 943 547 c 0,35,36
 1023 549 1023 549 1095.5 566.5 c 128,-1,37
 1168 584 1168 584 1215 623.5 c 128,-1,38
 1262 663 1262 663 1286 740 c 128,-1,39
 1310 817 1310 817 1310 938.5 c 128,-1,40
 1310 1060 1310 1060 1298.5 1127 c 128,-1,41
 1287 1194 1287 1194 1257 1247 c 0,42,43
 1200 1348 1200 1348 1040 1366 c 0,44,45
 942 1377 942 1377 837.5 1377 c 128,-1,46
 733 1377 733 1377 695 1376 c 128,-1,47
 657 1375 657 1375 604.5 1371.5 c 128,-1,48
 552 1368 552 1368 520.5 1360.5 c 128,-1,49
 489 1353 489 1353 451 1339.5 c 128,-1,50
 413 1326 413 1326 389.5 1306 c 128,-1,24
 366 1286 366 1286 345 1256.5 c 128,-1,25
EndSplineSet
EndChar

StartChar: guillemotright
Encoding: 187 187 128
Width: 1264
GlyphClass: 2
Flags: W
LayerCount: 2
UndoRedoHistory
Layer: 1
Undoes
EndUndoes
Redoes
EndRedoes
EndUndoRedoHistory
Fore
SplineSet
606 608 m 1,0,-1
 94 960 l 1,1,-1
 190 1088 l 1,2,-1
 734 704 l 1,3,-1
 734 512 l 1,4,-1
 190 128 l 1,5,-1
 94 256 l 1,6,-1
 606 608 l 1,0,-1
1054 608 m 1,7,-1
 542 960 l 1,8,-1
 638 1088 l 1,9,-1
 1182 704 l 1,10,-1
 1182 512 l 1,11,-1
 638 128 l 1,12,-1
 542 256 l 1,13,-1
 1054 608 l 1,7,-1
EndSplineSet
EndChar

StartChar: AE
Encoding: 198 198 139
Width: 3063
GlyphClass: 2
Flags: W
LayerCount: 2
UndoRedoHistory
Layer: 1
Undoes
EndUndoes
Redoes
EndRedoes
EndUndoRedoHistory
Fore
SplineSet
1501 0 m 1,0,-1
 1501 352 l 1,1,-1
 611 352 l 1,2,-1
 285 0 l 1,3,-1
 29 0 l 1,4,-1
 1437 1536 l 1,5,-1
 2973 1536 l 1,6,-1
 2973 1376 l 1,7,-1
 1693 1376 l 1,8,-1
 1693 864 l 1,9,-1
 2909 864 l 1,10,-1
 2909 704 l 1,11,-1
 1693 704 l 1,12,-1
 1693 160 l 1,13,-1
 2973 160 l 1,14,-1
 2973 0 l 1,15,-1
 1501 0 l 1,0,-1
1501 512 m 1,16,-1
 1501 1376 l 1,17,-1
 733 512 l 1,18,-1
 1501 512 l 1,16,-1
EndSplineSet
EndChar

StartChar: Eth
Encoding: 208 208 149
Width: 2165
GlyphClass: 2
Flags: W
LayerCount: 2
UndoRedoHistory
Layer: 1
Undoes
EndUndoes
Redoes
EndRedoes
EndUndoRedoHistory
Fore
SplineSet
67 704 m 1,0,-1
 67 864 l 1,1,-1
 195 864 l 1,2,-1
 195 1536 l 1,3,-1
 1346 1536 l 2,4,5
 1848 1536 1848 1536 1962 1342 c 0,6,7
 2039 1212 2039 1212 2048 988 c 0,8,9
 2051 899 2051 899 2051 683 c 0,10,11
 2051 467 2051 467 2022.5 341 c 128,-1,12
 1994 215 1994 215 1906.5 136 c 128,-1,13
 1819 57 1819 57 1682 28.5 c 128,-1,14
 1545 0 1545 0 1346 0 c 2,15,-1
 195 0 l 1,16,-1
 195 704 l 1,17,-1
 67 704 l 1,0,-1
1861 584 m 1,18,-1
 1859 768 l 1,19,-1
 1859 900 l 2,20,21
 1859 1077 1859 1077 1844 1148 c 128,-1,22
 1829 1219 1829 1219 1808 1255 c 128,-1,23
 1787 1291 1787 1291 1732.5 1325 c 128,-1,24
 1678 1359 1678 1359 1587.5 1367.5 c 128,-1,25
 1497 1376 1497 1376 1370 1376 c 2,26,-1
 387 1376 l 1,27,-1
 387 864 l 1,28,-1
 835 864 l 1,29,-1
 835 704 l 1,30,-1
 387 704 l 1,31,-1
 387 160 l 1,32,-1
 1354 160 l 2,33,34
 1555 160 1555 160 1642 177 c 128,-1,35
 1729 194 1729 194 1779 243.5 c 128,-1,36
 1829 293 1829 293 1845 380 c 128,-1,37
 1861 467 1861 467 1861 584 c 1,18,-1
EndSplineSet
EndChar

StartChar: multiply
Encoding: 215 215 156
Width: 1051
GlyphClass: 2
Flags: W
LayerCount: 2
UndoRedoHistory
Layer: 1
Undoes
EndUndoes
Redoes
EndRedoes
EndUndoRedoHistory
Fore
SplineSet
972 1181 m 1,0,-1
 655 864 l 1,1,-1
 972 547 l 1,2,-1
 836 411 l 1,3,-1
 519 728 l 1,4,-1
 202 411 l 1,5,-1
 66 547 l 1,6,-1
 383 864 l 1,7,-1
 66 1181 l 1,8,-1
 202 1317 l 1,9,-1
 519 1000 l 1,10,-1
 836 1317 l 1,11,-1
 972 1181 l 1,0,-1
EndSplineSet
EndChar

StartChar: Oslash
Encoding: 216 216 157
Width: 2205
GlyphClass: 2
Flags: W
LayerCount: 2
UndoRedoHistory
Layer: 1
Undoes
EndUndoes
Redoes
EndRedoes
EndUndoRedoHistory
Fore
SplineSet
810 1568 m 2,0,-1
 1392 1568 l 1,1,-1
 1482 1792 l 1,2,-1
 1642 1728 l 1,3,-1
 1574 1561 l 1,4,5
 1711 1547 1711 1547 1803 1513.5 c 0,6,7
 1894 1480 1894 1480 1958 1416 c 0,8,9
 2078 1295 2078 1295 2088 1016 c 0,10,11
 2091 904 2091 904 2091 768 c 2,12,-1
 2091 756 l 2,13,14
 2091 505 2091 505 2082.5 444.5 c 128,-1,15
 2074 384 2074 384 2062.5 319.5 c 128,-1,16
 2051 255 2051 255 2007.5 178 c 128,-1,17
 1964 101 1964 101 1880 53 c 0,18,19
 1729 -32 1729 -32 1388 -32 c 2,20,-1
 932 -32 l 1,21,-1
 842 -256 l 1,22,-1
 682 -192 l 1,23,-1
 747 -31 l 1,24,25
 442 -24 442 -24 296 73 c 0,26,27
 122 188 122 188 110 520 c 0,28,29
 107 632 107 632 107 768 c 2,30,-1
 107 793 l 2,31,32
 108 1070 108 1070 120 1137 c 0,33,34
 149 1295 149 1295 193 1365.5 c 128,-1,35
 237 1436 237 1436 319 1483 c 0,36,37
 469 1568 469 1568 810 1568 c 2,0,-1
299 768 m 1,38,-1
 297 563 l 1,39,40
 297 362 297 362 336 279.5 c 128,-1,41
 375 197 375 197 455 164 c 0,42,43
 535 130 535 130 701 128 c 0,44,45
 737 128 737 128 807 128 c 2,46,-1
 811 128 l 1,47,-1
 1327 1408 l 1,48,-1
 810 1408 l 2,49,50
 625 1408 625 1408 554 1397 c 128,-1,51
 483 1386 483 1386 435 1360 c 128,-1,52
 387 1334 387 1334 358 1292.5 c 128,-1,53
 329 1251 329 1251 313.5 1173 c 128,-1,54
 298 1095 298 1095 298 923 c 1,55,-1
 299 768 l 1,38,-1
1899 768 m 1,56,-1
 1901 972 l 1,57,58
 1901 1141 1901 1141 1882.5 1196.5 c 128,-1,59
 1864 1252 1864 1252 1848 1282 c 0,60,61
 1814 1344 1814 1344 1744.5 1371.5 c 128,-1,62
 1675 1399 1675 1399 1512 1406 c 1,63,-1
 997 128 l 1,64,-1
 1388 128 l 2,65,66
 1554 128 1554 128 1590 132.5 c 0,67,68
 1626 136 1626 136 1661 142 c 0,69,70
 1774 160 1774 160 1836.5 240 c 128,-1,71
 1899 320 1899 320 1899 548 c 2,72,-1
 1899 768 l 1,56,-1
EndSplineSet
EndChar

StartChar: Thorn
Encoding: 222 222 163
Width: 1977
GlyphClass: 2
Flags: W
LayerCount: 2
UndoRedoHistory
Layer: 1
Undoes
EndUndoes
Redoes
EndRedoes
EndUndoRedoHistory
Fore
SplineSet
147 0 m 1,0,-1
 147 1536 l 1,1,-1
 339 1536 l 1,2,-1
 339 1344 l 1,3,-1
 1301 1344 l 2,4,5
 1632 1344 1632 1344 1741.5 1273.5 c 0,6,7
 1851 1204 1851 1204 1869 1030 c 0,8,9
 1875 974 1875 974 1875 844 c 0,10,11
 1875 716 1875 716 1854 654 c 0,12,13
 1799 489 1799 489 1590 445 c 0,14,15
 1453 416 1453 416 1170 416 c 2,16,-1
 339 416 l 1,17,-1
 339 0 l 1,18,-1
 147 0 l 1,0,-1
1375 1188 m 1,19,-1
 1170 1184 l 1,20,-1
 339 1184 l 1,21,-1
 339 576 l 1,22,-1
 1201 576 l 2,23,24
 1425 576 1425 576 1495.5 590.5 c 128,-1,25
 1566 605 1566 605 1592.5 617 c 128,-1,26
 1619 629 1619 629 1644.5 662 c 128,-1,27
 1670 695 1670 695 1676.5 748 c 128,-1,28
 1683 801 1683 801 1683 881 c 128,-1,29
 1683 961 1683 961 1680.5 1007.5 c 128,-1,30
 1678 1054 1678 1054 1660 1087 c 0,31,32
 1626 1149 1626 1149 1553.5 1168.5 c 128,-1,33
 1481 1188 1481 1188 1375 1188 c 1,19,-1
EndSplineSet
EndChar

StartChar: germandbls
Encoding: 223 223 164
Width: 2024
GlyphClass: 2
Flags: W
LayerCount: 2
UndoRedoHistory
Layer: 1
Undoes
EndUndoes
Redoes
EndRedoes
EndUndoRedoHistory
Fore
SplineSet
1376 738 m 1,0,1
 1223 736 l 1,2,-1
 520 736 l 1,3,-1
 520 896 l 1,4,-1
 1223 896 l 2,5,6
 1427 896 1427 896 1491.5 925 c 128,-1,7
 1556 954 1556 954 1582 1012.5 c 128,-1,8
 1608 1071 1608 1071 1608 1143 c 128,-1,9
 1608 1215 1608 1215 1596 1247 c 0,10,11
 1557 1355 1557 1355 1389 1370 c 0,12,13
 1319 1376 1319 1376 1224 1376 c 2,14,-1
 805 1376 l 2,15,16
 584 1376 584 1376 537 1362.5 c 128,-1,17
 490 1349 490 1349 453 1334 c 128,-1,18
 416 1319 416 1319 397.5 1295.5 c 128,-1,19
 379 1272 379 1272 353.5 1226.5 c 128,-1,20
 328 1181 328 1181 328 1058 c 2,21,-1
 328 -128 l 1,22,-1
 136 -128 l 1,23,-1
 136 1058 l 2,24,25
 136 1232 136 1232 165 1299 c 128,-1,26
 194 1366 194 1366 224.5 1400.5 c 128,-1,27
 255 1435 255 1435 323 1471 c 0,28,29
 446 1536 446 1536 777 1536 c 2,30,-1
 1288 1536 l 2,31,32
 1591 1536 1591 1536 1707 1428 c 0,33,34
 1800 1341 1800 1341 1800 1162 c 0,35,36
 1800 982 1800 982 1722 890 c 0,37,38
 1678 838 1678 838 1608 832 c 1,39,40
 1758 824 1758 824 1843 731 c 128,-1,41
 1928 638 1928 638 1928 471 c 128,-1,42
 1928 304 1928 304 1899 237 c 128,-1,43
 1870 170 1870 170 1839.5 135.5 c 128,-1,44
 1809 101 1809 101 1741 65 c 0,45,46
 1618 0 1618 0 1287 0 c 2,47,-1
 520 0 l 1,48,-1
 520 160 l 1,49,-1
 1223 160 l 2,50,51
 1483 160 1483 160 1554 178.5 c 128,-1,52
 1625 197 1625 197 1665 232.5 c 128,-1,53
 1705 268 1705 268 1720.5 326.5 c 128,-1,54
 1736 385 1736 385 1736 456 c 128,-1,55
 1736 527 1736 527 1728 565 c 0,56,57
 1697 702 1697 702 1545 727 c 0,58,59
 1475 738 1475 738 1376 738 c 1,0,1
EndSplineSet
EndChar

StartChar: ae
Encoding: 230 230 171
Width: 2693
GlyphClass: 2
Flags: W
LayerCount: 2
UndoRedoHistory
Layer: 1
Undoes
EndUndoes
Redoes
EndRedoes
EndUndoRedoHistory
Fore
SplineSet
1344 145 m 1,0,1
 1207 -36 1207 -36 764 -36 c 0,2,3
 406 -36 406 -36 264 30 c 0,4,5
 90 111 90 111 90 291 c 0,6,7
 90 472 90 472 180 546 c 0,8,9
 228 586 228 586 276 608 c 0,10,11
 381 658 381 658 640 658.5 c 128,-1,12
 899 659 899 659 1041.5 638.5 c 128,-1,13
 1184 618 1184 618 1242 544 c 1,14,15
 1242 748 1242 748 1184 847 c 128,-1,16
 1126 946 1126 946 947 956 c 0,17,18
 881 960 881 960 826 960 c 2,19,-1
 716 960 l 2,20,21
 555 960 555 960 486 941 c 0,22,23
 346 904 346 904 346 768 c 1,24,-1
 154 768 l 1,25,26
 154 966 154 966 301 1044 c 0,27,28
 393 1093 393 1093 510 1106.5 c 128,-1,29
 627 1120 627 1120 823.5 1120 c 128,-1,30
 1020 1120 1020 1120 1148 1073 c 128,-1,31
 1276 1026 1276 1026 1344 896 c 1,32,33
 1419 1055 1419 1055 1637 1097 c 0,34,35
 1757 1120 1757 1120 1933 1120 c 128,-1,36
 2109 1120 2109 1120 2224 1093.5 c 0,37,38
 2338 1067 2338 1067 2422 1005 c 0,39,40
 2586 884 2586 884 2586 576 c 1,41,-1
 2570 512 l 1,42,-1
 1434 512 l 1,43,-1
 1434 486 l 1,44,45
 1436 357 1436 357 1461.5 305.5 c 128,-1,46
 1487 254 1487 254 1509 228 c 0,47,48
 1592 129 1592 129 1887 128 c 2,49,-1
 2021 128 l 2,50,51
 2188 128 2188 128 2256 147 c 0,52,53
 2394 185 2394 185 2394 320 c 1,54,-1
 2586 320 l 1,55,56
 2586 122 2586 122 2440 44 c 0,57,58
 2348 -5 2348 -5 2248 -16 c 0,59,60
 2075 -36 2075 -36 1931 -35 c 0,61,62
 1659 -36 1659 -36 1494 34 c 0,63,64
 1398 74 1398 74 1344 145 c 1,0,1
628 126 m 1,65,-1
 796 128 l 1,66,67
 982 128 982 128 1066 146.5 c 128,-1,68
 1150 165 1150 165 1196 206 c 128,-1,69
 1242 247 1242 247 1242 309 c 128,-1,70
 1242 371 1242 371 1222 394 c 0,71,72
 1184 439 1184 439 1145 454 c 0,73,74
 1033 496 1033 496 865 496 c 2,75,-1
 747 496 l 2,76,77
 711 496 711 496 675 497 c 2,78,-1
 621 498 l 2,79,80
 567 500 567 500 533 500 c 0,81,82
 391 500 391 500 336.5 454 c 128,-1,83
 282 408 282 408 282 320 c 0,84,85
 282 184 282 184 421 146 c 0,86,87
 493 126 493 126 628 126 c 1,65,-1
2394 640 m 1,88,89
 2394 870 2394 870 2223 926 c 0,90,91
 2122 960 2122 960 1992.5 960 c 1,92,93
 1864 960 1864 960 1818 959 c 0,94,95
 1542 953 1542 953 1479 841 c 0,96,97
 1434 760 1434 760 1434 640 c 1,98,-1
 2394 640 l 1,88,89
EndSplineSet
EndChar

StartChar: eth
Encoding: 240 240 181
Width: 2012
GlyphClass: 2
Flags: W
LayerCount: 2
UndoRedoHistory
Layer: 1
Undoes
EndUndoes
Redoes
EndRedoes
EndUndoRedoHistory
Fore
SplineSet
1071 770 m 1,0,-1
 787 768 l 1,1,2
 528 768 528 768 441 735.5 c 128,-1,3
 354 703 354 703 322 647 c 0,4,5
 276 568 276 568 276 476 c 128,-1,6
 276 384 276 384 282 345 c 0,7,8
 300 216 300 216 400 172 c 128,-1,9
 500 128 500 128 751 128 c 2,10,-1
 1108 128 l 2,11,12
 1265 128 1265 128 1365 143 c 0,13,14
 1511 165 1511 165 1565.5 248.5 c 128,-1,15
 1620 332 1620 332 1620 512 c 0,16,17
 1620 609 1620 609 1589 657 c 128,-1,18
 1558 705 1558 705 1478 729 c 0,19,20
 1342 770 1342 770 1071 770 c 1,0,-1
787 928 m 2,21,-1
 1011 929 l 1,22,23
 1278 929 1278 929 1410 904 c 128,-1,24
 1542 879 1542 879 1620 832 c 1,25,26
 1603 1155 1603 1155 1395 1309 c 1,27,-1
 1148 1092 l 1,28,-1
 1070 1193 l 1,29,-1
 1278 1375 l 1,30,31
 1135 1435 1135 1435 941 1435 c 0,32,33
 703 1435 703 1435 389 1344 c 1,34,-1
 330 1497 l 1,35,36
 651 1586 651 1586 920 1586 c 0,37,38
 1014 1586 1014 1586 1102 1576 c 0,39,40
 1275 1554 1275 1554 1409 1490 c 1,41,-1
 1677 1724 l 1,42,-1
 1755 1623 l 1,43,-1
 1524 1421 l 1,44,45
 1812 1211 1812 1211 1812 768 c 0,46,47
 1812 451 1812 451 1792 362 c 0,48,49
 1755 194 1755 194 1670 112.5 c 128,-1,50
 1585 31 1585 31 1449 -0.5 c 128,-1,51
 1313 -32 1313 -32 1108 -32 c 2,52,-1
 787 -32 l 2,53,54
 474 -32 474 -32 339.5 23.5 c 128,-1,55
 205 79 205 79 144.5 178.5 c 128,-1,56
 84 278 84 278 84 448 c 0,57,58
 84 703 84 703 220.5 804.5 c 128,-1,59
 357 906 357 906 614 923 c 0,60,61
 690 928 690 928 787 928 c 2,21,-1
EndSplineSet
EndChar

StartChar: divide
Encoding: 247 247 188
Width: 1201
GlyphClass: 2
Flags: W
LayerCount: 2
UndoRedoHistory
Layer: 1
Undoes
EndUndoes
Redoes
EndRedoes
EndUndoRedoHistory
Fore
SplineSet
81 512 m 1,0,-1
 81 672 l 1,1,-1
 1105 672 l 1,2,-1
 1105 512 l 1,3,-1
 81 512 l 1,0,-1
721 960 m 1,4,-1
 721 768 l 1,5,-1
 529 768 l 1,6,-1
 529 960 l 1,7,-1
 721 960 l 1,4,-1
721 384 m 1,8,-1
 721 192 l 1,9,-1
 529 192 l 1,10,-1
 529 384 l 1,11,-1
 721 384 l 1,8,-1
EndSplineSet
EndChar

StartChar: oslash
Encoding: 248 248 189
Width: 1602
GlyphClass: 2
Flags: W
LayerCount: 2
UndoRedoHistory
Layer: 1
Undoes
EndUndoes
Redoes
EndRedoes
EndUndoRedoHistory
Fore
SplineSet
472 -5 m 0,0,1
 271 35 271 35 182.5 166 c 128,-1,2
 94 297 94 297 94 537.5 c 128,-1,3
 94 778 94 778 174.5 902.5 c 128,-1,4
 255 1027 255 1027 406.5 1073.5 c 128,-1,5
 558 1120 558 1120 798 1120 c 0,6,7
 874 1120 874 1120 941 1115 c 1,8,-1
 1022 1312 l 1,9,-1
 1182 1248 l 1,10,-1
 1118 1094 l 1,11,12
 1121 1093 1121 1093 1124 1093 c 0,13,14
 1325 1053 1325 1053 1413.5 922 c 128,-1,15
 1502 791 1502 791 1502 550.5 c 128,-1,16
 1502 310 1502 310 1421.5 185.5 c 128,-1,17
 1341 61 1341 61 1189.5 14.5 c 128,-1,18
 1038 -32 1038 -32 798 -32 c 1,19,20
 722 -32 722 -32 655 -27 c 1,21,-1
 574 -224 l 1,22,-1
 414 -160 l 1,23,-1
 477 -6 l 1,24,25
 475 -5 475 -5 472 -5 c 0,0,1
345 839.5 m 128,-1,27
 324 810 324 810 305 749 c 128,-1,28
 286 688 286 688 286 576.5 c 128,-1,29
 286 465 286 465 292 410 c 0,30,31
 306 283 306 283 361.5 222.5 c 128,-1,32
 417 162 417 162 538 141 c 1,33,-1
 876 959 l 1,34,35
 839 960 839 960 786 960 c 128,-1,36
 733 960 733 960 695 959 c 128,-1,37
 657 958 657 958 604.5 954.5 c 128,-1,38
 552 951 552 951 520.5 943.5 c 128,-1,39
 489 936 489 936 451 922.5 c 128,-1,40
 413 909 413 909 389.5 889 c 128,-1,26
 366 869 366 869 345 839.5 c 128,-1,27
798 128 m 2,41,42
 1006 128 1006 128 1057 140 c 0,43,44
 1169 167 1169 167 1215.5 206.5 c 128,-1,45
 1262 246 1262 246 1286 323 c 128,-1,46
 1310 400 1310 400 1310 510 c 128,-1,47
 1310 620 1310 620 1304 676 c 0,48,49
 1290 801 1290 801 1232.5 865 c 128,-1,50
 1175 929 1175 929 1057 946 c 1,51,-1
 719 128 l 1,52,-1
 798 128 l 2,41,42
EndSplineSet
EndChar

StartChar: thorn
Encoding: 254 254 195
Width: 1658
GlyphClass: 2
Flags: W
LayerCount: 2
UndoRedoHistory
Layer: 1
Undoes
EndUndoes
Redoes
EndRedoes
EndUndoRedoHistory
Fore
SplineSet
1554 544 m 0,0,1
 1554 310 1554 310 1473.5 185.5 c 128,-1,2
 1393 61 1393 61 1241.5 14.5 c 128,-1,3
 1090 -32 1090 -32 850 -32 c 1,4,5
 427 -32 427 -32 338 128 c 1,6,-1
 338 -384 l 1,7,-1
 146 -384 l 1,8,-1
 146 1536 l 1,9,-1
 338 1536 l 1,10,-1
 338 961 l 1,11,12
 428 1120 428 1120 827.5 1120 c 0,13,14
 1228 1120 1228 1120 1378 1006 c 0,15,16
 1500 914 1500 914 1535 748 c 0,17,18
 1554 660 1554 660 1554 544 c 0,0,1
553 932 m 128,-1,20
 446 904 446 904 392 816.5 c 128,-1,21
 338 729 338 729 338 547 c 0,22,23
 338 289 338 289 429 215.5 c 128,-1,24
 520 142 520 142 684 132 c 0,25,26
 759 128 759 128 860.5 128 c 128,-1,27
 962 128 962 128 1042.5 134.5 c 128,-1,28
 1123 141 1123 141 1177.5 159 c 128,-1,29
 1232 177 1232 177 1268.5 206.5 c 0,30,31
 1306 236 1306 236 1326 286 c 0,32,33
 1362 374 1362 374 1362 547.5 c 128,-1,34
 1362 721 1362 721 1330 798 c 128,-1,35
 1298 875 1298 875 1228 909.5 c 128,-1,36
 1158 944 1158 944 1073.5 952 c 128,-1,37
 989 960 989 960 824.5 960 c 128,-1,19
 660 960 660 960 553 932 c 128,-1,20
EndSplineSet
EndChar

StartChar: dcroat
Encoding: 273 273 208
Width: 1670
GlyphClass: 2
Flags: W
LayerCount: 2
UndoRedoHistory
Layer: 1
Undoes
EndUndoes
Redoes
EndRedoes
EndUndoRedoHistory
Fore
SplineSet
796 1120 m 0,0,1
 1219 1120 1219 1120 1308 960 c 1,2,-1
 1308 1249 l 1,3,-1
 860 1249 l 1,4,-1
 860 1409 l 1,5,-1
 1308 1409 l 1,6,-1
 1308 1536 l 1,7,-1
 1500 1536 l 1,8,-1
 1500 1409 l 1,9,-1
 1628 1409 l 1,10,-1
 1628 1249 l 1,11,-1
 1500 1249 l 1,12,-1
 1500 0 l 1,13,-1
 1308 0 l 1,14,-1
 1308 127 l 1,15,16
 1220 -32 1220 -32 819.5 -32 c 0,17,18
 418 -32 418 -32 268 82 c 0,19,20
 146 174 146 174 111 340 c 0,21,22
 92 428 92 428 92 544 c 0,23,24
 92 778 92 778 172.5 902.5 c 128,-1,25
 253 1027 253 1027 404.5 1073.5 c 128,-1,26
 556 1120 556 1120 796 1120 c 0,0,1
818 128 m 128,-1,28
 1074 128 1074 128 1162 177 c 0,29,30
 1273 239 1273 239 1297 377 c 0,31,32
 1308 446 1308 446 1308 539 c 0,33,34
 1308 725 1308 725 1254.5 814 c 128,-1,35
 1201 903 1201 903 1095 931.5 c 128,-1,36
 989 960 989 960 856.5 960 c 128,-1,37
 724 960 724 960 638 958 c 128,-1,38
 552 956 552 956 470.5 931.5 c 128,-1,39
 389 907 389 907 345 851 c 128,-1,40
 301 795 301 795 292.5 713.5 c 128,-1,41
 284 632 284 632 284 544 c 0,42,43
 284 374 284 374 321 285 c 128,-1,44
 358 196 358 196 460 162 c 128,-1,27
 562 128 562 128 818 128 c 128,-1,28
EndSplineSet
EndChar

StartChar: dotlessi
Encoding: 305 305 235
Width: 465
GlyphClass: 2
Flags: W
LayerCount: 2
UndoRedoHistory
Layer: 1
Undoes
EndUndoes
Redoes
EndRedoes
EndUndoRedoHistory
Fore
SplineSet
137 0 m 1,0,-1
 137 1088 l 1,1,-1
 329 1088 l 1,2,-1
 329 0 l 1,3,-1
 137 0 l 1,0,-1
EndSplineSet
EndChar

StartChar: kgreenlandic
Encoding: 312 312 242
Width: 1442
GlyphClass: 2
Flags: W
LayerCount: 2
UndoRedoHistory
Layer: 1
Undoes
EndUndoes
Redoes
EndRedoes
EndUndoRedoHistory
Fore
SplineSet
147 0 m 1,0,-1
 147 1536 l 1,1,-1
 339 1536 l 1,2,-1
 339 656 l 1,3,-1
 403 656 l 1,4,-1
 1107 1088 l 1,5,-1
 1395 1088 l 1,6,-1
 579 576 l 1,7,-1
 1427 0 l 1,8,-1
 1139 0 l 1,9,-1
 403 512 l 1,10,-1
 339 512 l 1,11,-1
 339 0 l 1,12,-1
 147 0 l 1,0,-1
EndSplineSet
EndChar

StartChar: Lslash
Encoding: 321 321 251
Width: 1647
GlyphClass: 2
Flags: W
LayerCount: 2
UndoRedoHistory
Layer: 1
Undoes
EndUndoes
Redoes
EndRedoes
EndUndoRedoHistory
Fore
SplineSet
1601 0 m 1,0,-1
 193 0 l 1,1,-1
 193 797 l 1,2,-1
 65 768 l 1,3,-1
 65 928 l 1,4,-1
 193 957 l 1,5,-1
 193 1536 l 1,6,-1
 385 1536 l 1,7,-1
 385 1001 l 1,8,-1
 769 1088 l 1,9,-1
 769 928 l 1,10,-1
 385 841 l 1,11,-1
 385 160 l 1,12,-1
 1601 160 l 1,13,-1
 1601 0 l 1,0,-1
EndSplineSet
EndChar

StartChar: lslash
Encoding: 322 322 252
Width: 705
GlyphClass: 2
Flags: W
LayerCount: 2
UndoRedoHistory
Layer: 1
Undoes
EndUndoes
Redoes
EndRedoes
EndUndoRedoHistory
Fore
SplineSet
193 0 m 1,0,-1
 193 804 l 1,1,-1
 65 768 l 1,2,-1
 65 928 l 1,3,-1
 193 964 l 1,4,-1
 193 1536 l 1,5,-1
 385 1536 l 1,6,-1
 385 1017 l 1,7,-1
 641 1088 l 1,8,-1
 641 928 l 1,9,-1
 385 857 l 1,10,-1
 385 0 l 1,11,-1
 193 0 l 1,0,-1
EndSplineSet
EndChar

StartChar: OE
Encoding: 338 338 265
Width: 3525
GlyphClass: 2
Flags: W
LayerCount: 2
UndoRedoHistory
Layer: 1
Undoes
EndUndoes
Redoes
EndRedoes
EndUndoRedoHistory
Fore
SplineSet
1444 1565 m 0,0,1
 1748 1565 1748 1565 1899 1472 c 1,2,-1
 1899 1536 l 1,3,-1
 3435 1536 l 1,4,-1
 3435 1376 l 1,5,-1
 2091 1376 l 1,6,-1
 2091 864 l 1,7,-1
 3371 864 l 1,8,-1
 3371 704 l 1,9,-1
 2091 704 l 1,10,-1
 2091 160 l 1,11,-1
 3435 160 l 1,12,-1
 3435 0 l 1,13,-1
 1899 0 l 1,14,-1
 1899 64 l 1,15,16
 1812 10 1812 10 1687.5 -11 c 128,-1,17
 1563 -32 1563 -32 1388 -32 c 2,18,-1
 810 -32 l 2,19,20
 490 -32 490 -32 332.5 50.5 c 128,-1,21
 175 133 175 133 129 343 c 1,22,23
 107 452 107 452 107 768 c 2,24,-1
 107 793 l 2,25,26
 108 1070 108 1070 120 1137 c 0,27,28
 149 1295 149 1295 193 1365.5 c 128,-1,29
 237 1436 237 1436 315 1482 c 1,30,31
 464 1565 464 1565 752 1565 c 0,32,33
 780 1565 780 1565 810 1564 c 1,34,-1
 1388 1564 l 1,35,36
 1417 1565 1417 1565 1444 1565 c 0,0,1
299 768 m 1,37,-1
 297 563 l 1,38,39
 297 362 297 362 336 279.5 c 128,-1,40
 375 197 375 197 455 164 c 0,41,42
 535 130 535 130 701 128 c 0,43,44
 737 128 737 128 807 128 c 2,45,-1
 1388 128 l 2,46,47
 1554 128 1554 128 1590 132.5 c 0,48,49
 1626 136 1626 136 1661 142 c 0,50,51
 1774 160 1774 160 1836.5 240 c 128,-1,52
 1899 320 1899 320 1899 548 c 2,53,-1
 1899 768 l 1,54,-1
 1901 957 l 1,55,56
 1901 1146 1901 1146 1869.5 1227.5 c 128,-1,57
 1838 1309 1838 1309 1775 1350.5 c 128,-1,58
 1712 1392 1712 1392 1614 1398 c 128,-1,59
 1516 1404 1516 1404 1388 1404 c 2,60,-1
 810 1404 l 1,61,62
 748 1406 748 1406 693 1406 c 0,63,64
 493 1406 493 1406 415.5 1350.5 c 128,-1,65
 338 1295 338 1295 318 1195 c 128,-1,66
 298 1095 298 1095 298 923 c 1,67,-1
 299 768 l 1,37,-1
EndSplineSet
EndChar

StartChar: oe
Encoding: 339 339 266
Width: 2758
GlyphClass: 2
Flags: W
LayerCount: 2
UndoRedoHistory
Layer: 1
Undoes
EndUndoes
Redoes
EndRedoes
EndUndoRedoHistory
Fore
SplineSet
580 1109.5 m 128,-1,1
 673 1120 673 1120 780.5 1120 c 128,-1,2
 888 1120 888 1120 980 1109 c 128,-1,3
 1072 1098 1072 1098 1164.5 1074 c 128,-1,4
 1257 1050 1257 1050 1322 1004 c 128,-1,5
 1387 958 1387 958 1403 896 c 1,6,7
 1415 944 1415 944 1468 985 c 0,8,9
 1639 1120 1639 1120 1986 1120 c 128,-1,10
 2333 1120 2333 1120 2492 1001 c 128,-1,11
 2651 882 2651 882 2651 576 c 1,12,-1
 2635 512 l 1,13,-1
 1499 512 l 1,14,15
 1499 380 1499 380 1517.5 325.5 c 128,-1,16
 1536 271 1536 271 1552 246 c 0,17,18
 1628 128 1628 128 1922 128 c 2,19,-1
 2145 128 l 2,20,21
 2254 128 2254 128 2326 148 c 1,22,23
 2459 187 2459 187 2459 320 c 1,24,-1
 2651 320 l 1,25,26
 2652 129 2652 129 2508 47 c 0,27,28
 2420 -3 2420 -3 2323 -16 c 0,29,30
 2173 -36 2173 -36 2038 -36 c 0,31,32
 1822 -36 1822 -36 1648 16 c 0,33,34
 1463 72 1463 72 1403 192 c 1,35,36
 1364 113 1364 113 1264 61 c 0,37,38
 1086 -32 1086 -32 795 -32 c 1,39,40
 795 -150 795 -150 703 -150 c 0,41,42
 576 -150 576 -150 268 82 c 0,43,44
 146 174 146 174 110 340 c 0,45,46
 91 428 91 428 91 544 c 128,-1,47
 91 660 91 660 110 748.5 c 128,-1,48
 129 837 129 837 170 900.5 c 128,-1,49
 211 964 211 964 267.5 1006.5 c 128,-1,50
 324 1049 324 1049 405.5 1074 c 128,-1,0
 487 1099 487 1099 580 1109.5 c 128,-1,1
315 292 m 128,-1,52
 347 215 347 215 416.5 179.5 c 128,-1,53
 486 144 486 144 577.5 136 c 128,-1,54
 669 128 669 128 804 128 c 0,55,56
 938 128 938 128 1028 138 c 0,57,58
 1196 157 1196 157 1251.5 254.5 c 128,-1,59
 1307 352 1307 352 1307 520 c 128,-1,60
 1307 688 1307 688 1288 749 c 128,-1,61
 1269 810 1269 810 1248 840 c 0,62,63
 1175 943 1175 943 986 955 c 0,64,65
 906 960 906 960 778.5 960 c 0,66,67
 652 960 652 960 562 950 c 0,68,69
 394 931 394 931 338.5 833.5 c 128,-1,70
 283 736 283 736 283 552.5 c 128,-1,51
 283 369 283 369 315 292 c 128,-1,52
1499 640 m 1,71,-1
 2459 640 l 1,72,73
 2459 869 2459 869 2288 927 c 0,74,75
 2191 960 2191 960 2000.5 960 c 128,-1,76
 1810 960 1810 960 1726.5 944 c 128,-1,77
 1643 928 1643 928 1595 892 c 0,78,79
 1499 823 1499 823 1499 640 c 1,71,-1
EndSplineSet
EndChar

StartChar: florin
Encoding: 402 402 311
Width: 1010
GlyphClass: 2
Flags: W
LayerCount: 2
UndoRedoHistory
Layer: 1
Undoes
EndUndoes
Redoes
EndRedoes
EndUndoRedoHistory
Fore
SplineSet
-22 -128 m 1,0,1
 59 -128 l 2,2,3
 184 -128 184 -128 241 -78.5 c 128,-1,4
 298 -29 298 -29 298 128 c 2,5,-1
 298 960 l 1,6,-1
 106 960 l 1,7,-1
 106 1088 l 1,8,-1
 298 1088 l 1,9,-1
 298 1152 l 2,10,11
 298 1400 298 1400 428 1488 c 0,12,13
 496 1534 496 1534 585.5 1551 c 128,-1,14
 675 1568 675 1568 811 1568 c 2,15,-1
 938 1568 l 1,16,-1
 938 1408 l 1,17,-1
 775 1408 l 2,18,19
 652 1408 652 1408 609 1393 c 128,-1,20
 566 1378 566 1378 547 1359.5 c 128,-1,21
 528 1341 528 1341 509 1300 c 128,-1,22
 490 1259 490 1259 490 1152 c 2,23,-1
 490 1088 l 1,24,-1
 938 1088 l 1,25,-1
 938 960 l 1,26,-1
 490 960 l 1,27,-1
 490 128 l 2,28,29
 490 -120 490 -120 360 -208 c 0,30,31
 292 -254 292 -254 202.5 -271 c 128,-1,32
 113 -288 113 -288 -23 -288 c 1,33,-1
 -22 -128 l 1,0,1
EndSplineSet
EndChar

StartChar: uni0202
Encoding: 514 514 369
Width: 2191
GlyphClass: 2
Flags: W
LayerCount: 2
UndoRedoHistory
Layer: 1
Undoes
EndUndoes
Redoes
EndRedoes
EndUndoRedoHistory
Fore
SplineSet
1096 1882 m 0
 972 1882 972 1882 922 1844 c 0
 872 1806 872 1806 872 1690 c 1
 712 1690 l 1
 712 1862 712 1862 809 1936 c 0
 906 2010 906 2010 1096 2010 c 0
 1286 2010 1286 2010 1383 1936 c 0
 1480 1862 1480 1862 1480 1690 c 1
 1320 1690 l 1
 1320 1806 1320 1806 1270 1844 c 0
 1220 1882 1220 1882 1096 1882 c 0
EndSplineSet
Refer: 40 65 N 1 0 0 1 0 0 3
EndChar

StartChar: uni0203
Encoding: 515 515 370
Width: 1559
GlyphClass: 2
Flags: W
LayerCount: 2
UndoRedoHistory
Layer: 1
Undoes
EndUndoes
Redoes
EndRedoes
EndUndoRedoHistory
Fore
SplineSet
786 1498 m 0
 662 1498 662 1498 612 1460 c 0
 562 1422 562 1422 562 1306 c 1
 402 1306 l 1
 402 1478 402 1478 499 1552 c 0
 596 1626 596 1626 786 1626 c 0
 976 1626 976 1626 1073 1552 c 0
 1170 1478 1170 1478 1170 1306 c 1
 1010 1306 l 1
 1010 1422 1010 1422 960 1460 c 0
 910 1498 910 1498 786 1498 c 0
EndSplineSet
Refer: 72 97 N 1 0 0 1 0 0 3
EndChar

StartChar: uni0206
Encoding: 518 518 373
Width: 1773
GlyphClass: 2
Flags: W
LayerCount: 2
UndoRedoHistory
Layer: 1
Undoes
EndUndoes
Redoes
EndRedoes
EndUndoRedoHistory
Fore
SplineSet
915 1882 m 0
 790 1882 790 1882 740 1844 c 0
 690 1806 690 1806 691 1690 c 1
 531 1690 l 1
 531 1862 531 1862 628 1936 c 0
 725 2010 725 2010 915 2010 c 0
 1105 2010 1105 2010 1202 1936 c 0
 1299 1862 1299 1862 1299 1690 c 1
 1139 1690 l 1
 1140 1806 1140 1806 1090 1844 c 0
 1040 1882 1040 1882 915 1882 c 0
EndSplineSet
Refer: 44 69 N 1 0 0 1 0 0 3
EndChar

StartChar: uni0207
Encoding: 519 519 374
Width: 1542
GlyphClass: 2
Flags: W
LayerCount: 2
UndoRedoHistory
Layer: 1
Undoes
EndUndoes
Redoes
EndRedoes
EndUndoRedoHistory
Fore
SplineSet
763 1498 m 0
 638 1498 638 1498 588 1460 c 0
 538 1422 538 1422 539 1306 c 1
 379 1306 l 1
 379 1478 379 1478 476 1552 c 0
 573 1626 573 1626 763 1626 c 0
 953 1626 953 1626 1050 1552 c 0
 1147 1478 1147 1478 1147 1306 c 1
 987 1306 l 1
 988 1422 988 1422 938 1460 c 0
 888 1498 888 1498 763 1498 c 0
EndSplineSet
Refer: 76 101 N 1 0 0 1 0 0 3
EndChar

StartChar: uni020A
Encoding: 522 522 377
Width: 592
GlyphClass: 2
Flags: W
LayerCount: 2
UndoRedoHistory
Layer: 1
Undoes
EndUndoes
Redoes
EndRedoes
EndUndoRedoHistory
Fore
SplineSet
296 1882 m 0
 172 1882 172 1882 122 1844 c 0
 72 1806 72 1806 72 1690 c 1
 -88 1690 l 1
 -88 1862 -88 1862 9 1936 c 0
 106 2010 106 2010 296 2010 c 0
 486 2010 486 2010 583 1936 c 0
 680 1862 680 1862 680 1690 c 1
 520 1690 l 1
 520 1806 520 1806 470 1844 c 0
 420 1882 420 1882 296 1882 c 0
EndSplineSet
Refer: 48 73 N 1 0 0 1 0 0 3
EndChar

StartChar: uni020B
Encoding: 523 523 378
Width: 465
GlyphClass: 2
Flags: W
LayerCount: 2
UndoRedoHistory
Layer: 1
Undoes
EndUndoes
Redoes
EndRedoes
EndUndoRedoHistory
Fore
SplineSet
233 1498 m 0
 108 1498 108 1498 58 1460 c 0
 8 1422 8 1422 9 1306 c 1
 -151 1306 l 1
 -151 1478 -151 1478 -54 1552 c 0
 43 1626 43 1626 233 1626 c 0
 423 1626 423 1626 520 1552 c 0
 617 1478 617 1478 617 1306 c 1
 457 1306 l 1
 458 1422 458 1422 408 1460 c 0
 358 1498 358 1498 233 1498 c 0
EndSplineSet
Refer: 235 305 N 1 0 0 1 0 0 3
EndChar

StartChar: uni020E
Encoding: 526 526 381
Width: 2241
GlyphClass: 2
Flags: W
LayerCount: 2
UndoRedoHistory
Layer: 1
Undoes
EndUndoes
Redoes
EndRedoes
EndUndoRedoHistory
Fore
SplineSet
1121 1882 m 0
 996 1882 996 1882 946 1844 c 0
 896 1806 896 1806 897 1690 c 1
 737 1690 l 1
 737 1862 737 1862 834 1936 c 0
 931 2010 931 2010 1121 2010 c 0
 1311 2010 1311 2010 1408 1936 c 0
 1505 1862 1505 1862 1505 1690 c 1
 1345 1690 l 1
 1346 1806 1346 1806 1296 1844 c 0
 1246 1882 1246 1882 1121 1882 c 0
EndSplineSet
Refer: 54 79 N 1 0 0 1 0 0 3
EndChar

StartChar: uni020F
Encoding: 527 527 382
Width: 1614
GlyphClass: 2
Flags: W
LayerCount: 2
UndoRedoHistory
Layer: 1
Undoes
EndUndoes
Redoes
EndRedoes
EndUndoRedoHistory
Fore
SplineSet
807 1498 m 0
 682 1498 682 1498 632 1460 c 0
 582 1422 582 1422 583 1306 c 1
 423 1306 l 1
 423 1478 423 1478 520 1552 c 0
 617 1626 617 1626 807 1626 c 0
 997 1626 997 1626 1094 1552 c 0
 1191 1478 1191 1478 1191 1306 c 1
 1031 1306 l 1
 1032 1422 1032 1422 982 1460 c 0
 932 1498 932 1498 807 1498 c 0
EndSplineSet
Refer: 86 111 N 1 0 0 1 0 0 3
EndChar

StartChar: uni0212
Encoding: 530 530 385
Width: 2046
GlyphClass: 2
Flags: W
LayerCount: 2
UndoRedoHistory
Layer: 1
Undoes
EndUndoes
Redoes
EndRedoes
EndUndoRedoHistory
Fore
SplineSet
1043 1882 m 0
 918 1882 918 1882 868 1844 c 0
 818 1806 818 1806 819 1690 c 1
 659 1690 l 1
 659 1862 659 1862 756 1936 c 0
 853 2010 853 2010 1043 2010 c 0
 1233 2010 1233 2010 1330 1936 c 0
 1427 1862 1427 1862 1427 1690 c 1
 1267 1690 l 1
 1268 1806 1268 1806 1218 1844 c 0
 1168 1882 1168 1882 1043 1882 c 0
EndSplineSet
Refer: 57 82 N 1 0 0 1 0 0 3
EndChar

StartChar: uni0213
Encoding: 531 531 386
Width: 1350
GlyphClass: 2
Flags: W
LayerCount: 2
UndoRedoHistory
Layer: 1
Undoes
EndUndoes
Redoes
EndRedoes
EndUndoRedoHistory
Fore
SplineSet
713 1498 m 0
 588 1498 588 1498 538 1460 c 0
 488 1422 488 1422 489 1306 c 1
 329 1306 l 1
 329 1478 329 1478 426 1552 c 0
 523 1626 523 1626 713 1626 c 0
 903 1626 903 1626 1000 1552 c 0
 1097 1478 1097 1478 1097 1306 c 1
 937 1306 l 1
 938 1422 938 1422 888 1460 c 0
 838 1498 838 1498 713 1498 c 0
EndSplineSet
Refer: 89 114 N 1 0 0 1 0 0 3
EndChar

StartChar: uni0216
Encoding: 534 534 389
Width: 2209
GlyphClass: 2
Flags: W
LayerCount: 2
UndoRedoHistory
Layer: 1
Undoes
EndUndoes
Redoes
EndRedoes
EndUndoRedoHistory
Fore
SplineSet
1103 1882 m 0
 978 1882 978 1882 928 1844 c 0
 878 1806 878 1806 879 1690 c 1
 719 1690 l 1
 719 1862 719 1862 816 1936 c 0
 913 2010 913 2010 1103 2010 c 0
 1293 2010 1293 2010 1390 1936 c 0
 1487 1862 1487 1862 1487 1690 c 1
 1327 1690 l 1
 1328 1806 1328 1806 1278 1844 c 0
 1228 1882 1228 1882 1103 1882 c 0
EndSplineSet
Refer: 60 85 N 1 0 0 1 0 0 3
EndChar

StartChar: uni0217
Encoding: 535 535 390
Width: 1596
GlyphClass: 2
Flags: W
LayerCount: 2
UndoRedoHistory
Layer: 1
Undoes
EndUndoes
Redoes
EndRedoes
EndUndoRedoHistory
Fore
SplineSet
787 1498 m 0
 662 1498 662 1498 612 1460 c 0
 562 1422 562 1422 563 1306 c 1
 403 1306 l 1
 403 1478 403 1478 500 1552 c 0
 597 1626 597 1626 787 1626 c 0
 977 1626 977 1626 1074 1552 c 0
 1171 1478 1171 1478 1171 1306 c 1
 1011 1306 l 1
 1012 1422 1012 1422 962 1460 c 0
 912 1498 912 1498 787 1498 c 0
EndSplineSet
Refer: 92 117 N 1 0 0 1 0 0 3
EndChar

StartChar: dotlessj
Encoding: 567 567 411
Width: 477
GlyphClass: 2
Flags: W
LayerCount: 2
UndoRedoHistory
Layer: 1
Undoes
EndUndoes
Redoes
EndRedoes
EndUndoRedoHistory
Fore
SplineSet
-13 -384 m 1,0,-1
 -13 -224 l 1,1,2
 80 -224 80 -224 113.5 -190.5 c 128,-1,3
 147 -157 147 -157 147 -64 c 2,4,-1
 147 1088 l 1,5,-1
 339 1088 l 1,6,-1
 339 -64 l 2,7,8
 339 -247 339 -247 260 -315.5 c 128,-1,9
 181 -384 181 -384 -13 -384 c 1,0,-1
EndSplineSet
EndChar

StartChar: circumflex
Encoding: 710 710 412
Width: 1017
GlyphClass: 2
Flags: W
LayerCount: 2
UndoRedoHistory
Layer: 1
Undoes
EndUndoes
Redoes
EndRedoes
EndUndoRedoHistory
Fore
SplineSet
801 1280 m 1,0,-1
 513 1728 l 1,1,-1
 225 1280 l 1,2,-1
 97 1376 l 1,3,-1
 417 1856 l 1,4,-1
 609 1856 l 1,5,-1
 929 1376 l 1,6,-1
 801 1280 l 1,0,-1
EndSplineSet
EndChar

StartChar: caron
Encoding: 711 711 413
Width: 916
GlyphClass: 2
Flags: W
LayerCount: 2
UndoRedoHistory
Layer: 1
Undoes
EndUndoes
Redoes
EndRedoes
EndUndoRedoHistory
Fore
SplineSet
460 1408 m 1,0,-1
 748 1856 l 1,1,-1
 876 1760 l 1,2,-1
 556 1280 l 1,3,-1
 364 1280 l 1,4,-1
 44 1760 l 1,5,-1
 172 1856 l 1,6,-1
 460 1408 l 1,0,-1
EndSplineSet
EndChar

StartChar: breve
Encoding: 728 728 414
Width: 948
GlyphClass: 2
Flags: W
LayerCount: 2
UndoRedoHistory
Layer: 1
Undoes
EndUndoes
Redoes
EndRedoes
EndUndoRedoHistory
Fore
SplineSet
481 1408 m 128,-1,1
 606 1408 606 1408 655.5 1446 c 128,-1,2
 705 1484 705 1484 705 1600 c 1,3,-1
 865 1600 l 1,4,5
 865 1429 865 1429 768 1354.5 c 128,-1,6
 671 1280 671 1280 481 1280 c 128,-1,7
 291 1280 291 1280 194 1354.5 c 128,-1,8
 97 1429 97 1429 97 1600 c 1,9,-1
 257 1600 l 1,10,11
 257 1484 257 1484 306.5 1446 c 128,-1,0
 356 1408 356 1408 481 1408 c 128,-1,1
EndSplineSet
EndChar

StartChar: dotaccent
Encoding: 729 729 415
Width: 405
GlyphClass: 2
Flags: W
LayerCount: 2
UndoRedoHistory
Layer: 1
Undoes
EndUndoes
Redoes
EndRedoes
EndUndoRedoHistory
Fore
SplineSet
305 1536 m 1,0,-1
 305 1344 l 1,1,-1
 113 1344 l 1,2,-1
 113 1536 l 1,3,-1
 305 1536 l 1,0,-1
EndSplineSet
EndChar

StartChar: ring
Encoding: 730 730 416
Width: 886
GlyphClass: 2
Flags: W
LayerCount: 2
UndoRedoHistory
Layer: 1
Undoes
EndUndoes
Redoes
EndRedoes
EndUndoRedoHistory
Fore
SplineSet
802 1600 m 128,-1,1
 802 1447 802 1447 707.5 1363.5 c 128,-1,2
 613 1280 613 1280 450 1280 c 128,-1,3
 287 1280 287 1280 192.5 1363.5 c 128,-1,4
 98 1447 98 1447 98 1600 c 128,-1,5
 98 1753 98 1753 192.5 1836.5 c 128,-1,6
 287 1920 287 1920 450 1920 c 128,-1,7
 613 1920 613 1920 707.5 1836.5 c 128,-1,0
 802 1753 802 1753 802 1600 c 128,-1,1
642 1600 m 128,-1,9
 642 1792 642 1792 450 1792 c 128,-1,10
 258 1792 258 1792 258 1600 c 128,-1,11
 258 1408 258 1408 450 1408 c 128,-1,8
 642 1408 642 1408 642 1600 c 128,-1,9
EndSplineSet
EndChar

StartChar: ogonek
Encoding: 731 731 417
Width: 555
GlyphClass: 2
Flags: W
LayerCount: 2
UndoRedoHistory
Layer: 1
Undoes
EndUndoes
Redoes
EndRedoes
EndUndoRedoHistory
Fore
SplineSet
295 -100.5 m 128,-1,1
 265 -158 265 -158 265 -228 c 128,-1,2
 265 -298 265 -298 313.5 -325 c 128,-1,3
 362 -352 362 -352 457 -352 c 1,4,-1
 457 -512 l 1,5,6
 168 -512 168 -512 94 -358 c 0,7,8
 72 -314 72 -314 72.5 -261.5 c 128,-1,9
 73 -209 73 -209 96 -149 c 0,10,11
 136 -43 136 -43 329 64 c 1,12,-1
 457 64 l 1,13,14
 401 26 401 26 363 -8.5 c 128,-1,0
 325 -43 325 -43 295 -100.5 c 128,-1,1
EndSplineSet
EndChar

StartChar: tilde
Encoding: 732 732 418
Width: 1081
GlyphClass: 2
Flags: W
LayerCount: 2
UndoRedoHistory
Layer: 1
Undoes
EndUndoes
Redoes
EndRedoes
EndUndoRedoHistory
Fore
SplineSet
297 1344 m 1,0,-1
 105 1344 l 1,1,2
 105 1462 105 1462 175 1531.5 c 128,-1,3
 245 1601 245 1601 355 1601 c 0,4,5
 465 1601 465 1601 560.5 1552.5 c 128,-1,6
 656 1504 656 1504 745 1504 c 0,7,8
 784 1504 784 1504 796.5 1527.5 c 128,-1,9
 809 1551 809 1551 809 1600 c 1,10,-1
 1001 1600 l 1,11,12
 1001 1484 1001 1484 930 1414 c 128,-1,13
 859 1344 859 1344 745 1344 c 0,14,15
 676 1344 676 1344 610.5 1368 c 128,-1,16
 545 1392 545 1392 483 1416 c 128,-1,17
 421 1440 421 1440 371.5 1440 c 128,-1,18
 322 1440 322 1440 309.5 1417 c 128,-1,19
 297 1394 297 1394 297 1344 c 1,0,-1
EndSplineSet
EndChar

StartChar: hungarumlaut
Encoding: 733 733 419
Width: 1391
GlyphClass: 2
Flags: W
LayerCount: 2
UndoRedoHistory
Layer: 1
Undoes
EndUndoes
Redoes
EndRedoes
EndUndoRedoHistory
Fore
SplineSet
800 1664 m 1,0,-1
 160 1280 l 1,1,-1
 96 1376 l 1,2,-1
 672 1856 l 1,3,-1
 800 1664 l 1,0,-1
1353 1664 m 1,4,-1
 713 1280 l 1,5,-1
 649 1376 l 1,6,-1
 1225 1856 l 1,7,-1
 1353 1664 l 1,4,-1
EndSplineSet
EndChar

StartChar: uni03A9
Encoding: 937 937 420
Width: 1499
GlyphClass: 2
Flags: W
LayerCount: 2
UndoRedoHistory
Layer: 1
Undoes
EndUndoes
Redoes
EndRedoes
EndUndoRedoHistory
Fore
SplineSet
398 160 m 1,0,1
 142 254 142 254 142 662 c 0,2,3
 142 856 142 856 169.5 977.5 c 128,-1,4
 197 1099 197 1099 266.5 1183.5 c 128,-1,5
 336 1268 336 1268 453 1305 c 128,-1,6
 570 1342 570 1342 749.5 1342 c 128,-1,7
 929 1342 929 1342 1045.5 1305.5 c 128,-1,8
 1162 1269 1162 1269 1232 1185 c 128,-1,9
 1302 1101 1302 1101 1330 979 c 128,-1,10
 1358 857 1358 857 1358 662 c 0,11,12
 1358 253 1358 253 1102 160 c 1,13,-1
 1294 160 l 1,14,-1
 1294 0 l 1,15,-1
 910 0 l 1,16,-1
 910 224 l 1,17,18
 1096 224 1096 224 1142 410 c 0,19,20
 1166 507 1166 507 1166 685 c 0,21,22
 1166 863 1166 863 1156 928 c 0,23,24
 1128 1100 1128 1100 1036 1146 c 0,25,26
 970 1179 970 1179 900 1181 c 128,-1,27
 830 1183 830 1183 772 1183 c 2,28,-1
 692 1183 l 2,29,30
 558 1183 558 1183 523.5 1170 c 128,-1,31
 489 1157 489 1157 465.5 1147.5 c 128,-1,32
 442 1138 442 1138 411 1104 c 0,33,34
 334 1021 334 1021 334 694 c 0,35,36
 334 507 334 507 354 427.5 c 128,-1,37
 374 348 374 348 402 310 c 0,38,39
 464 224 464 224 590 224 c 1,40,-1
 590 0 l 1,41,-1
 206 0 l 1,42,-1
 206 160 l 1,43,-1
 398 160 l 1,0,1
EndSplineSet
EndChar

StartChar: pi
Encoding: 960 960 421
Width: 499
GlyphClass: 2
Flags: W
LayerCount: 2
UndoRedoHistory
Layer: 1
Undoes
EndUndoes
Redoes
EndRedoes
EndUndoRedoHistory
Fore
SplineSet
154 0 m 1,0,-1
 154 1088 l 1,1,-1
 346 1088 l 1,2,-1
 346 0 l 1,3,-1
 154 0 l 1,0,-1
346 1536 m 1,4,-1
 346 1344 l 1,5,-1
 154 1344 l 1,6,-1
 154 1536 l 1,7,-1
 346 1536 l 1,4,-1
EndSplineSet
EndChar

StartChar: endash
Encoding: 8211 8211 422
Width: 1038
GlyphClass: 2
Flags: W
LayerCount: 2
UndoRedoHistory
Layer: 1
Undoes
EndUndoes
Redoes
EndRedoes
EndUndoRedoHistory
Fore
SplineSet
106 512 m 1,0,-1
 106 672 l 1,1,-1
 938 672 l 1,2,-1
 938 512 l 1,3,-1
 106 512 l 1,0,-1
EndSplineSet
EndChar

StartChar: emdash
Encoding: 8212 8212 423
Width: 1294
GlyphClass: 2
Flags: W
LayerCount: 2
UndoRedoHistory
Layer: 1
Undoes
EndUndoes
Redoes
EndRedoes
EndUndoRedoHistory
Fore
SplineSet
106 512 m 1,0,-1
 106 672 l 1,1,-1
 1194 672 l 1,2,-1
 1194 512 l 1,3,-1
 106 512 l 1,0,-1
EndSplineSet
EndChar

StartChar: quoteleft
Encoding: 8216 8216 424
Width: 447
GlyphClass: 2
Flags: W
LayerCount: 2
UndoRedoHistory
Layer: 1
Undoes
EndUndoes
Redoes
EndRedoes
EndUndoRedoHistory
Fore
SplineSet
105 1152 m 1,0,-1
 169 1536 l 1,1,-1
 361 1536 l 1,2,-1
 233 1152 l 1,3,-1
 105 1152 l 1,0,-1
EndSplineSet
EndChar

StartChar: quoteright
Encoding: 8217 8217 425
Width: 447
GlyphClass: 2
Flags: W
LayerCount: 2
UndoRedoHistory
Layer: 1
Undoes
EndUndoes
Redoes
EndRedoes
EndUndoRedoHistory
Fore
SplineSet
105 1152 m 1,0,-1
 169 1536 l 1,1,-1
 361 1536 l 1,2,-1
 233 1152 l 1,3,-1
 105 1152 l 1,0,-1
EndSplineSet
EndChar

StartChar: quotesinglbase
Encoding: 8218 8218 426
Width: 444
GlyphClass: 2
Flags: W
LayerCount: 2
UndoRedoHistory
Layer: 1
Undoes
EndUndoes
Redoes
EndRedoes
EndUndoRedoHistory
Fore
SplineSet
88 -256 m 1,0,-1
 152 128 l 1,1,-1
 344 128 l 1,2,-1
 216 -256 l 1,3,-1
 88 -256 l 1,0,-1
EndSplineSet
EndChar

StartChar: quotedblleft
Encoding: 8220 8220 427
Width: 703
GlyphClass: 2
Flags: W
LayerCount: 2
UndoRedoHistory
Layer: 1
Undoes
EndUndoes
Redoes
EndRedoes
EndUndoRedoHistory
Fore
SplineSet
361 1152 m 1,0,-1
 425 1536 l 1,1,-1
 617 1536 l 1,2,-1
 489 1152 l 1,3,-1
 361 1152 l 1,0,-1
105 1152 m 1,4,-1
 169 1536 l 1,5,-1
 361 1536 l 1,6,-1
 233 1152 l 1,7,-1
 105 1152 l 1,4,-1
EndSplineSet
EndChar

StartChar: quotedblright
Encoding: 8221 8221 428
Width: 767
GlyphClass: 2
Flags: W
LayerCount: 2
UndoRedoHistory
Layer: 1
Undoes
EndUndoes
Redoes
EndRedoes
EndUndoRedoHistory
Fore
SplineSet
105 1152 m 1,0,-1
 169 1536 l 1,1,-1
 361 1536 l 1,2,-1
 233 1152 l 1,3,-1
 105 1152 l 1,0,-1
425 1152 m 1,4,-1
 489 1536 l 1,5,-1
 681 1536 l 1,6,-1
 553 1152 l 1,7,-1
 425 1152 l 1,4,-1
EndSplineSet
EndChar

StartChar: quotedblbase
Encoding: 8222 8222 429
Width: 770
GlyphClass: 2
Flags: W
LayerCount: 2
UndoRedoHistory
Layer: 1
Undoes
EndUndoes
Redoes
EndRedoes
EndUndoRedoHistory
Fore
SplineSet
93 -192 m 1,0,-1
 157 192 l 1,1,-1
 349 192 l 1,2,-1
 221 -192 l 1,3,-1
 93 -192 l 1,0,-1
413 -192 m 1,4,-1
 477 192 l 1,5,-1
 669 192 l 1,6,-1
 541 -192 l 1,7,-1
 413 -192 l 1,4,-1
EndSplineSet
EndChar

StartChar: dagger
Encoding: 8224 8224 430
Width: 786
GlyphClass: 2
Flags: W
LayerCount: 2
UndoRedoHistory
Layer: 1
Undoes
EndUndoes
Redoes
EndRedoes
EndUndoRedoHistory
Fore
SplineSet
746 928 m 1,0,-1
 490 928 l 1,1,-1
 490 -128 l 1,2,-1
 298 -128 l 1,3,-1
 298 928 l 1,4,-1
 42 928 l 1,5,-1
 42 1088 l 1,6,-1
 298 1088 l 1,7,-1
 298 1600 l 1,8,-1
 490 1600 l 1,9,-1
 490 1088 l 1,10,-1
 746 1088 l 1,11,-1
 746 928 l 1,0,-1
EndSplineSet
EndChar

StartChar: daggerdbl
Encoding: 8225 8225 431
Width: 838
GlyphClass: 2
Flags: W
LayerCount: 2
UndoRedoHistory
Layer: 1
Undoes
EndUndoes
Redoes
EndRedoes
EndUndoRedoHistory
Fore
SplineSet
773 320 m 1,0,-1
 517 320 l 1,1,-1
 517 -128 l 1,2,-1
 325 -128 l 1,3,-1
 325 320 l 1,4,-1
 69 320 l 1,5,-1
 69 480 l 1,6,-1
 325 480 l 1,7,-1
 325 928 l 1,8,-1
 69 928 l 1,9,-1
 69 1088 l 1,10,-1
 325 1088 l 1,11,-1
 325 1600 l 1,12,-1
 517 1600 l 1,13,-1
 517 1088 l 1,14,-1
 773 1088 l 1,15,-1
 773 928 l 1,16,-1
 517 928 l 1,17,-1
 517 480 l 1,18,-1
 773 480 l 1,19,-1
 773 320 l 1,0,-1
EndSplineSet
EndChar

StartChar: bullet
Encoding: 8226 8226 432
Width: 727
GlyphClass: 2
Flags: W
LayerCount: 2
UndoRedoHistory
Layer: 1
Undoes
EndUndoes
Redoes
EndRedoes
EndUndoRedoHistory
Fore
SplineSet
622 512 m 128,-1,1
 622 256 622 256 366 256 c 128,-1,2
 110 256 110 256 110 512 c 128,-1,3
 110 768 110 768 366 768 c 128,-1,0
 622 768 622 768 622 512 c 128,-1,1
EndSplineSet
EndChar

StartChar: guilsinglleft
Encoding: 8249 8249 435
Width: 814
GlyphClass: 2
Flags: W
LayerCount: 2
UndoRedoHistory
Layer: 1
Undoes
EndUndoes
Redoes
EndRedoes
EndUndoRedoHistory
Fore
SplineSet
217 608 m 1,0,-1
 729 256 l 1,1,-1
 633 128 l 1,2,-1
 89 512 l 1,3,-1
 89 704 l 1,4,-1
 633 1088 l 1,5,-1
 729 960 l 1,6,-1
 217 608 l 1,0,-1
EndSplineSet
EndChar

StartChar: guilsinglright
Encoding: 8250 8250 436
Width: 816
GlyphClass: 2
Flags: W
LayerCount: 2
UndoRedoHistory
Layer: 1
Undoes
EndUndoes
Redoes
EndRedoes
EndUndoRedoHistory
Fore
SplineSet
94 256 m 1,0,-1
 606 608 l 1,1,-1
 94 960 l 1,2,-1
 190 1088 l 1,3,-1
 734 704 l 1,4,-1
 734 512 l 1,5,-1
 190 128 l 1,6,-1
 94 256 l 1,0,-1
EndSplineSet
EndChar

StartChar: fraction
Encoding: 8260 8260 437
Width: 934
GlyphClass: 2
Flags: W
LayerCount: 2
UndoRedoHistory
Layer: 1
Undoes
EndUndoes
Redoes
EndRedoes
EndUndoRedoHistory
Fore
SplineSet
17 0 m 1,0,-1
 721 1536 l 1,1,-1
 913 1536 l 1,2,-1
 209 0 l 1,3,-1
 17 0 l 1,0,-1
EndSplineSet
EndChar

StartChar: foursuperior
Encoding: 8308 8308 438
Width: 1363
GlyphClass: 2
Flags: W
LayerCount: 2
UndoRedoHistory
Layer: 1
Undoes
EndUndoes
Redoes
EndRedoes
EndUndoRedoHistory
Fore
SplineSet
1295 192 m 1,0,-1
 1103 192 l 1,1,-1
 1103 0 l 1,2,-1
 911 0 l 1,3,-1
 911 192 l 1,4,-1
 79 192 l 1,5,-1
 79 384 l 1,6,-1
 847 1088 l 1,7,-1
 1103 1088 l 1,8,-1
 1103 352 l 1,9,-1
 1295 352 l 1,10,-1
 1295 192 l 1,0,-1
271 352 m 1,11,-1
 911 352 l 1,12,-1
 911 960 l 1,13,-1
 271 352 l 1,11,-1
EndSplineSet
EndChar

StartChar: Euro
Encoding: 8364 8364 439
Width: 1988
GlyphClass: 2
Flags: W
LayerCount: 2
UndoRedoHistory
Layer: 1
Undoes
EndUndoes
Redoes
EndRedoes
EndUndoRedoHistory
Fore
SplineSet
821 1560 m 2,0,1
 996 1560 996 1560 1104 1569 c 1,2,-1
 1235 1569 l 1,3,4
 1330 1563 1330 1563 1450.5 1553 c 0,5,6
 1571 1542 1571 1542 1644 1508 c 0,7,8
 1782 1443 1782 1443 1833 1294.5 c 128,-1,9
 1884 1146 1884 1146 1884 919 c 2,10,-1
 1884 674 l 2,11,12
 1884 377 1884 377 1831.5 252.5 c 128,-1,13
 1779 128 1779 128 1684 72 c 128,-1,14
 1589 16 1589 16 1430 6 c 1,15,-1
 1104 0 l 1,16,-1
 787 0 l 2,17,18
 749 0 749 0 675.5 4 c 128,-1,19
 602 8 602 8 554 10 c 128,-1,20
 506 12 506 12 445 26 c 0,21,22
 319 56 319 56 249.5 127.5 c 128,-1,23
 180 199 180 199 149 301 c 128,-1,24
 118 403 118 403 109 521.5 c 128,-1,25
 100 640 100 640 100 811 c 2,26,-1
 100 927 l 2,27,28
 100 1092 100 1092 125 1205 c 128,-1,29
 150 1318 150 1318 210 1400 c 0,30,31
 326 1558 326 1558 627 1561 c 1,32,-1
 821 1560 l 2,0,1
884 157 m 1,33,-1
 898 158 l 1,34,35
 1006 158 1006 158 1114 158 c 1,36,-1
 1155 157 l 2,37,38
 1175 157 1175 157 1180 160 c 1,39,40
 1436 160 1436 160 1525 195.5 c 128,-1,41
 1614 231 1614 231 1653 303.5 c 128,-1,42
 1692 376 1692 376 1692 504 c 2,43,-1
 1692 1071 l 2,44,45
 1692 1217 1692 1217 1631.5 1304 c 128,-1,46
 1571 1391 1571 1391 1442 1395 c 1,47,48
 1169 1409 1169 1409 1008 1409 c 2,49,-1
 952 1409 l 1,50,-1
 772 1403 l 2,51,52
 731 1401 731 1401 683 1401 c 0,53,54
 462 1401 462 1401 375.5 1314 c 128,-1,55
 289 1227 289 1227 289 1008 c 2,56,-1
 289 664 l 2,57,58
 289 648 289 648 296 538 c 128,-1,59
 303 428 303 428 314 381 c 128,-1,60
 325 334 325 334 348 300 c 128,-1,61
 371 266 371 266 392.5 241.5 c 128,-1,62
 414 217 414 217 480.5 193.5 c 128,-1,63
 547 170 547 170 633 165 c 128,-1,64
 719 160 719 160 842 160 c 1,65,66
 860 157 860 157 870 157 c 2,67,-1
 884 157 l 1,33,-1
982 1437 m 128,-1,69
 982 1440 982 1440 979.5 1440 c 128,-1,70
 977 1440 977 1440 977 1437 c 128,-1,71
 977 1434 977 1434 979.5 1434 c 128,-1,68
 982 1434 982 1434 982 1437 c 128,-1,69
EndSplineSet
EndChar

StartChar: trademark
Encoding: 8482 8482 440
Width: 2695
GlyphClass: 2
Flags: W
LayerCount: 2
UndoRedoHistory
Layer: 1
Undoes
EndUndoes
Redoes
EndRedoes
EndUndoRedoHistory
Fore
SplineSet
63 1536 m 1,0,-1
 1023 1536 l 1,1,-1
 1023 1408 l 1,2,-1
 639 1408 l 1,3,-1
 639 704 l 1,4,-1
 447 704 l 1,5,-1
 447 1408 l 1,6,-1
 63 1408 l 1,7,-1
 63 1536 l 1,0,-1
1758 704 m 1,8,-1
 1343 1408 l 1,9,-1
 1343 704 l 1,10,-1
 1151 704 l 1,11,-1
 1151 1536 l 1,12,-1
 1471 1536 l 1,13,-1
 1855 864 l 1,14,-1
 2253 1536 l 1,15,-1
 2559 1536 l 1,16,-1
 2559 704 l 1,17,-1
 2367 704 l 1,18,-1
 2367 1387 l 1,19,-1
 1952 704 l 1,20,-1
 1758 704 l 1,8,-1
EndSplineSet
EndChar

StartChar: Omega
Encoding: 8486 8486 441
Width: 1393
GlyphClass: 2
Flags: W
LayerCount: 2
UndoRedoHistory
Layer: 1
Undoes
EndUndoes
Redoes
EndRedoes
EndUndoRedoHistory
Fore
SplineSet
345 160 m 1,0,1
 89 253 89 253 89 662 c 0,2,3
 89 857 89 857 117 979 c 128,-1,4
 145 1101 145 1101 215 1185 c 128,-1,5
 285 1269 285 1269 401.5 1305.5 c 128,-1,6
 518 1342 518 1342 697.5 1342 c 128,-1,7
 877 1342 877 1342 994 1305 c 128,-1,8
 1111 1268 1111 1268 1180.5 1183.5 c 128,-1,9
 1250 1099 1250 1099 1277.5 977.5 c 128,-1,10
 1305 856 1305 856 1305 662 c 0,11,12
 1305 253 1305 253 1049 160 c 1,13,-1
 1241 160 l 1,14,-1
 1241 0 l 1,15,-1
 857 0 l 1,16,-1
 857 224 l 1,17,18
 1042 224 1042 224 1088 410 c 0,19,20
 1112 507 1112 507 1112.5 631 c 128,-1,21
 1113 755 1113 755 1111 809 c 0,22,23
 1100 1076 1100 1076 998 1136 c 0,24,25
 928 1177 928 1177 839 1180 c 128,-1,26
 750 1183 750 1183 683.5 1183 c 128,-1,27
 617 1183 617 1183 557.5 1180.5 c 128,-1,28
 498 1178 498 1178 454.5 1162.5 c 128,-1,29
 411 1147 411 1147 382 1126 c 128,-1,30
 353 1105 353 1105 324 1045 c 128,-1,31
 295 985 295 985 288 895 c 128,-1,32
 281 805 281 805 281 697 c 0,33,34
 282 589 282 589 286 530 c 0,35,36
 297 381 297 381 354 302.5 c 128,-1,37
 411 224 411 224 537 224 c 1,38,-1
 537 0 l 1,39,-1
 153 0 l 1,40,-1
 153 160 l 1,41,-1
 345 160 l 1,0,1
EndSplineSet
EndChar

StartChar: partialdiff
Encoding: 8706 8706 442
Width: 1898
GlyphClass: 2
Flags: W
LayerCount: 2
UndoRedoHistory
Layer: 1
Undoes
EndUndoes
Redoes
EndRedoes
EndUndoRedoHistory
Fore
SplineSet
905 1408 m 1,0,-1
 783 1409 l 1,1,2
 419 1409 419 1409 340 1311 c 0,3,4
 298 1258 298 1258 297.5 1208.5 c 128,-1,5
 297 1159 297 1159 297 1120 c 1,6,-1
 137 1120 l 1,7,8
 136 1329 136 1329 240 1425 c 0,9,10
 315 1494 315 1494 390 1516 c 0,11,12
 516 1552 516 1552 633 1560 c 128,-1,13
 750 1568 750 1568 927 1568 c 0,14,15
 1328 1568 1328 1568 1521 1479 c 0,16,17
 1769 1365 1769 1365 1792 1027 c 1,18,19
 1801 912 1801 912 1801 768 c 2,20,-1
 1801 755 l 2,21,22
 1800 471 1800 471 1788 404 c 0,23,24
 1758 242 1758 242 1724 186 c 0,25,26
 1671 99 1671 99 1588 52 c 0,27,28
 1437 -32 1437 -32 1097 -32 c 2,29,-1
 776 -32 l 2,30,31
 463 -32 463 -32 328.5 23.5 c 128,-1,32
 194 79 194 79 133.5 178.5 c 128,-1,33
 73 278 73 278 73 448 c 0,34,35
 73 703 73 703 209.5 804.5 c 128,-1,36
 346 906 346 906 603 923 c 0,37,38
 679 928 679 928 776 928 c 2,39,-1
 1097 928 l 2,40,41
 1448 928 1448 928 1609 832 c 1,42,43
 1608 1008 1608 1008 1600 1064 c 0,44,45
 1571 1251 1571 1251 1492 1313 c 0,46,47
 1376 1404 1376 1404 1048 1408 c 0,48,49
 1002 1408 1002 1408 916 1408 c 2,50,-1
 905 1408 l 1,0,-1
1220 769 m 2,51,-1
 1097 768 l 1,52,-1
 742 768 l 2,53,54
 589 768 589 768 553.5 763 c 128,-1,55
 518 758 518 758 485 753 c 0,56,57
 372 736 372 736 306 654 c 0,58,59
 265 604 265 604 265 477.5 c 128,-1,60
 265 351 265 351 283 308 c 128,-1,61
 301 265 301 265 315.5 241.5 c 128,-1,62
 330 218 330 218 370 190 c 128,-1,63
 410 162 410 162 488.5 145 c 128,-1,64
 567 128 567 128 776 128 c 2,65,-1
 1097 128 l 2,66,67
 1298 128 1298 128 1384 147 c 128,-1,68
 1470 166 1470 166 1518.5 206 c 128,-1,69
 1567 246 1567 246 1588 319 c 128,-1,70
 1609 392 1609 392 1609 477 c 128,-1,71
 1609 562 1609 562 1599 601 c 0,72,73
 1564 739 1564 739 1395 760 c 0,74,75
 1320 769 1320 769 1220 769 c 2,51,-1
EndSplineSet
EndChar

StartChar: Delta
Encoding: 8710 8710 443
Width: 1450
GlyphClass: 2
Flags: W
LayerCount: 2
UndoRedoHistory
Layer: 1
Undoes
EndUndoes
Redoes
EndRedoes
EndUndoRedoHistory
Fore
SplineSet
22 -1 m 1,0,-1
 598 1536 l 1,1,-1
 854 1536 l 1,2,-1
 1430 -1 l 1,3,-1
 22 -1 l 1,0,-1
1174 159 m 1,4,-1
 726 1408 l 1,5,-1
 278 159 l 1,6,-1
 1174 159 l 1,4,-1
EndSplineSet
EndChar

StartChar: product
Encoding: 8719 8719 444
Width: 1830
GlyphClass: 2
Flags: W
LayerCount: 2
UndoRedoHistory
Layer: 1
Undoes
EndUndoes
Redoes
EndRedoes
EndUndoRedoHistory
Fore
SplineSet
1685 0 m 1,0,-1
 1493 0 l 1,1,-1
 1493 1376 l 1,2,-1
 341 1376 l 1,3,-1
 341 0 l 1,4,-1
 149 0 l 1,5,-1
 149 1536 l 1,6,-1
 1685 1536 l 1,7,-1
 1685 0 l 1,0,-1
EndSplineSet
EndChar

StartChar: summation
Encoding: 8721 8721 445
Width: 1557
GlyphClass: 2
Flags: W
LayerCount: 2
UndoRedoHistory
Layer: 1
Undoes
EndUndoes
Redoes
EndRedoes
EndUndoRedoHistory
Fore
SplineSet
820 736 m 1,0,-1
 276 160 l 1,1,-1
 1492 160 l 1,2,-1
 1492 0 l 1,3,-1
 84 0 l 1,4,-1
 84 176 l 1,5,-1
 660 784 l 1,6,-1
 84 1360 l 1,7,-1
 84 1536 l 1,8,-1
 1492 1536 l 1,9,-1
 1492 1376 l 1,10,-1
 276 1376 l 1,11,-1
 820 832 l 1,12,-1
 820 736 l 1,0,-1
EndSplineSet
EndChar

StartChar: minus
Encoding: 8722 8722 446
Width: 1422
GlyphClass: 2
Flags: W
LayerCount: 2
UndoRedoHistory
Layer: 1
Undoes
EndUndoes
Redoes
EndRedoes
EndUndoRedoHistory
Fore
SplineSet
106 512 m 1,0,-1
 106 672 l 1,1,-1
 1322 672 l 1,2,-1
 1322 512 l 1,3,-1
 106 512 l 1,0,-1
EndSplineSet
EndChar

StartChar: radical
Encoding: 8730 8730 447
Width: 1431
GlyphClass: 2
Flags: W
LayerCount: 2
UndoRedoHistory
Layer: 1
Undoes
EndUndoes
Redoes
EndRedoes
EndUndoRedoHistory
Fore
SplineSet
31 896 m 1,0,-1
 255 896 l 1,1,-1
 671 128 l 1,2,-1
 1183 1536 l 1,3,-1
 1407 1536 l 1,4,-1
 799 0 l 1,5,-1
 543 0 l 1,6,-1
 31 896 l 1,0,-1
EndSplineSet
EndChar

StartChar: infinity
Encoding: 8734 8734 448
Width: 2448
GlyphClass: 2
Flags: W
LayerCount: 2
UndoRedoHistory
Layer: 1
Undoes
EndUndoes
Redoes
EndRedoes
EndUndoRedoHistory
Fore
SplineSet
2347 544 m 128,-1,1
 2347 -32 2347 -32 1833 -32 c 0,2,3
 1687 -32 1687 -32 1569.5 41.5 c 128,-1,4
 1452 115 1452 115 1375 205.5 c 128,-1,5
 1298 296 1298 296 1230 393 c 1,6,7
 1066 159 1066 159 923.5 63.5 c 128,-1,8
 781 -32 781 -32 621 -32 c 0,9,10
 107 -32 107 -32 107 544 c 128,-1,11
 107 1120 107 1120 621 1120 c 0,12,13
 776 1120 776 1120 878.5 1057 c 128,-1,14
 981 994 981 994 1023.5 950.5 c 128,-1,15
 1066 907 1066 907 1087.5 884 c 128,-1,16
 1109 861 1109 861 1143 817 c 128,-1,17
 1177 773 1177 773 1191.5 752.5 c 128,-1,18
 1206 732 1206 732 1238 687 c 1,19,20
 1364 869 1364 869 1414 918 c 0,21,22
 1529 1030 1529 1030 1624 1075 c 128,-1,23
 1719 1120 1719 1120 1833 1120 c 0,24,0
 2347 1120 2347 1120 2347 544 c 128,-1,1
626 128 m 0,25,26
 844 128 844 128 1078 456 c 0,27,28
 1128 526 1128 526 1135 535 c 1,29,-1
 1111 571 l 2,30,31
 1003 735 1003 735 961 778 c 0,32,33
 865 878 865 878 788.5 919 c 128,-1,34
 712 960 712 960 619 960 c 0,35,36
 433 960 433 960 366 853.5 c 128,-1,37
 299 747 299 747 299 547 c 0,38,39
 299 128 299 128 626 128 c 0,25,26
1847 128 m 0,40,41
 2155 128 2155 128 2155 547 c 0,42,43
 2155 747 2155 747 2088.5 853.5 c 128,-1,44
 2022 960 2022 960 1832 960 c 128,-1,45
 1642 960 1642 960 1452 714 c 0,46,47
 1374 613 1374 613 1334 548 c 1,48,49
 1340 539 1340 539 1366 502 c 128,-1,50
 1392 465 1392 465 1418 426 c 0,51,52
 1444 387 1444 387 1488 337 c 0,53,54
 1612 195 1612 195 1717 152 c 0,55,56
 1772 128 1772 128 1847 128 c 0,40,41
EndSplineSet
EndChar

StartChar: integral
Encoding: 8747 8747 449
Width: 849
GlyphClass: 2
Flags: W
LayerCount: 2
UndoRedoHistory
Layer: 1
Undoes
EndUndoes
Redoes
EndRedoes
EndUndoRedoHistory
Fore
SplineSet
-10 -128 m 1,0,1
 71 -128 l 2,2,3
 196 -128 196 -128 253 -78.5 c 128,-1,4
 310 -29 310 -29 310 128 c 2,5,-1
 310 1152 l 2,6,7
 310 1400 310 1400 440 1488 c 0,8,9
 508 1534 508 1534 597.5 1551 c 128,-1,10
 687 1568 687 1568 822 1568 c 1,11,-1
 822 1408 l 1,12,-1
 741 1408 l 2,13,14
 616 1408 616 1408 559 1358.5 c 128,-1,15
 502 1309 502 1309 502 1152 c 2,16,-1
 502 128 l 2,17,18
 502 -120 502 -120 372 -208 c 0,19,20
 304 -254 304 -254 214.5 -271 c 128,-1,21
 125 -288 125 -288 -11 -288 c 1,22,-1
 -10 -128 l 1,0,1
EndSplineSet
EndChar

StartChar: approxequal
Encoding: 8776 8776 450
Width: 1133
GlyphClass: 2
Flags: W
LayerCount: 2
UndoRedoHistory
Layer: 1
Undoes
EndUndoes
Redoes
EndRedoes
EndUndoRedoHistory
Fore
SplineSet
1016 703 m 1,0,1
 1016 587 1016 587 945 517 c 128,-1,2
 874 447 874 447 762 447 c 0,3,4
 650 446 650 446 512 506 c 0,5,6
 476 522 476 522 448.5 532.5 c 128,-1,7
 421 543 421 543 379 543 c 128,-1,8
 337 543 337 543 324.5 520 c 128,-1,9
 312 497 312 497 312 447 c 1,10,-1
 120 447 l 1,11,12
 120 566 120 566 189.5 634.5 c 128,-1,13
 259 703 259 703 372 703 c 0,14,15
 485 704 485 704 624 644 c 0,16,17
 660 628 660 628 687.5 617.5 c 128,-1,18
 715 607 715 607 757 607 c 128,-1,19
 799 607 799 607 811.5 630.5 c 128,-1,20
 824 654 824 654 824 703 c 1,21,-1
 1016 703 l 1,0,1
1016 1088 m 1,22,23
 1016 972 1016 972 945 902 c 128,-1,24
 874 832 874 832 762 832 c 0,25,26
 650 832 650 832 512 892 c 0,27,28
 476 908 476 908 448.5 918 c 128,-1,29
 421 928 421 928 379 928 c 128,-1,30
 337 928 337 928 324.5 905 c 128,-1,31
 312 882 312 882 312 832 c 1,32,-1
 120 832 l 1,33,34
 120 951 120 951 189.5 1019.5 c 128,-1,35
 259 1088 259 1088 372 1088 c 0,36,37
 485 1088 485 1088 624 1028 c 0,38,39
 660 1012 660 1012 687.5 1002 c 128,-1,40
 715 992 715 992 757 992 c 128,-1,41
 799 992 799 992 811.5 1015.5 c 128,-1,42
 824 1039 824 1039 824 1088 c 1,43,-1
 1016 1088 l 1,22,23
EndSplineSet
EndChar

StartChar: notequal
Encoding: 8800 8800 451
Width: 1358
GlyphClass: 2
Flags: W
LayerCount: 2
UndoRedoHistory
Layer: 1
Undoes
EndUndoes
Redoes
EndRedoes
EndUndoRedoHistory
Fore
SplineSet
331 -64 m 1,0,-1
 483 320 l 1,1,-1
 75 320 l 1,2,-1
 75 480 l 1,3,-1
 546 480 l 1,4,-1
 698 864 l 1,5,-1
 75 864 l 1,6,-1
 75 1024 l 1,7,-1
 762 1024 l 1,8,-1
 939 1472 l 1,9,-1
 1099 1408 l 1,10,-1
 947 1024 l 1,11,-1
 1291 1024 l 1,12,-1
 1291 864 l 1,13,-1
 884 864 l 1,14,-1
 732 480 l 1,15,-1
 1291 480 l 1,16,-1
 1291 320 l 1,17,-1
 668 320 l 1,18,-1
 491 -128 l 1,19,-1
 331 -64 l 1,0,-1
EndSplineSet
EndChar

StartChar: lessequal
Encoding: 8804 8804 452
Width: 1081
GlyphClass: 2
Flags: W
LayerCount: 2
UndoRedoHistory
Layer: 1
Undoes
EndUndoes
Redoes
EndRedoes
EndUndoRedoHistory
Fore
SplineSet
977 1472 m 1,0,-1
 977 1216 l 1,1,-1
 225 832 l 1,2,-1
 977 448 l 1,3,-1
 977 192 l 1,4,-1
 81 736 l 1,5,-1
 81 928 l 1,6,-1
 977 1472 l 1,0,-1
81 128 m 1,7,-1
 975 128 l 1,8,-1
 975 -32 l 1,9,-1
 81 -32 l 1,10,-1
 81 128 l 1,7,-1
EndSplineSet
EndChar

StartChar: greaterequal
Encoding: 8805 8805 453
Width: 1085
GlyphClass: 2
Flags: W
LayerCount: 2
UndoRedoHistory
Layer: 1
Undoes
EndUndoes
Redoes
EndRedoes
EndUndoRedoHistory
Fore
SplineSet
1007 928 m 1,0,-1
 1007 736 l 1,1,-1
 111 192 l 1,2,-1
 111 448 l 1,3,-1
 863 832 l 1,4,-1
 111 1216 l 1,5,-1
 111 1472 l 1,6,-1
 1007 928 l 1,0,-1
111 128 m 1,7,-1
 1005 128 l 1,8,-1
 1005 -32 l 1,9,-1
 111 -32 l 1,10,-1
 111 128 l 1,7,-1
EndSplineSet
EndChar

StartChar: lozenge
Encoding: 9674 9674 454
Width: 1096
GlyphClass: 2
Flags: W
LayerCount: 2
UndoRedoHistory
Layer: 1
Undoes
EndUndoes
Redoes
EndRedoes
EndUndoRedoHistory
Fore
SplineSet
1063 768 m 1,0,-1
 615 0 l 1,1,-1
 487 0 l 1,2,-1
 39 768 l 1,3,-1
 487 1536 l 1,4,-1
 615 1536 l 1,5,-1
 1063 768 l 1,0,-1
263 768 m 1,6,-1
 551 256 l 1,7,-1
 839 768 l 1,8,-1
 551 1280 l 1,9,-1
 263 768 l 1,6,-1
EndSplineSet
EndChar

StartChar: uni030F
Encoding: 65538 -1 458
Width: 1385
GlyphClass: 2
Flags: W
LayerCount: 2
UndoRedoHistory
Layer: 1
Undoes
EndUndoes
Redoes
EndRedoes
EndUndoRedoHistory
Fore
SplineSet
1233 1280 m 1,0,-1
 593 1664 l 1,1,-1
 721 1856 l 1,2,-1
 1297 1376 l 1,3,-1
 1233 1280 l 1,0,-1
680 1280 m 1,4,-1
 40 1664 l 1,5,-1
 168 1856 l 1,6,-1
 744 1376 l 1,7,-1
 680 1280 l 1,4,-1
EndSplineSet
EndChar
